<svg width="17" height="38" viewBox="0 0 14 29" fill="none" xmlns="http://www.w3.org/2000/svg">
<path d="M12.2504 29C12.01 29 11.7725 28.9506 11.5541 28.8552C11.3358 28.7597 11.1419 28.6205 10.9857 28.4471L0.999399 17.1347C0.354132 16.4103 0 15.4923 0 14.5436C0 13.5949 0.354132 12.6769 0.999399 11.9525L10.9857 0.655958C11.1194 0.479891 11.2898 0.331844 11.4865 0.221099C11.6831 0.110354 11.9016 0.0392805 12.1285 0.0122764C12.3554 -0.0147278 12.5857 0.00292872 12.8051 0.0641567C13.0244 0.125385 13.2282 0.228833 13.4036 0.36811C13.579 0.507386 13.7224 0.679491 13.8246 0.873653C13.9268 1.06781 13.9856 1.2799 13.9977 1.49665C14.0097 1.71341 13.9746 1.93019 13.8945 2.13349C13.8144 2.33678 13.691 2.52225 13.532 2.67828L3.54574 13.9906C3.40738 14.1449 3.3314 14.3409 3.3314 14.5436C3.3314 14.7462 3.40738 14.9423 3.54574 15.0966L13.532 26.4089C13.6731 26.5676 13.78 26.7511 13.8463 26.949C13.9127 27.1469 13.9372 27.3552 13.9187 27.5621C13.9001 27.769 13.8388 27.9704 13.7382 28.1548C13.6376 28.3392 13.4996 28.5029 13.3323 28.6366C13.0251 28.8699 12.6438 28.9979 12.2504 29Z" fill="#000"/>
</svg>
