<svg width="17" height="38" viewBox="0 0 14 29" fill="none" xmlns="http://www.w3.org/2000/svg">
<path d="M1.74959 -1.90735e-06C1.98999 -1.71661e-05 2.22749 0.0493793 2.44585 0.144838C2.66421 0.240297 2.85806 0.379515 3.01433 0.552937L13.0006 11.8653C13.6459 12.5897 14 13.5077 14 14.4564C14 15.4051 13.6459 16.3231 13.0006 17.0475L3.01433 28.344C2.8806 28.5201 2.71017 28.6682 2.51351 28.7789C2.31685 28.8896 2.09837 28.9607 1.87149 28.9877C1.64461 29.0147 1.4143 28.9971 1.19493 28.9358C0.975557 28.8746 0.771762 28.7712 0.596385 28.6319C0.421008 28.4926 0.277629 28.3205 0.175414 28.1263C0.0731993 27.9322 0.0143652 27.7201 0.00231266 27.5033C-0.00973988 27.2866 0.0254087 27.0698 0.105523 26.8665C0.185637 26.6632 0.309025 26.4778 0.467981 26.3217L10.4543 15.0094C10.5926 14.8551 10.6686 14.6591 10.6686 14.4564C10.6686 14.2538 10.5926 14.0577 10.4543 13.9034L0.467981 2.59107C0.326875 2.4324 0.220011 2.24887 0.153675 2.051C0.0873394 1.85314 0.0627966 1.64484 0.0813465 1.43794C0.0998964 1.23104 0.161156 1.0296 0.261763 0.845222C0.36237 0.660841 0.500376 0.497101 0.667699 0.363352C0.974943 0.130079 1.35616 0.0020752 1.74959 -1.90735e-06Z" fill="#000"/>
</svg>
