<svg width="20" height="20" viewBox="0 0 20 20" fill="none" xmlns="http://www.w3.org/2000/svg">
<path fill-rule="evenodd" clip-rule="evenodd" d="M4.378 18.0603C5.99897 19.145 7.90515 19.7248 9.85557 19.7263C12.4721 19.7263 14.9816 18.6874 16.8325 16.8379C18.6834 14.9884 19.7243 12.4797 19.7263 9.86315C19.7263 7.91273 19.1481 6.00608 18.0646 4.38426C16.9812 2.76244 15.4412 1.49825 13.6394 0.751509C11.8375 0.00476745 9.8548 -0.190985 7.94175 0.188969C6.0287 0.568922 4.27126 1.50754 2.89158 2.88616C1.51189 4.26478 0.571888 6.0215 0.190455 7.93426C-0.190977 9.84702 0.00324784 11.8299 0.748595 13.6323C1.49394 15.4347 2.75701 16.9756 4.378 18.0603ZM5.22554 2.93446C6.59563 2.01741 8.20689 1.52712 9.85557 1.52561C12.0675 1.52561 14.189 2.4038 15.7538 3.96717C17.3185 5.53054 18.1986 7.6512 18.2007 9.86315C18.2007 11.5118 17.7119 13.1235 16.7961 14.4944C15.8803 15.8653 14.5786 16.934 13.0555 17.5653C11.5325 18.1966 9.85655 18.3621 8.23944 18.041C6.62233 17.7199 5.13666 16.9266 3.97033 15.7614C2.80401 14.5961 2.00931 13.1112 1.68674 11.4944C1.36418 9.87757 1.52822 8.20141 2.1581 6.67779C2.78798 5.15418 3.85545 3.85152 5.22554 2.93446ZM12.8338 13.6205C12.7308 13.6211 12.6287 13.6014 12.5334 13.5624C12.4381 13.5235 12.3515 13.4661 12.2784 13.3935L9.85865 10.9692L7.43324 13.3948C7.28829 13.5386 7.09259 13.6197 6.88844 13.6205C6.73386 13.6214 6.58254 13.5763 6.45373 13.4908C6.32492 13.4054 6.2245 13.2835 6.16523 13.1407C6.10596 12.9979 6.09056 12.8407 6.12096 12.6892C6.15137 12.5376 6.22619 12.3985 6.33594 12.2897L8.75851 9.86695L6.29389 7.39763C6.16573 7.24789 6.09873 7.05527 6.10634 6.85827C6.11394 6.66127 6.19553 6.47442 6.33485 6.33501C6.47417 6.19561 6.66099 6.11395 6.85787 6.10634C7.05475 6.09873 7.24728 6.16572 7.39693 6.29395L9.86503 8.76034L12.2893 6.33595C12.3616 6.263 12.4477 6.20512 12.5425 6.16561C12.6373 6.12609 12.739 6.10575 12.8417 6.10575C12.9445 6.10575 13.0462 6.12609 13.141 6.16561C13.2358 6.20512 13.3219 6.263 13.3942 6.33595C13.5392 6.48176 13.6205 6.67903 13.6205 6.88464C13.6205 7.09024 13.5392 7.28748 13.3942 7.4333L10.9666 9.86115L13.3891 12.282C13.4625 12.3548 13.5207 12.4413 13.5604 12.5367C13.6001 12.6321 13.6205 12.7344 13.6205 12.8378C13.6205 12.9411 13.6001 13.0434 13.5604 13.1388C13.5207 13.2342 13.4625 13.3207 13.3891 13.3935C13.3161 13.4661 13.2294 13.5235 13.1341 13.5624C13.0388 13.6014 12.9367 13.6211 12.8338 13.6205Z" fill="#EF4444"/>
</svg>
