<svg width="19" height="21" viewBox="0 0 19 21" fill="none" xmlns="http://www.w3.org/2000/svg">
<path fill-rule="evenodd" clip-rule="evenodd" d="M4.03857 8.50326C3.36898 8.51126 2.7085 8.34201 2.11776 8.01148V11.608H11.7975V4.76508C11.7975 4.64987 11.8272 4.53775 11.8823 4.43921V2.9667H7.98174C8.14032 3.40322 8.22056 3.8635 8.21893 4.32703C8.21922 5.0306 8.03303 5.72209 7.67868 6.33335C7.32699 6.94004 6.82173 7.4469 6.21205 7.80479C5.57194 8.25078 4.81783 8.49671 4.03857 8.50326ZM0.60539 6.52682C0.666295 6.62949 0.731246 6.7291 0.800011 6.82542V12.2558L0.800207 12.2716L0.800011 12.2878V15.5959C0.800009 16.2598 1.06018 16.8966 1.52348 17.3667C1.98679 17.8368 2.6154 18.1017 3.27148 18.1035H4.11676C4.14413 18.1953 4.17629 18.2859 4.21318 18.375C4.42511 18.8867 4.78403 19.3239 5.24449 19.6316C5.70494 19.9393 6.24627 20.1035 6.80006 20.1035C7.54214 20.1018 8.25336 19.8062 8.77809 19.2815C9.10946 18.9501 9.34943 18.5444 9.48171 18.1035H10.9167C10.944 18.1953 10.9762 18.2859 11.0131 18.375C11.225 18.8867 11.5839 19.3239 12.0443 19.6316C12.5048 19.9393 13.0462 20.1035 13.5999 20.1035C14.3425 20.1035 15.0547 19.8085 15.5798 19.2834C15.9116 18.9516 16.1515 18.5451 16.2832 18.1035H16.3286C16.9846 18.1017 17.6133 17.8368 18.0766 17.3667C18.5399 16.8966 18.8 16.2598 18.8 15.5959V10.6668C18.8006 10.0049 18.6122 9.35702 18.2573 8.80101L15.8382 5.00327C15.6645 4.72742 15.4248 4.50036 15.1414 4.34308C14.858 4.1858 14.5399 4.10339 14.2167 4.10346H13.2V2.35131C13.2 2.17951 13.1306 2.01475 13.0071 1.89327C12.8835 1.77179 12.7159 1.70354 12.5412 1.70354H7.12936C6.73981 1.18375 6.23846 0.76746 5.66563 0.489594C5.04317 0.187655 4.3573 0.0593242 3.67403 0.116958C2.99075 0.174593 2.33309 0.416251 1.76434 0.81867C1.19559 1.22109 0.734918 1.77071 0.426643 2.41465C0.118367 3.05858 -0.0271405 3.77515 0.00416747 4.49536C0.0354755 5.21556 0.242532 5.91516 0.60539 6.52682ZM5.06067 6.90762C5.22464 6.84851 5.3818 6.7748 5.53039 6.68781C5.68166 6.58268 5.82362 6.46113 5.95374 6.32427C6.4618 5.78991 6.74795 5.06567 6.74964 4.30997C6.7463 3.55418 6.45982 2.83024 5.9523 2.29519C5.44478 1.76013 4.75714 1.4571 4.03857 1.45181C3.31786 1.45181 2.62667 1.75294 2.11705 2.28894C1.60743 2.82495 1.32116 3.55194 1.32116 4.30997C1.32393 4.93316 1.51967 5.53457 1.87329 6.02581C1.90441 6.05058 1.93332 6.0782 1.9596 6.10841C2.33169 6.53694 2.82831 6.84323 3.38268 6.9861C3.93704 7.12897 4.52261 7.10159 5.06067 6.90762ZM12.4513 12.9296C12.527 12.9296 12.6014 12.9163 12.6714 12.8909C12.7924 12.8671 12.9051 12.8102 12.9958 12.7254C13.1184 12.6109 13.1916 12.4543 13.2 12.2882V5.42671H14.2167C14.3204 5.42973 14.422 5.45771 14.513 5.50833C14.6039 5.55896 14.6816 5.63077 14.7397 5.71783L15.5671 7.01676L14.6585 7.84217C14.4477 8.03863 14.2805 8.27529 14.1673 8.53749C14.054 8.79968 13.9971 9.08181 14.0001 9.36638V10.8391C14.0001 11.3866 14.2228 11.9117 14.6191 12.2989C15.0155 12.6861 15.5531 12.9036 16.1136 12.9036H17.4924V15.5959C17.4932 15.8957 17.3816 16.1846 17.1802 16.4043C16.9788 16.6241 16.7025 16.7585 16.407 16.7802C16.3153 16.3952 16.146 16.0364 15.9126 15.725C15.6058 15.2756 15.1746 14.925 14.6714 14.7166C14.1598 14.5047 13.5968 14.4493 13.0537 14.5573C12.5105 14.6653 12.0116 14.932 11.62 15.3236C11.2284 15.7152 10.9618 16.2141 10.8537 16.7572L10.8492 16.7802H9.55074C9.48087 16.413 9.33783 16.0617 9.12817 15.7479C8.8205 15.2874 8.3832 14.9286 7.87157 14.7166C7.35994 14.5047 6.79697 14.4493 6.25382 14.5573C6.1122 14.5855 5.97359 14.6244 5.8391 14.6736C5.48785 14.7755 5.1571 14.9463 4.86668 15.1789C4.36884 15.5777 4.0187 16.135 3.873 16.7604H3.27148C2.96222 16.7586 2.6662 16.6331 2.44812 16.4112C2.23005 16.1893 2.10767 15.889 2.10768 15.5761V12.9296H12.4513ZM12.133 17.6199C12.1938 17.9018 12.3346 18.1605 12.5388 18.3646C12.7487 18.5745 13.0161 18.7175 13.3072 18.7754C13.5983 18.8333 13.9 18.8035 14.1742 18.69C14.4484 18.5764 14.6828 18.384 14.8477 18.1372C15.0126 17.8904 15.1006 17.6003 15.1006 17.3035C15.0995 17.0395 15.0291 16.7829 14.8996 16.558C14.8508 16.4883 14.796 16.4224 14.7354 16.3611C14.4522 16.0745 14.068 15.9135 13.6675 15.9135C13.2669 15.9135 12.8827 16.0745 12.5995 16.3611C12.3162 16.6478 12.1571 17.0365 12.1571 17.4419C12.1571 17.5026 12.1489 17.5624 12.133 17.6199ZM6.61584 16.0076C6.24004 16.0076 5.87796 16.1487 5.59949 16.4031C5.52451 16.5031 5.46193 16.6125 5.4136 16.7292C5.30002 17.0034 5.27029 17.3052 5.32819 17.5963C5.3861 17.8874 5.52903 18.1548 5.7389 18.3646C5.94878 18.5745 6.21621 18.7175 6.50731 18.7754C6.79842 18.8333 7.10016 18.8035 7.37438 18.69C7.64859 18.5764 7.88296 18.384 8.04786 18.1372C8.1219 18.0264 8.18043 17.9069 8.22245 17.7819C8.16211 17.68 8.12947 17.5626 8.12947 17.4419C8.1042 17.053 7.93374 16.6885 7.65266 16.4221C7.37158 16.1558 7.00091 16.0076 6.61584 16.0076ZM17.4924 11.6173V10.6668C17.4918 10.2588 17.3761 9.85937 17.1589 9.51556L16.2756 8.12893L15.5474 8.79399C15.4658 8.86639 15.4007 8.95479 15.3565 9.05342C15.3122 9.15205 15.2898 9.25869 15.2906 9.36638V10.8391C15.2906 10.9413 15.3112 11.0425 15.3512 11.1369C15.3913 11.2313 15.45 11.3171 15.524 11.3894C15.5979 11.4616 15.6857 11.519 15.7824 11.5581C15.8791 11.5972 15.9827 11.6173 16.0873 11.6173H17.4924ZM3.09996 5.98933C3.21105 6.06454 3.34156 6.10427 3.47488 6.10348C3.56368 6.10311 3.65153 6.08475 3.73333 6.04948C3.81513 6.01421 3.88926 5.96272 3.95143 5.898L5.00518 4.81582C5.06738 4.75182 5.11659 4.67592 5.14999 4.59247C5.18339 4.50902 5.20031 4.41965 5.1998 4.32951V2.78842C5.1998 2.60676 5.12912 2.43255 5.00325 2.3041C4.87738 2.17565 4.70663 2.10349 4.52863 2.10349C4.35062 2.10349 4.17991 2.17565 4.05404 2.3041C3.92817 2.43255 3.85745 2.60676 3.85745 2.78842V4.04869L2.99837 4.93226C2.90371 5.02806 2.83914 5.15046 2.81292 5.28384C2.78669 5.41723 2.80002 5.55556 2.85114 5.68121C2.90226 5.80686 2.98887 5.91413 3.09996 5.98933Z" fill="#C5ABFF"/>
</svg>
