<svg width="20" height="20" viewBox="0 0 44 39" fill="none" xmlns="http://www.w3.org/2000/svg">
<path fill-rule="evenodd" clip-rule="evenodd" d="M10.5548 39H33.5106C36.2972 38.9783 38.9626 37.8464 40.927 35.8505C42.8913 33.8547 43.9958 31.1564 44 28.3426V10.6739C44.0001 7.85721 42.8975 5.1547 40.9327 3.15531C38.9679 1.15593 36.3 0.021767 33.5106 0H10.5548C7.75396 0.00437098 5.06936 1.13087 3.09042 3.13213C1.11149 5.13339 -3.34537e-06 7.84583 0 10.6739V28.3426C0.0043212 31.1678 1.11769 33.876 3.09616 35.8737C5.07463 37.8714 7.75679 38.9956 10.5548 39ZM5.41826 5.49717C6.78299 4.12536 8.62908 3.35329 10.5548 3.34898L33.4452 3.29949C35.3794 3.30386 37.2328 4.08274 38.5989 5.46522C39.9651 6.84771 40.7323 8.72091 40.7323 10.6739V11H3.26773V10.6739C3.28065 8.7295 4.05354 6.86898 5.41826 5.49717ZM3.26773 15H40.7323V28.3426C40.7323 30.2827 39.9736 32.1443 38.6211 33.5223C37.2686 34.9002 35.4319 35.6831 33.5106 35.7005H10.5548C8.62212 35.7005 6.76865 34.9253 5.40206 33.5454C4.03547 32.1656 3.26773 30.2941 3.26773 28.3426V15ZM13.3568 30H9.64319C9.20739 30 8.78946 29.842 8.4813 29.5607C8.17315 29.2794 8 28.8978 8 28.5C8 28.1022 8.17315 27.7206 8.4813 27.4393C8.78946 27.158 9.20739 27 9.64319 27H13.3568C13.7926 27 14.2105 27.158 14.5187 27.4393C14.8269 27.7206 15 28.1022 15 28.5C15 28.8978 14.8269 29.2794 14.5187 29.5607C14.2105 29.842 13.7926 30 13.3568 30ZM19.5581 30H27.4419C27.8552 30 28.2514 29.842 28.5436 29.5607C28.8358 29.2794 29 28.8978 29 28.5C29 28.1022 28.8358 27.7206 28.5436 27.4393C28.2514 27.158 27.8552 27 27.4419 27H19.5581C19.1448 27 18.7485 27.158 18.4563 27.4393C18.1641 27.7206 18 28.1022 18 28.5C18 28.8978 18.1641 29.2794 18.4563 29.5607C18.7485 29.842 19.1448 30 19.5581 30Z" fill="#C5ABFF"/>
</svg>
