<svg width="16" height="15" viewBox="0 0 16 15" fill="none" xmlns="http://www.w3.org/2000/svg">
<path fillRule="evenodd" clipRule="evenodd" d="M4.2006 1.26117C5.43473 0.437756 6.88535 -0.00114429 8.36896 2.24055e-06C10.3543 0.0106714 12.2551 0.804454 13.6584 2.20883C15.0617 3.61321 15.854 5.51469 15.8632 7.5C15.8632 8.9836 15.4231 10.4339 14.5988 11.6674C13.7744 12.9009 12.6027 13.8622 11.2319 14.4296C9.86116 14.9971 8.35287 15.1453 6.89785 14.8555C5.44284 14.5656 4.10647 13.8507 3.05781 12.8012C2.00915 11.7518 1.2953 10.4149 1.00657 8.95962C0.717833 7.50438 0.867184 5.99619 1.43573 4.62585C2.00428 3.25551 2.96647 2.08458 4.2006 1.26117ZM4.84402 12.7688C5.88765 13.4651 7.11437 13.8361 8.36896 13.835C10.0486 13.8335 11.6591 13.1655 12.8468 11.9778C14.0345 10.7901 14.7024 9.17967 14.704 7.5C14.7051 6.24541 14.3341 5.01869 13.6378 3.97506C12.9415 2.93143 11.9512 2.11782 10.7924 1.63718C9.63349 1.15654 8.35809 1.03049 7.12756 1.27496C5.89702 1.51944 4.76667 2.12347 3.87954 3.01059C2.99241 3.89772 2.38839 5.02807 2.14391 6.25861C1.89943 7.48914 2.02549 8.76453 2.50613 9.9234C2.98677 11.0823 3.80039 12.0725 4.84402 12.7688ZM8.51557 4.51898V8.06089L11.3243 10.003C11.4292 10.0763 11.5073 10.1798 11.5474 10.2986C11.5875 10.4174 11.5874 10.5454 11.5473 10.6641C11.5072 10.7829 11.429 10.8863 11.3241 10.9595C11.2191 11.0327 11.0928 11.072 10.9633 11.0715C10.8358 11.0707 10.7117 11.0315 10.6084 10.9593L7.54873 8.82829C7.46964 8.77397 7.40508 8.70228 7.36039 8.61914C7.3157 8.53599 7.29215 8.44379 7.29171 8.35014V4.51898C7.29171 4.36241 7.35618 4.21226 7.47094 4.10155C7.5857 3.99084 7.74134 3.92866 7.90364 3.92866C8.06593 3.92866 8.22158 3.99084 8.33634 4.10155C8.4511 4.21226 8.51557 4.36241 8.51557 4.51898Z" fill="#c5abff"/>
</svg>
