<svg width="15" height="15" viewBox="0 0 29 29" fill="none" xmlns="http://www.w3.org/2000/svg">
<path fill-rule="evenodd" clip-rule="evenodd" d="M0.995227 28.8726C1.19222 28.9558 1.40378 28.9991 1.61764 29C2.04398 28.9939 2.45068 28.8197 2.74911 28.5152L14.5071 16.7674L26.2656 28.5166C26.4149 28.6689 26.593 28.79 26.7895 28.873C26.9838 28.955 27.1922 28.9981 27.403 28.9999C27.401 28.9999 27.399 29 27.3969 29H27.3781C27.3844 29 27.3907 29 27.3969 29H27.4104C27.408 29 27.4055 28.9999 27.403 28.9999C27.7146 28.9969 28.019 28.9038 28.2789 28.7315C28.5458 28.5546 28.7539 28.3022 28.8767 28.0067C28.9995 27.7111 29.0315 27.3857 28.9685 27.0719C28.9055 26.7582 28.7504 26.4703 28.523 26.2449L16.7763 14.5001L28.53 2.75655C28.8311 2.45378 29 2.04423 29 1.61731C29 1.19039 28.8311 0.780791 28.53 0.478017C28.3797 0.326554 28.201 0.206317 28.004 0.124276C27.807 0.0422346 27.5957 0 27.3824 0C27.169 0 26.9577 0.0422346 26.7607 0.124276C26.5638 0.206317 26.385 0.326554 26.2347 0.478017L14.4929 12.2171L2.83711 0.563148C2.69257 0.394489 2.51468 0.257509 2.31463 0.160802C2.11459 0.0640954 1.8967 0.00977171 1.67464 0.0012012C1.45258 -0.00736931 1.23114 0.0299944 1.02422 0.110994C0.817307 0.191994 0.629353 0.314876 0.472215 0.471891C0.315077 0.628905 0.192098 0.816662 0.111034 1.02341C0.02997 1.23016 -0.00737391 1.45144 0.00120336 1.67332C0.00978063 1.89521 0.0641471 2.11292 0.16093 2.31281C0.257713 2.51269 0.394752 2.69044 0.563544 2.83488L12.2236 14.4858L0.46999 26.2367C0.168942 26.5395 0 26.949 0 27.3759C0 27.8029 0.168942 28.2125 0.46999 28.5152C0.619689 28.6679 0.798233 28.7894 0.995227 28.8726Z" fill="#fff"/>
</svg>
