<?xml version="1.0" encoding="utf-8"?>
<!-- Generator: Adobe Illustrator 26.4.1, SVG Export Plug-In . SVG Version: 6.00 Build 0)  -->
<svg version="1.1" xmlns="http://www.w3.org/2000/svg" xmlns:xlink="http://www.w3.org/1999/xlink" x="0px" y="0px"
	 viewBox="900 100 120 700" style="enable-background:new 0 0 1920 90;" xml:space="preserve">
<style type="text/css">
	.st0{fill:#B87D51;}
	.st1{fill:#192C33;}
	.st2{fill:#FFFFFF;}
	.st3{fill:#F3E2CE;}
	.st4{fill:#F6E4D0;}
	.st5{fill:#1A2B3A;}
	.st6{fill:#FFF5EE;}
	.st7{fill:#F0EDDA;}
	.st8{fill:#F3E3CC;}
	.st9{fill:#B48869;}
	.st10{fill:#E5A778;}
	.st11{fill:none;stroke:#000000;stroke-width:0.5;stroke-miterlimit:10;}
	.st12{fill:#DDBDBA;}
	.st13{fill:#fff;}
</style>
<g id="Layer_1">
</g>
<g id="Layer_2">
	<path class="st0" d="M952.57,366.34c0,0,50.45-13.36,76.16-3.92c8.09,1.53,21.36,14.81,25.19,16.85s27.23,11.11,45.53-2.49
		c18.3-13.6,23.4-16.15,23.4-16.15s-15.22,23.14-15.06,32.17c0.15,9.03,3.66,49.23-1.53,53.85c-4.34,5.3-10.81,24.7-21.7,30.66
		c-10.89,5.96-23.49,19.4-22.47,36.77c1.02,17.36,20.78,17.36,39.32,9.96c3.96-1.81,14.04-8.77,28.43-8.68
		c11.49-3.98,31.55-12.52,36.93-15.24c-5.44,4.98-72.08,33.88-81.49,45.45c-9.4,11.57-49.59,26.21-65.41,52.77
		c-23.91,19.66-98.97,9.19-114.29-21.45c-15.57,3.83-18.89,2.81-27.83,0.51s-46.47-35.23-67.91-34.72
		C788.38,543.19,726.6,486,726.6,486s-15.32-47.54-25.53-59.77c-10.21-12.23-10.21-48.97-2.55-51.03
		c7.66-2.05,6.64-5.24,39.83,12.18c33.19,17.42,63.32,4.74,76.6,7.51c13.28,2.77,22.47,0.21,49.53,7.36
		c13.62,0.34,16.34,3.06,16.34,3.06s12.43,0.34,24.68-11.74C917.75,381.49,944.84,362.6,952.57,366.34z"/>
	<path class="st1" d="M1130.68,358.67c0,0,14.24-22.45,45.42-18.54c31.18,3.91,29.72,34.74,29.89,35.07s-0.96,17.11-1.27,19.9
		c-0.28,2.58-13.45,17.7-14.64,17.87c-1.19,0.17-36.94-6.98-47.32-17.87C1132.38,384.22,1127.79,365.8,1130.68,358.67z"/>
	<path class="st2" d="M1196.67,378.03c0,0,4.09,2.38,2.04,14.3c-2.04,11.91-2.55,1.87-4.6-1.19
		C1192.07,388.08,1191.39,377.52,1196.67,378.03z"/>
	<path class="st3" d="M711.18,395.09c0.72-2.29,3.28-3.43,5.48-2.49c4.07,1.73,10.03,4.71,11.98,7.96
		c3.06,5.11,33.02,11.91,39.83,9.87c6.81-2.04,18.38,2.38,20.09,3.74c1.7,1.36,38.47,4.09,40.51,3.06
		c2.04-1.02,51.74,2.72,51.74,33.7c-6.13,23.15-8.17,27.57-7.49,32s1.02,20.43,4.77,26.21c3.74,5.79-4.43,29.28-18.38,24.51
		c-16.68,0.63-35.74-2.72-42.21-8.17c-7.15-3.06-66.72-33.36-66.38-40.17c-3.4-1.36-21.45-21.11-24.85-40.85
		C717.27,427.14,704.34,416.76,711.18,395.09z"/>
	<path class="st4" d="M944.81,410.43c0,0,5.11-14.54,20.77-18.16c15.66-3.62,0.34-21.33-18.38-13.5
		c-18.72,7.83-11.23,31.66-11.23,31.66S938,416.22,944.81,410.43z"/>
	<path class="st5" d="M970,458.43c0,0-7.15-37.07,6.13-45.43c13.28-8.36,40.85,8.32,36.77,27.73
		C1008.81,460.13,970.68,462.66,970,458.43z"/>
	<path class="st6" d="M981.58,428.13c0,0,10.89,3.06,15.32,9.53c4.43,6.47,13.96-8.51,0-16
		C982.94,414.17,974.43,422.34,981.58,428.13z"/>
	<path class="st7" d="M980.24,438.92c0.37,0.7,1,1.23,1.75,1.5c2.27,0.82,7.4,2.91,8.7,5.37c1.69,3.19,6.88-3.06,0.91-7.79
		C985.89,433.49,976.33,431.54,980.24,438.92z"/>
	<path class="st8" d="M972.06,362.43c0,0,31.31-6.98,56.67,0c4.5-13.5-2.97-33.51-5.7-40.05c-0.7-1.69-1.12-3.47-1.26-5.29
		c-0.4-5.49-0.54-16.99,4.23-24.78c4.13-9.02,2.55-13.62,2.55-13.62s-8.94,15.62-14.77,19.36c-6.48,4.16-23.02,17.57-26.26,21.15
		S966.11,342.68,972.06,362.43z"/>
	<path class="st9" d="M953.27,366.17c0,0,10.47-2.3,18.79-3.74c-2.01-6.06-1.24-18.24,3.96-27.03c5.45-9.22,13.11-18.6,19.51-23.01
		c6.33-4.36,22.64-18.17,24.23-20.35c1.46-2.01-12.64,8.17-22.47,10.43c-2.58,0.59-5.08,1.48-7.41,2.74
		c-9.86,5.33-23.09,15.99-26.69,25.06C958.94,340.98,954.58,346.26,953.27,366.17z"/>
	<path class="st10" d="M952.57,366.34c-0.02,0.09-0.15,0.1-0.17,0.01c-0.84-2.92-6.68-25.37,5.86-46.65
		c13.45-22.81,33.19-32.34,36.77-50.72c3.57-18.38,5.28-32.34,3.4-47.32c-1.79-14.36,22.37,7.56,25.43,14.95
		c0.32,0.77,0.72,1.49,1.15,2.21c4.38,7.38,8.98,25.34,3.55,39.86l-8.79,13.35l-14.18,7.36l-8.29,3.06c0,0-5.67,1.77-7.41,2.74
		s-10.84,7.11-10.84,7.11l-10.26,9.43c0,0-5.06,6.43-5.96,9.43s-8.69,20.04-8.53,25.24l-0.69,5.49L952.57,366.34z"/>
	<path class="st2" d="M1156.89,351.36c0,0,23.83-6.13,33.7,23.15c4.09,2.55,13.28-1.53,3.57-19.57
		c-9.7-18.04-35.57-11.74-35.57-11.74S1148.89,346.94,1156.89,351.36z"/>
	<path class="st8" d="M1204.72,395.11c0,0,12.42,25.66-6.26,39.32c-2.59-1.4-8.34-2.94-8.59-5.49c-0.26-2.55,0.21-15.96,0.21-15.96
		S1203.79,399.7,1204.72,395.11z"/>
	<path class="st8" d="M1130.68,358.67c0,0-5.02-0.83-7.83,1.97c-2.81,2.81-14.3,23.49-15.06,32.17s4.34,46.17-1.53,53.85
		c-5.87,7.68-6.38,19.43-21.7,30.66c-15.32,11.23-22.47,17.11-22.47,36.77c0,19.66,26.3,16.09,39.32,9.96
		c8.17-3.06,8.08-6.89,28.43-8.68c20.34-6.13,44.6-19.15,44.6-19.15s22.3-15.32,24.04-27.83c1.75-12.51,4.13-26.04,0-33.96
		c-6.42-2.98-8.53-3.77-8.59-5.49s0.21-15.96,0.21-15.96s-36.28-6.06-47.32-17.87C1131.72,383.3,1128.04,364.27,1130.68,358.67z"/>
	<path class="st11" d="M1077.41,506.17c0,0-14.55-18.64,18.89-24.51"/>
	<path class="st11" d="M1099.45,498.6c0,0,4-6.64,11.83-6.38"/>
	<path class="st11" d="M1067.79,501.66c0,0-1.36,4.6,3.4,6.89"/>
	<path class="st1" d="M1083.65,502.83c-1.15-0.53-1.8-1.75-1.77-3.02c0.09-3.19,1.64-9.64,12.2-12.28
		c14.3-3.57,20.94-1.19,28.43-4.26s26.3-17.53,32.77-28.94c6.47-11.4,34.44-27.74,34.52-28.09s0.08,2.68,0.08,2.68
		s2.34,3.96,8.59,5.49c0,0-6.4-1.59-11.24-1.34c-1.71,0.09-3.34,0.76-4.61,1.91c-9.38,8.51-51.89,49.08-53.25,49.81
		c-3.86,2.05-12.85,5.38-24.58,6.49c-1.49,0.14-2.95,0.55-4.32,1.14c-8.46,3.64-9.66,6.9-12.51,9.22
		C1086.05,503.22,1084.99,503.45,1083.65,502.83z"/>
	<path class="st8" d="M1149.06,720.9c0,0,2.38-57.53-12.26-74.89s-32-66.72-19.06-92.94c12.94-26.21,49.02-52.94,49.02-52.94
		l-55.77,28.77c0,0-25.16,11.92-25.71,16.69c-0.55,4.77-57.76,34.04-65.41,52.77c0,0-21.38,15.74-59.67,8.25
		c-38.28-7.49-48.37-20.25-54.62-29.7c0,0-16.44,4.37-24.39,1.38c-1.74,5.6-1.74,35.72-4.97,41.34c-3.23,5.62-8.68,27.74-9.19,30.47
		c-0.51,2.72-7.32,4.77,5.96,13.62c3.74,6.13,48,30.64,48,30.64s46.64,18.72,62.64,23.83c16,5.11,28.26,8.85,28.26,8.85
		s24.17-0.34,29.28,2.04c5.11,2.38,6.47,6.47,6.47,6.47l48.68,1.02c0,0,1.11-7.83,9.06-6.81c7.96,1.02,7.62,4.09,7.62,4.09
		S1141.23,732.13,1149.06,720.9z"/>
	<g>
		<path class="st12" d="M1095.32,335.25c-0.2,0.4-1.47,4.06-2.38,4.01s-1.61,7.38-2.28,7.28c-0.67-0.09-2.55,2.22,2.42,4.12
			c4.97,1.9,6.59-1.42,5.58-3.01s-0.02-4.76-0.75-6.49c-0.73-1.74,0.24-5.03,0.24-5.03L1095.32,335.25z"/>
		<path class="st13" d="M1096.25,339.23c0,0-19.64-5.85-34.91-57.06c-15.49-53.96-13.91-108.1,44.58-137.39
			c13.52-6.77,28.73-9.67,43.69-7.54c54.55,7.77,64.34,74.41,61.43,86.6c-2.88,12.05-5.29,52.47-48.81,84.77
			c-1.61,1.19-3.16,2.46-4.68,3.76C1117.99,346.32,1096.25,339.23,1096.25,339.23z"/>
	</g>
	<g>
		<path class="st12" d="M860.63,369.14c0.04,0.33,0.79,3.12,0.2,3.46c-0.58,0.35,2.07,5.22,1.63,5.44s-0.65,2.43,3.21,1.53
			c3.86-0.89,3.48-3.62,2.19-4.18s-1.99-2.93-3.17-3.7c-1.17-0.77-1.94-3.2-1.94-3.2L860.63,369.14z"/>
		<path class="st13" d="M862.86,371.21c0,0-14.56,4.56-45.3-20.69c-32.02-26.86-53.58-60.93-29.67-103.35
			c5.53-9.8,13.71-17.93,23.83-22.84c36.91-17.91,70.68,19.15,73.96,27.88c3.24,8.63,18.58,34.59,5.16,72.64
			c-0.5,1.4-0.93,2.84-1.32,4.27C879.23,366.53,862.86,371.21,862.86,371.21z"/>
	</g>
	<g>
		<path class="st12" d="M1163.64,649.62c-0.17,0.27-1.29,2.77-1.93,2.68c-0.64-0.1-1.61,5.1-2.07,5c-0.46-0.11-1.94,1.4,1.45,3.06
			c3.39,1.66,4.74-0.58,4.13-1.77s0.29-3.36-0.12-4.63c-0.41-1.27,0.49-3.53,0.49-3.53L1163.64,649.62z"/>
		<path class="st13" d="M1164.05,652.49c0,0-13.49-5.38-21.02-42.48c-7.51-39.06-2.96-77.17,40.17-94.13
			c9.97-3.92,20.89-5,31.31-2.55c38,8.94,40.69,56.59,37.86,65c-2.79,8.32-7.06,36.69-39.82,56.72c-1.21,0.74-2.39,1.54-3.54,2.36
			C1178.94,658.87,1164.05,652.49,1164.05,652.49z"/>
	</g>
	<g>
		<path class="st12" d="M797.8,719.88c0.1,0.37,1.41,3.4,0.81,3.89c-0.6,0.49,3.23,5.58,2.75,5.9c-0.47,0.33-0.33,2.86,3.9,1.2
			c4.23-1.66,3.34-4.68,1.79-5.1s-2.75-2.99-4.21-3.66s-2.74-3.31-2.74-3.31L797.8,719.88z"/>
		<path class="st13" d="M800.68,721.85c0,0-15.75,7.61-54.84-15.89c-40.81-25.11-70.97-60.15-50.94-112.26
			c4.63-12.05,12.55-22.63,23.21-29.89c38.86-26.49,83.37,9.89,88.55,19.25c5.12,9.25,26.86,36.12,18,81.53
			c-0.33,1.68-0.58,3.37-0.79,5.07C818.46,713.81,800.68,721.85,800.68,721.85z"/>
	</g>
</g>
</svg>
