<?xml version="1.0" encoding="UTF-8"?>
<svg id="_Слой_1" data-name="Слой 1" xmlns="http://www.w3.org/2000/svg" viewBox="0 0 694.28 592.2">
  <defs>
    <style>
      .cls-1 {
        fill: #877470;
      }

      .cls-2 {
        fill: #fbfbfa;
      }

      .cls-3 {
        fill: #e0e0e1;
      }

      .cls-4 {
        fill: #2d0f03;
      }

      .cls-5 {
        fill: #efeeef;
      }

      .cls-6 {
        fill: #2f0f03;
      }

      .cls-7 {
        fill: #4f3c36;
      }

      .cls-8 {
        fill: #2b0f03;
      }

      .cls-9 {
        fill: #c3bcb7;
      }

      .cls-10 {
        fill: #72544a;
      }

      .cls-11 {
        fill: #2c0f03;
      }

      .cls-12 {
        fill: #9f8e88;
      }

      .cls-13 {
        fill: #a84c07;
      }

      .cls-14 {
        fill: #f0f1ef;
      }

      .cls-15 {
        fill: #fdfdfd;
      }

      .cls-16 {
        fill: #fdfdfc;
      }

      .cls-17 {
        fill: #b87d51;
      }

      .cls-18 {
        fill: #faf9f9;
      }

      .cls-19 {
        fill: #d3d3ce;
      }

      .cls-20 {
        fill: #e1e1df;
      }

      .cls-21 {
        fill: #72442a;
      }

      .cls-22 {
        fill: #f3e3cc;
      }

      .cls-23 {
        fill: #b4a79f;
      }

      .cls-24 {
        fill: #331104;
      }

      .cls-25 {
        fill: #6f534d;
      }

      .cls-26 {
        fill: #290f0a;
      }

      .cls-27 {
        fill: #4f3228;
      }
    </style>
  </defs>
  <path class="cls-11" d="M686.52,91.22c-2.3,2.17-.53,4.27,.14,6.37,1.46,4.55,3.7,8.96,2.64,13.98-.27,1.25-.24,3.14-1.85,3.16-5.77,.07-5.45,4.13-5.63,8-.35,7.98-3.33,15.25-5.64,23.08-1.2-1.13-1.43-2.29-2.59-2.44-1.18,.62-1.87,1.52-2.36,2.55,.73-2.04,1.28-4.14,1.51-6.34,0-.66,.02-1.32-.03-1.98-.11-1.46,.05-3.44-1.61-3.76-1.88-.38-2.17,1.73-2.57,3.03-1.69,5.63-5.14,10.3-8.12,15.24-.86,1.99-1.96,3.84-3.21,5.62-8.73,12.38-17.98,24.39-26.26,35.97,2.6-4,4.89-8.88,7.33-13.67,.61-1.19,1.22-2.38,1.48-3.7,.19-1,.33-2.15-.77-2.62-.78-.34-1.6,.23-2.22,.82-1.73,1.61-2.82,3.7-4.13,5.61-9.02,13.1-13.76,28.67-22.68,39.04,2.3-4.95,4.63-12.39,6.14-20.09,.25-1.29,.39-2.95-1.2-3.4-1.21-.34-2.07,.78-2.56,1.92-.95,2.26-2.36,4.3-3.02,6.95,.47-2.4,1.87-4.16,2.53-6.22,.42-1.29,.74-2.85-.72-3.53-1.29-.59-2.05,.8-2.67,1.73-1.39,2.07-2.5,4.31-3.63,6.54-5.16,10.3-8.11,21.33-10.89,33.33-15.93-45.04-22.65-91.13-29.1-137.27-.71-8.96-3.06-17.64-5.31-26.26-2.82-10.75-5.96-21.5-12.2-30.95-6.3-9.53-16.16-12.66-26.37-8.46-14.9,7.68-24.58,20.63-34.04,33.79-1.87,2.6-1.36,4.97,1.19,6.95,9.5,7.37,16.29,17.1,22.8,26.95,18.59,28.13,27.78,59.56,31.87,92.72,1.08,8.76,2.14,17.63,1.71,26.36-.47,9.49-.43,18.96-.64,28.44,.24,8.66,.28,17.33-.14,25.96-.42,8.46-1.5,16.87-3.79,25.12-7.17,25.88-20.18,48.82-35.18,70.77-9.77,14.3-20.19,28.25-23.6,45.82-.48,2.48-1.99,3.7-4.31,4.2-4.97,.69-10.04,.35-14.97,1.47-6.77,.86-13.43,2.3-20.1,3.69-1.67,.36-4.4,.38-4.2,2.53,.18,1.97,2.83,1.84,4.63,1.99,1.99,.16,3.99-.03,5.98,.1,5.32,.33,10.6-.8,15.92-.38,2.46,.27,4.92,.41,7.39,.11,1.94,.36,4.9-2.14,5.6,1.66,.8,4.35-2.44,7.99-7.07,8.38-6.5-.55-13.09,1.02-19.55-.74-2.29-.39-4.58-.58-6.87,0-.96,.24-2.13,.63-2.17,1.7-.04,1.04,1.07,1.57,1.99,1.96,2.92,1.22,6.08,1.41,9.16,1.98,3.46,.08,6.6,1.76,10.03,2.01,2.49,.83,5.35,.24,7.64,1.93,.74,8.24-2.57,11.78-8.84,9.47-1.2-.22-2.34-.64-3.47-1.08-4.8-1.28-9.6-2.59-14.56-3.08-.6,.07-1.19,.16-1.72,.37,.63,.28,1.26,.57,1.89,.86-1,.45-2.46-.39-3.11,1.09-.04,0-.07-.01-.11-.02,2.2,4.24,7.19,4.4,10.58,6.9,2.16,1,4.32,2.01,6.38,3.21,2.52,1.09,3.94,2.44,1.66,5.18-12.27,14.7-26.46,26.61-45.76,30.69-5.31,1.12-10.84,1.46-16.21-.28-3.28-1.2-6.4-2.74-9.43-4.48-22.18-12.72-45.13-14.19-68.94-5-7.13,2.75-13.34,7.52-20.87,9.35-5.04,1.78-10.23,1.5-15.25,.42-19.3-4.11-33.92-15.35-45.78-30.65-2.18-2.8-.71-4.14,1.79-5.23,1.85-1.05,3.74-2.01,5.67-2.89,4.19-1.83,7.9-4.6,12.13-6.35,.57-.33,1.24-.46,1.8-.81,1.07-.67,2.73-1.16,2.21-2.77-.48-1.51-2.09-1.29-3.41-1.21-.66,.04-1.31,.19-1.93,.41-4.99,1.75-10.19,2.73-15.21,4.35-2.53,.93-4.98,2.05-7.5,2.99-2.18,1.08-3.73,.5-4.77-1.7-.85-1.78-1.59-3.59-2.22-5.45q-1.61-4.77,3.68-5.68c1.53-.32,3.1-.52,4.62-.9,5.4-.86,10.82-1.66,16.14-2.94,1.8-.43,4.7-.45,4.48-2.85-.16-1.89-2.88-1.86-4.67-1.88-5.81-.07-11.62-.37-17.42,.22-2.07,.31-4.13,.72-6.22,.93-.83,.06-1.65,.15-2.47,.12-3.06-.11-5.96-4.39-5.4-8.91,.51-4.11,3.57-.86,5.37-1.36,2.17,.24,4.35,.44,6.53,.08,4.63-.65,9.23-.64,13.9,.01,4.11,.57,8.3,.37,12.45,.09,1.57-.1,3.81-.05,3.97-2.06,.14-1.73-2-1.87-3.37-2.35-.78-.28-1.61-.42-2.43-.55-7.88-1.2-15.67-3.02-23.63-3.74-3.55-.59-7.17-.48-10.71-1.19-4.11,.29-5.85-1.9-6.71-5.72-1.79-8-4.62-15.66-9-22.63-6.83-10.85-13.89-21.55-20.79-32.34-15.84-24.75-28.57-50.78-32.12-80.44-.66-1.93-.6-3.93-.59-5.93,.06-11.14,.19-22.26,.96-33.4,.58-8.22-.33-16.54-.03-24.87,.54-14.7,1.89-29.26,4.72-43.65,5.87-29.87,17.81-57.06,36.09-81.54,4.89-6.54,10.77-12.22,15.22-19.06,.32-1.62-.42-2.94-1.24-4.2-8.57-13.24-18.59-25.07-32.47-33.11-3.9-1.67-7.84-2.4-12.15-1.48-7.46,1.59-12.34,6.08-15.7,12.69-9.25,18.19-12.41,38.07-16.3,57.77-1.44,8.87-2.74,17.77-4.09,26.66-4.07,26.85-8.23,53.69-15.59,79.89-2.54,9.05-4.99,18.15-8.99,27.73-2.24-11.27-5.23-21.29-9.7-30.82-.93-1.98-1.76-5.27-4.59-4.25-2.79,1.01-.27,3.74-.36,5.5-.66-2.7-1.85-5.37-3.75-7.67-.82-.98-1.77-2.34-3.27-1.54-1.24,.67-.79,2.08-.5,3.18,1.71,6.51,4.02,12.8,6.76,18.05-3.29-5.67-8.56-10.81-13.27-16.41-.41-.61-.87-1.18-1.39-1.71-6.91-6.57-12.13-14.47-17.49-22.26-6.02-8.74-13.09-16.72-18.55-25.86-3.47-5.85-6.96-11.7-9.02-18.26-.39-1.22-.76-2.98-2.31-2.86-1.53,.12-1.6,1.86-1.83,3.15-.28,2.93,.73,5.65,1.33,8.44,1.17,2.55,1.77,5.34,3.1,7.82-.91-1.69-1.6-3.49-2.14-5.36-2.74-5.77-3.01-12.18-4.7-18.23-1.07-2.36-.49-4.92-.91-7.35-.47-2.67-2.11-3.71-4.05-1.56-2.76,3.06-7.17,4.14-9.26,8.97-1.91-5.76-1.8-10.6-.65-15.51,1.6-6.86,4.42-13.09,8.75-18.74,1.63-2.13,4.31-4.58,1.89-7.92-6.84,4.07-10.6,10.48-12.76,17.79-3.53,11.92-3.25,24.1-.57,36.08,4.17,18.7,15.32,33.4,28.23,46.91,12.3,12.87,25.36,25.05,36.85,38.69,9.07,10.77,16.73,22.4,20.81,36.08,1.98,6.66,2.72,13.55,3.6,21.02,17.77-15.24,26.12-35.23,32.74-56.23q10.85,5.04,9.99,16.37c-.1,1.33-.27,2.65-.42,3.97-3.62,30.85,.71,60.34,14.34,88.45,8.9,18.36,19.69,35.48,31.84,51.8,1.06,1.42,2.48,2.4,1.29,4.71-3.59,6.94-6.95,14-10.24,21.09-1.03,2.23-2.16,2.67-4.61,2.13-9.39-2.09-18.84-3.85-28.27-5.74,8.11,4.72,16.47,8.71,25.35,11.49,1.93,.61,3.22,.91,1.81,3.59-3.78,7.22-7.26,14.6-10.62,22.02-1.29,2.83-3.17,3.7-6.12,4.07-15.47,1.95-30.91,4.16-46.36,6.27,15.96,1.11,31.88,1.09,48.2,.45-.5,1.33-.78,2.26-1.18,3.14-12.62,27.49-22.63,55.8-26.92,85.9-.4,2.83-4.08-.22-4.04,2.26,.07,4.01,1.43,8.26,6.23,9.62,59.06,16.74,118,30.1,179,33.99,58.2,3.71,115.36-5.83,173.61-9.93,58.76-4.14,111.51-36.55,96.31-33.3-2.49-16.3-6.76-31.68-11.52-46.95-4.73-15.19-11.35-29.65-17.81-44.68h48.1c-16.18-2.02-32.07-5.92-48.37-6.74-2.25-.12-3.2-1.08-4.01-2.92-3.24-7.3-6.36-14.66-9.96-21.78-1.86-3.69-.65-4.72,2.76-5.77,8.54-2.64,16.81-6.01,24.72-10.29-9.71,1.56-19.35,3.34-28.95,5.29-1.88,.39-3.03,.45-3.98-1.55-3.2-6.77-6.55-13.47-9.89-20.17-1.42-2.85-.97-4.99,1.18-7.58,8.95-10.77,16.65-22.41,23.51-34.65,19.18-34.17,28-70.35,21.02-109.44-1.11-6.21-.99-10.51,5.95-12.19,.61-.15,1.17-.66,1.66-1.1,1.87-1.65,2.88-2.28,3.78,1.11,1.44,5.44,3.55,10.73,5.63,15.99,5.64,14.26,13.8,26.78,26.08,37.34,1.81-26.83,15.42-47.17,32.62-65.6,8.64-9.25,17.59-18.22,26.49-27.22,16.1-16.29,29.42-34.07,31.42-57.96,1.17-14-.02-27.6-7.38-40.05ZM26.78,151.71c.23,.37,.47,.74,.74,1.09,.16,.26,.31,.51,.47,.77-.45-.6-.86-1.22-1.21-1.86Zm2.33,3.69c1.7,2.78,3.35,5.45,4.83,7.65-1.51-2.18-3.22-4.84-4.83-7.65Zm631.3,9.51c2.76-3.83,5.14-7.91,7.52-12-2.3,4.13-4.73,8.19-7.52,12Zm8.14-13.07c.27-.46,.53-.92,.8-1.38,.4-.87,.79-1.74,1.15-2.62-.46,1.44-.9,2.91-1.95,4Z"/>
  <path class="cls-24" d="M686.51,91.22c-.31,4.53,2.51,8.15,3.81,12.17,1.39,4.3,.24,8.17-.06,12.22-.16,2.19-1.56,1.72-2.85,1.07-2.92-1.48-4.23-.16-4.03,2.64,.59,8.19-2.6,15.6-4.53,23.27-.6,2.4-.86,5.84-3.5,6.02-3.23,.23,.3-3.84-1.96-4.96-1.34-2.43-.83-4.48,1.28-6.2,1.18,.02,1.04,.94,1.16,1.69,.03-.54-.03-1.08-.07-1.62-.14-2.07,.34-4.19-.55-6.2-1.14-5.44,.55-10.85-.1-16.4-1.06-9.03-5.35-15.32-13.1-19.35-19.8-10.31-39.29-21.19-58.52-32.53-15.09-8.89-29.77-18.36-43.51-29.25-4.18-3.31-8.53-6.41-12.95-9.38-12.79-8.57-25.67-8.7-38.18,.17-10.19,7.22-19.94,15.06-27.29,25.39-1.91,2.68-3.85,3.9-6.98,1.46-14.75-11.49-31.9-17.87-49.72-22.51-21.47-5.59-43.2-9.24-65.53-9.95-43.85-1.39-85.86,5.74-125.76,24.32-4.54,2.11-9.03,4.34-13.02,7.38-2.66,2.03-4.56,1.79-6.76-.81-7.76-9.18-16.64-17.19-26.18-24.52-11.9-9.16-26.08-10.07-38.62-1.88-15.48,10.11-29.74,21.98-45.39,31.86-17.61,11.12-35.52,21.73-53.98,31.39-2.06,1.08-4.1,2.25-6.45,2.63-7.99,1.11-14.52,5.22-20.72,10.03-2.18,1.7-.48,3.65-.4,5.5-1.29,6.08-2.33,12.17-2.08,18.42,.07,1.6-.14,3.3-1.72,4.35-1.93-2.79,.03-6.17-2-10.71-.78,6.83-9.41,5.45-9.02,12.3,.02,.29-.64,.89-.97,.87-1.31-.06-2.11-1.03-2.5-2.12-1.96-5.45-1.66-10.96-.56-16.58,1.67-8.5,6.48-15.33,11.22-22.23,.82-1.19,1.04-2.41,.93-3.76,.75-1.04,1.74-1.7,3.01-1.92,2.84,.78,5.62,.99,8.03-1.11,4.8-4.18,10.11-7.52,15.87-10.21,.62-.29,1.01-.84,1.03-1.58,13.8-8.02,28.13-15.09,41.62-23.67,17.31-11.01,33.5-23.55,49.9-35.81,18.03-13.48,44.25-16.59,65.46,1.2,5.75,4.82,11.52,9.62,16.6,15.13,2.26,2.45,4.03,2.57,6.85,1.19C266.54,7.78,312.03-.82,359.33,.84c39.77,1.4,78.23,9.47,114.06,27.68,2.23,1.13,3.42,.76,5.09-.91,5.53-5.53,11.16-10.95,17.49-15.62,21.31-15.71,41.85-16.06,63.56-.63,16.54,11.76,32.52,24.32,49.96,34.8,20.41,12.25,41.1,23.95,62.76,33.89,5.57,2.56,11.01,5.54,14.26,11.17Z"/>
  <path class="cls-11" d="M43.31,70.62c2.14,.4,1.65,1.31,.24,1.95-6.54,2.93-11.89,7.57-17.51,11.85-2.54,1.93-5.46,2.4-7.66-.9,7.65-5.57,16.75-8.35,24.93-12.9Z"/>
  <path class="cls-17" d="M409.4,408.46c-1.5-4.06-2.56-8.68-7.29-10.65-.18,.34-.3,.66-.38,.99,2.16,1.5,3.51,3.6,4.57,6.01,8.5,19.3,7.1,37.85-4.01,55.74-1.91,3.08-4.63,5.72-5.31,9.49,.09,.16,.17,.31,.26,.44,.27-.37,.52-.77,.81-1.13,14.27-18.34,19.67-38.38,11.35-60.89Zm-120.37-1.67c1.27-2.9,2.32-6.01,5.03-7.99-.08-.35-.23-.7-.45-1.05-1.55,.46-2.44,1.65-3.18,2.96-9.61,16.99-10.52,34.45-2.86,52.4,3.02,7.07,7.81,13.03,11.99,19.38-2.42,2.11-3.43-.87-5-1.51-4.19-1.7-7.84-6.09-12.89-2.83-2.24,1.44-4.12,1.76-5.52-.31-2.52-3.72-5.74-5.84-10.25-5.91-.82-.01-1.03-.34-1.17-1.13-.44-2.48-2.34-2.66-4.42-2.82-1.72-.14-3.68,.07-4.99-1.55-.29,.47-.29,1.15,.12,1.3,4.06,1.45,8.14,2.83,11.27,6.04,.3,.31,.95,.4,1.43,.3,2.55-.53,3.7,.94,5.11,2.84,2.25,3,5,5.29,9.19,2.38,2.01-1.4,4.45-.75,6.63,.39,2.34,1.24,4.61,2.61,6.97,3.8,1.42,.72,2.9,1.17,3.63-.23,.07-.14,.14-.29,.2-.47h0c.07-.25,.14-.53,.18-.84-.5-3.31-2.97-5.49-4.69-8.09-11.91-17.95-15.22-36.83-6.33-57.06Zm-49.46,51.98c-1.53-4.88-4.24-9.11-7.19-13.23,.74,5.31,3.15,9.71,7.19,13.23Zm-7.86-96.59c-3.23,3.86-6.03,7.72-7.29,12.44t-.02,.02s0-.01,0-.02c-3.53,.32-3.58-2.64-3.8-4.66-.6-5.64-2.6-10.87-4.11-16.25-.27-.02-.52-.03-.79-.03-.07,.23-.1,.48-.12,.74,.77,5.86,2.9,11.41,3.94,17.22,.41,2.35,1.7,4.39,4.79,3.53,2.86-2.03,3.3-5.65,5.47-8.35-3.35,8.67-5.55,23.27-4.83,32.32,.16,1.9-.15,4.56,2.49,4.73,2.42,.16,3-2.35,3.45-4.24,1.31-5.59,3.74-10.74,5.87-16.17-4.28,11.69-6.14,23.69-7.12,35.88-.09,1.17-.15,2.34,.74,3.29,1.36-8.66,2.42-17.38,4.15-25.97,1.37-6.78,3.55-13.4,5.37-20.08-5.77,8.11-9.23,17.2-12.34,26.51-2.54-14.12,.8-27.49,4.14-40.91Zm-.29,78.42c-1.18-3.9-.17-8.16-1.97-11.95-1.08,4.27-1.31,8.4,1.97,11.95Zm-15.22-88.21c-.21,.36-.38,.76-.48,1.21,.05-.07,.1-.14,.14-.21,.16-.34,.27-.67,.34-1Z"/>
  <path class="cls-13" d="M459.2,383.52c.04,.11,.08,.23,.11,.34-.21-.49-.41-.63-.53-.64,.03-.02,.07-.04,.11-.07,.1-.06,.2,.06,.31,.37Z"/>
  <path class="cls-13" d="M483.64,50.92c-.18,.19-.34,.4-.49,.63,.15-.26,.3-.48,.49-.63Z"/>
  <path class="cls-17" d="M425.24,153.65c-3.87-2.98-5.13-7.69-8.31-11.65-2.2,11.52-5.64,22.23-5.72,34.31-2.18-6.84-1.82-13.12-2.31-19.33-4.26,19.86-3.16,39.42,3.48,58.66l.04,.04c-.21,0-.43-.01-.68-.04-3.3-3.12-3.42-7.51-4.28-11.48-3.05-14.11-3.82-28.35-1.28-42.64,.37-2.1,.16-5.77,2.87-5.47,2.5,.27,1.68,3.79,1.83,6.03,.03,.37,.04,.75,.03,1.12-.18,1.41-.29,2.83-.32,4.24-.16,1.74-.25,3.4,.22,4.89-.2-1.63-.27-3.26-.22-4.89,.13-1.38,.31-2.8,.32-4.24,.78-6.39,2.78-12.8,4.23-19.27,.69-3.07,2.35-3.17,4.51-.61,1.29,1.53,2.1,3.37,2.74,4.99-2.29-7.66-5.43-15.42-4.74-23.93,.25-.37,.5-.63,.76-.81v.07c1.09,10.23,3.84,20.1,6.83,30.01Z"/>
  <path class="cls-17" d="M482.07,53.55c.45-.64,.74-1.39,1.06-1.96-1.09,1.61-1.77,3.95-4.16,4.74-1.73,3.53-3.82,4.99-7.59,1.23-1.41-1.41-3.82-1.81-6.09-2.42,14.68,16.74,28.73,33.78,33.6,56.39,.77-2.2,.48-4.28-.1-6.4-.57-2.05-.93-4.16-1.08-6.34,3.01,4.13,4.29,9.03,5.29,13.8,2.77,13.11,4.38,26.4,3.77,39.87-.09,2.05-.37,4.04-2.41,5.2-.12,.06-.24,.11-.36,.16,3.18-11.58,.59-23.1-.55-34.62-.51-5.1-1.69-10.06-2.95-15-.18-1.73-.81-3.36-1.28-5.02,.42,1.68,.86,3.35,1.28,5.02,.05,.37,.07,.75,.06,1.14-.04,1.37-.13,3.02-1.68,3.22-1.26,.16-1.75-1.39-2.05-2.5-1.21-4.52-2.9-8.86-4.54-13.23-5.27-14.05-15.18-24.93-24.53-36.21-1.43-1.72-4.58-3.47-3.14-5.61,1.69-2.5,4.75-.55,6.62,.82,2.52,1.84,4.7,1.95,6.92,.6,.38-.23,.76-.5,1.15-.82,2.24-2.95,4.48-5.9,6.72-8.86-1.09,3.98-4.18,6.95-4.43,11.32,2.06-.36,2.58-2.08,3.57-3.26,8.6-10.29,18.96-18.47,30.44-25.27,1.67-.99,3.69-1.37,5.55-2.03,1.17-.14,1.61,.24,1.74,.81-.29,.07-.57,.15-.86,.23-10.58,3.36-18.57,10.67-26.7,17.69-3.5,3.02-6.69,6.42-9.59,10.07-1.06,1.34-2.48,3.47-4.38,2.03-1.88-1.41-.35-3.32,.7-4.79Z"/>
  <path class="cls-17" d="M410.9,163.2c0,1.44-.19,2.86-.32,4.24,.03-1.41,.14-2.83,.32-4.24Z"/>
  <path class="cls-17" d="M500.5,108.2c-.42-1.67-.86-3.34-1.28-5.02,.47,1.66,1.1,3.29,1.28,5.02Z"/>
  <path class="cls-17" d="M215.72,353.6c.05-.07,.1-.14,.14-.21,.16-.34,.27-.67,.34-1-.21,.36-.38,.76-.48,1.21Zm11.85,49.49c-2.54-14.12,.8-27.49,4.14-40.91-3.23,3.86-6.03,7.72-7.29,12.44t-.02,.02s0-.01,0-.02c-3.53,.32-3.58-2.64-3.8-4.66-.6-5.64-2.6-10.87-4.11-16.25-.27-.02-.52-.03-.79-.03-.07,.23-.1,.48-.12,.74,.77,5.86,2.9,11.41,3.94,17.22,.41,2.35,1.7,4.39,4.79,3.53,2.86-2.03,3.3-5.65,5.47-8.35-3.35,8.67-5.55,23.27-4.83,32.32,.16,1.9-.15,4.56,2.49,4.73,2.42,.16,3-2.35,3.45-4.24,1.31-5.59,3.74-10.74,5.87-16.17-4.28,11.69-6.14,23.69-7.12,35.88-.09,1.17-.15,2.34,.74,3.29,1.36-8.66,2.42-17.38,4.15-25.97,1.37-6.78,3.55-13.4,5.37-20.08-5.77,8.11-9.23,17.2-12.34,26.51Z"/>
  <path class="cls-17" d="M228.99,55.9c-2.21-2.43-4,1.48-5.97,2.63-.29,.31-.58,.65-.87,.95,.23,.21,.63,.3,1.27,.2,1.62-1.24,3.24-2.48,4.86-3.72-15.01,16.86-27.74,34.81-32.28,57.51-.07-6.54,1.14-12.76,2.58-18.96-7.09,12.47-8.03,26.33-9.2,40.14-2.44,8.29-2,16.8-1.91,25.28,.39-.25,.78-.5,1.18-.76,.04-.14,.07-.29,.1-.43,.29-5.15,.17-10.34,.54-15.49,.17-2.47,.46-4.94,.97-7.39,.02-.14,.05-.27,.08-.41,1.62-10.79,2.43-21.73,5.29-32.28,.33-1.38,.73-2.75,1.22-4.09-.44,1.36-.85,2.72-1.22,4.09-.67,2.79-1.05,5.64-1.33,8.5-.1,1.12,.07,2.57,1.43,2.87,1.46,.32,1.78-1.16,2.3-2.14,.31-.59,.46-1.25,.6-1.9,4.03-19.04,14.69-34.37,27.2-48.67,1.55-1.77,5.04-3.87,3.16-5.93Zm60.47,103.85c-.35-1.57-.69-3.98-2.45-3.88-2.28,.12-2.1,2.69-2.11,4.43,0,1.47-.01,2.94-.01,4.37,.24,3.1,.24,6.06,.02,8.78-.06-2.33-.04-5.44-.02-8.78-.35-4.36-1.17-8.97-2.59-13.5-.87-2.79-1.19-6.87-4.37-7.28-3.51-.45-3.82,3.64-5.12,6.15-.08,.23-.15,.45-.23,.68-.12,.17-.13-.02,.11-.45,.04-.07,.08-.15,.12-.23,2.65-7.78,5.41-15.54,4.25-24.02-.27-.21-.52-.38-.78-.52,0,.03,0,.05,.02,.08-.37,10.42-3.25,20.32-7.17,31.23,4.47-4.14,5.36-9.04,8.74-12.78,.95,2.42,1.91,4.48,2.58,6.64,2.72,8.73,3.39,17.8,4.38,26.85,1.01-6.86,2.03-13.69,1.89-20.65,3.2,10.31,3,20.83,2.25,31.42-.8,11.48-5.35,22.44-4.72,34.1,.26-.06,.56-.17,.9-.32,1.42-12.39,4.93-24.47,5.73-36.94,.54-8.48,.44-17.01-1.42-25.38Z"/>
  <path class="cls-21" d="M170.37,251.6c-.42-.25-.29-.88-.25-1.35,.1,.45,.19,.9,.25,1.35Z"/>
  <path class="cls-21" d="M196.84,99.08c-.44,1.36-.85,2.72-1.22,4.09,.33-1.38,.73-2.75,1.22-4.09Z"/>
  <path class="cls-21" d="M272.81,150.04c-.08,.23-.15,.45-.23,.68-.12,.17-.13-.02,.11-.45,.04-.07,.08-.15,.12-.23Z"/>
  <path class="cls-21" d="M284.9,173.45c-.06-2.33-.04-5.44-.02-8.78,.24,3.1,.24,6.06,.02,8.78Z"/>
  <path class="cls-25" d="M637.31,130.82c.4-.79,.78-1.59,1.2-2.36-.29,1.42-.66,2.83-1.09,4.23-1.63,5.42-1.11,11.57-5.63,16.66-.03-5.59,2.58-10.58,.39-16.67,1.69,.24,2.12,1.82,2.4,3.34,.53,2.9-.92,5.54-.93,7.85,1.31-3.29,.79-7.57,2.68-11.26,.36-.58,.68-1.18,.98-1.79Z"/>
  <path class="cls-25" d="M652.84,127.01c-.46-1.29-.71-2.58-.82-3.88,.46,1.18,.36,2.53,.82,3.88Z"/>
  <path class="cls-20" d="M444.34,542.39c-.52,.82-2.22-.49-2.33,1.22-1.46-.74-.32-2.04-.65-3.02v-.02c.83-.33,1.35-2.12,2.61-.33,.54,.78,.87,1.36,.37,2.15Z"/>
  <polygon class="cls-20" points="460.37 533.58 460.36 533.59 460.36 533.58 460.37 533.58"/>
  <path class="cls-20" d="M487.19,510.99c-3.89,11.51-10.36,21.76-15.91,32.45-3.95,5.65-8.06,11.17-13.11,15.91-1.26-3.2,1.47-4.85,2.94-6.74,2.72-3.49,5.34-7.01,7.29-10.99,10.07-13.69,16.88-28.99,22.48-44.95,.42,5.21-2.1,9.65-3.69,14.32Z"/>
  <path class="cls-19" d="M441.53,575.68c-.5,.17-1,.32-1.5,.39,.5-.12,1-.25,1.5-.39Z"/>
  <path class="cls-22" d="M503.22,459.83c-.95,6.97-1.36,14.02-1.99,21.04-1.27-1.24-1.79-2.79-1.53-4.51,1.03-6.69,.76-13.52,2.08-20.17,.37-1.86,.31-4.48,3.35-3.8,.13,.04,.27,.07,.4,.11-3.85,1.43-1.97,4.87-2.31,7.33Z"/>
  <path class="cls-22" d="M515.07,492.91c-1.05-.65-2.09-1.31-3.09-2.04,1.09,.64,2.11,1.35,3.09,2.04Z"/>
  <path class="cls-22" d="M520.74,496.19s-.06,.08-.1,.18c-.05,.11-.22,.1-.46-.08-.09-.07-.18-.14-.27-.2,.5,.21,.75,.14,.83,.1Z"/>
  <path class="cls-22" d="M180.61,493.76c3.35-1.55,6.12-4.17,9.73-5.23,3.15,.57,2.28,3.23,2.44,5.11,.86,10.53-.22,21.15,1.37,31.65,.71,4.71,.57,9.53,1.51,14.22,.31,3.81,1.49,7.74-1.3,11.19-3.57,.7-3.48-2.4-4.11-4.32-3.45-10.5-5.84-21.24-6.53-32.31-.04-.66-.24-1.13-.15-.47,0,.04-.02,.09-.02,.19,.28,1.22,.28,2.37-.26,3.45-.35,.71-.72,1.62-1.79,1.16-.86-.37-.96-1.26-.9-2.08-.64,10.53-1.96,21.03-1.75,31.61,.03,1.39-.14,3.3-2.01,3.51-1.47,.16-2.09-1.39-2.68-2.56-.67-1.33-1.12-2.75-1.57-4.17-2.89-10.9-6.76-21.5-10.37-32.17-1.3-3.83-.29-7.57-.42-11.14-.23,.27-.12,.88-.25,1.44-1.77,7.79-5.14,15.14-6.24,23.12-2.09,8.21-2.48,16.63-3.31,24.99-.27,2.73-.15,6.16-4.73,4.7-.33-.03-.68,0-.99-.09-6.99-1.84-6.83-1.82-5.83-8.69,4.62-31.65,16.19-60.94,30.08-89.48,1.39-2.86,2.99-4.17,6.4-4.05,4.46,.16,8.95-.55,13.42-.89,4.29,2.44,3.28,6.99,3.84,10.66,.88,5.74,3,11.6,.17,17.43-4.47,4.68-10.09,7.89-15.06,11.94-.37,1.56-1.67,2.22-2.32,2.56,.66-.56,2.14-.9,3.6-1.29Z"/>
  <path class="cls-20" d="M245.37,567.73c-5.51-4.17-10.66-8.74-15.14-14-1.33-1.57-2.85-3.23-2.82-5.58-4.69-7.84-9.38-15.69-14.08-23.53-2.87-8.08-5.74-16.17-8.61-24.25,.36-.15,.72-.3,1.09-.45,2.62,5.4,5.09,10.89,7.93,16.18,2.78,5.2,4.38,11.06,8.56,15.49,2.4,6.8,7.33,12.05,11.11,18,1.31,3,4.69,5.09,4,9,1.19,2.23,3.52,3.26,5.19,4.97,1.13,1.15,3.79,1.53,2.77,4.17Z"/>
  <path class="cls-20" d="M267.5,577.06c-.42-.04-.82-.15-1.2-.42,.4,.17,.79,.31,1.2,.42Z"/>
  <path class="cls-9" d="M251.9,575.07c-.57,.04-1.15-.08-1.66-.41,.55,.15,1.11,.29,1.66,.41Z"/>
  <path class="cls-22" d="M302.2,513.42c12.26-2.94,24.12-7.53,36.77-8.82,12.77-1.3,25.24,.03,37.42,4.12,7.57,2.54,15.36,4.17,23.17,5.71-2.9,2.35-6.58,2.21-9.94,2.79-15.23,2.65-30.45,5.87-46.03,5.03-12.13-.65-24.23-1.83-35.86-5.72-2-.67-4.24-1.1-5.54-3.11Z"/>
  <path class="cls-17" d="M306.5,478.87c-15.84,4.9-30.49,3.56-44.34-4.19-5-2.8-10.31-5.45-14.19-9.95-1.21-1.42-3.22-.73-4.46-1.94,3.73-2.5,7.65-4.65,11.81-6.36,1.31,1.62,3.27,1.41,4.99,1.55,2.08,.16,3.98,.34,4.42,2.82,.14,.79,.35,1.12,1.17,1.13,4.51,.07,7.73,2.19,10.25,5.91,1.4,2.07,3.28,1.75,5.52,.31,5.05-3.26,8.7,1.13,12.89,2.83,1.57,.64,2.58,3.62,5,1.51,.1,.1,.21,.19,.31,.28h0c2.06,1.9,4.14,3.81,6.63,6.1Z"/>
  <path class="cls-23" d="M278.88,565.37c-.2,.38-.46,.74-.75,1.07,.12-.25,.3-.52,.53-.79,.08-.1,.15-.19,.22-.28Z"/>
  <path class="cls-22" d="M302.2,513.42c8.29,2.13,16.53,4.26,25.05,5.58,15.77,2.44,31.3,1.53,46.93-.81,8.46-1.27,16.75-3.73,25.39-3.77,3.12,.77,.51,1.09-.14,1.44-12.67,6.92-26.47,9.97-40.65,11.07-20.9,1.61-41.25-.6-60.15-10.65-.72-.38-1.43-.8-2.12-1.23-.12-.07-.14-.28-.46-.96,2.15-.23,4.15-.45,6.16-.67Z"/>
  <path class="cls-17" d="M215.32,62.71c-4.23,.62-4.98,5.21-8.1,7.09-8.73-13.78-19.09-26.03-32.95-34.98-.16-1.71-1.57-2.83-2.03-4.39-.64-2.15-.46-3.66,2.41-2.88,12.12,4.58,21.53,12.98,30.49,21.93,2.94,2.93,5.5,6.24,8.23,9.37,1.39,.91,2.67,1.88,1.95,3.86Z"/>
  <path class="cls-17" d="M659.38,92.26c-23.01-11.31-45.11-24.33-67.03-37.65-15.55-9.46-29.47-21.16-44.43-31.42-12.7-8.72-26.16-9.18-38.67-.62-11.97,8.2-23.26,17.24-31.19,29.73-7.15-6.21-15.15-10.82-23.68-14.62-22.59-10.06-46.43-15.51-70.8-18.38-48.5-5.71-95.71-.39-141.07,18.41-7.53,3.12-15.27,6.14-21.73,11.09-3.56,2.73-4.65,1.98-7.01-.95-7.04-8.7-15.26-16.23-24.24-22.94-14.96-11.18-28.26-11.95-43.63-1.19-20.86,14.6-41.12,30.06-63.27,42.77-13.25,7.61-26.31,15.56-40.22,21.97-6.3,2.27-12.41,4.99-17.75,9.11-1.9,1.46-3.89,3.15-3.37,6.09-3.27,7.71-3.17,15.85-3.02,24,1.37,6.42,1.99,13.05,5.22,18.97,.45,3.1,2.49,5.42,3.94,8.04,3.28,6.1,7.38,11.56,12.82,16-3.91-6.02-7.82-12.05-11.73-18.08-1.34-3-2.68-6.01-4.02-9.02-.39-2.95-.78-5.9-1.17-8.86,1.27-8.86,3.47-17.4,8.32-24.2-1.04,3.96-2.26,8.62-2.49,13.42-.09,1.82-.95,4.64,2.57,4.74,1.87-2.16,1.58-5.12,2.76-7.53,1.27-3.35,2.32-6.78,4.06-9.93,2.75-4.93,6.58-8.94,10.09-12.27-2.96,4.98-3.97,11.17-4.43,17.48-.08,1.25,.08,2.91,1.74,3.18,1.1,.17,1.58-1.05,1.99-1.93,.98-2.11,1.67-4.34,2.79-6.39,2.84-7.35,6.92-13.89,12.14-18.66-1.52,4.27-2.28,9.56-3.41,14.74-.28,1.31-.17,2.69,1.16,3.57,2.69-.16,3.56-2.33,4.32-4.28,3.44-8.81,8.37-16.61,15.04-22.99-.38,.66-.77,1.58-1.02,2.55-.36,1.45-1.01,3.29,.48,4.13,1.93,1.1,2.91-.88,3.82-2.15,3.47-4.83,7.34-9.31,11.63-13.43,.81,3.64,1.26,3.93,3.64,1.56,3.06-3.04,5.97-6.25,9.11-9.22,5.57-5.26,12.22-8.8,19.78-12.83-1.17,11.72-2.69,22.21-3.99,32.72-2.32,18.64-4.81,37.26-7.21,55.89-.23,1.82-.41,3.67,.31,5.42,.46,1.12,1.11,2.19,2.56,1.04,1.63-2.03,1.78-4.57,2.33-6.96,3.03-13.03,5.58-26.15,8.35-39.23,2.74-15.69,6.51-31.14,10.96-46.43,2.31-7.93,5.4-15.41,11.09-21.53,5.98-6.42,13.09-9.56,21.97-6.65,11.9,4.8,21.44,12.91,30.39,21.83,2.99,2.99,4.91,7.08,9.11,8.81,2.57-1.02,1.23-2.72,.54-4.06-1.05-2.07-2.39-3.98-4.13-5.56,7.44,6.93,8.1,7.54,13.48,4.55-.26,1.2-.79,2.32-1.13,3.5-.18,.65-.37,1.49,.09,1.87,.29-.3,.58-.64,.87-.95,1.97-1.15,3.76-5.06,5.97-2.63,1.88,2.06-1.61,4.16-3.16,5.93-12.51,14.3-23.17,29.63-27.2,48.67-.14,.65-.29,1.31-.6,1.9-.52,.98-.84,2.46-2.3,2.14-1.36-.3-1.53-1.75-1.43-2.87,.28-2.86,.66-5.71,1.33-8.5-2.86,10.55-3.67,21.49-5.29,32.28-.03,.14-.06,.27-.08,.41,.3,.65,.38,1.38,.23,2.3-.91,5.56,1.4,11.13,.08,16.75-.29,1.22,.87,1.61,1.92,1.8-.35,.22-.7,.44-1.04,.67,.15,.05,.32,.09,.5,.13,1.57,.11,2.99-.46,4.26-1.22,14.57-8.75,29.89-16.21,43.97-25.75,9.66-6.54,18.87-13.69,27.51-21.56,2.5-2.28,5.37-3.76,8.6-1.84,3.24,1.93,3.9,5.21,3.44,8.75-.25,1.85-1.07,3.48-1.95,5.11-.76,1.4-1.99,2.68-1.5,4.5-2.56-1.39-4.37,.78-6.13,2.15-6.33,4.93-13.16,9.02-20.6,11.92-20.32,7.92-40.95,14.98-62.13,21.83,.73-.88,1.06-1.56,1.23-2.23-.4,.26-.79,.51-1.18,.76-.09-8.48-.53-16.99,1.91-25.28,1.17-13.81,2.11-27.67,9.2-40.14-1.44,6.2-2.65,12.42-2.58,18.96,4.54-22.7,17.27-40.65,32.28-57.51-1.62,1.24-3.24,2.48-4.86,3.72-.64,.1-1.04,.01-1.27-.2-.93,.97-1.88,1.5-3.09-.68-.47-.86-1.45-1.56-2.49-1.08-1,.45-1.03,1.55-1.1,2.57-.05,.81,.85,1.36,.46,2.2-.13-.1-.25-.21-.39-.29-.15-.08-.31-.12-.43-.16-4.72,.43-6.51,3.88-7.89,7.76-8.86,9.06-16.7,19.01-23.5,29.62-22.29,34.75-32.49,73.1-33.57,114.24-.27,10.15,.91,20.29-.01,30.35-.92,9.98-.6,19.94-.8,29.9-.04,1.95-.42,4.03,.91,5.79,1.5,17.29,7.3,33.33,14.41,48.96,8.92,19.58,21.14,37.21,32.89,55.1,6.62,10.07,12.33,20.52,14.7,32.41,.89,4.47,2.57,6.48,7.15,5.39,3.61,.88,7.27,1.33,10.99,1.07,9.59,1.76,19.17,3.52,28.76,5.29-2.14,.54-4.22,.52-6.3,.54-7.8,.11-15.61-1.34-23.4,.19,1.8,3.79,.79,8.05,1.97,11.95h21.72c.02,.18,.03,.36,.05,.54-6.94,1.47-13.87,2.94-20.81,4.4,2.95,4.12,5.66,8.35,7.19,13.23,6.72-1.76,13.44-3.52,20.16-5.29,.06,.23,.13,.47,.19,.7-1.54,.75-3.07,1.5-4.6,2.25,1.31,1.62,3.27,1.41,4.99,1.55,2.08,.16,3.98,.34,4.42,2.82,.14,.79,.35,1.12,1.17,1.13,4.51,.07,7.73,2.19,10.25,5.91,1.4,2.07,3.28,1.75,5.52,.31,5.05-3.26,8.7,1.13,12.89,2.83,1.57,.64,2.58,3.62,5,1.51,0,.27,.04,.52,.11,.76,.5,1.94,2.7,3.01,3.19,4.96-1.92,1.26-3.91,.18-5.57,.94-6.68,3.05-13.4,.88-19.94-.23-10.39-1.76-19.02-7.47-27.07-13.97-2.09-1.69-4.15-2.58-6.77-2.16-1.99,.43-3.65,1.51-5.25,2.68-.4,3.56,1.85,5.94,3.91,8.28,3.18,3.62,6.52,7.14,10.19,10.24,13.02,11,26.99,19.97,45,19.54,5.02-.26,9-3.16,13.23-5.34,24.47-12.58,49.01-13.33,73.64-.56,4.27,2.21,8.23,5.04,13.02,6.13,5.17,1.85,10.46,1.36,15.61,.28,19.69-4.12,34.6-15.6,46.86-31,4.03-5.07,3.99-5.1-2.31-7.47-1.83-1.37-3.8-2.42-6.02-3-3.66-2-7.31-4-10.97-6-.58-.7-1.2-1.28-1.87-1.72,.42,.03,.85,.01,1.28-.07,.89,.99,2.82-.29,3.7,.7,4.94,1.05,9.88,2.09,14.82,3.13,.78,1.07,1.94,.93,3.05,.95,2.29,.43,4.75,4.34,6.63,1.35,2.41-3.85,5.32-8.03,4.16-13.22-2.73-1.68-5.94-1.2-8.89-1.92-3.28-.81-6.48-2.02-9.92-2.05-3.5-1.38-7.49-.82-11.5-3h8.34c7.01,1.76,14.14,.12,21.19,.73,3.46,.89,5.62,.08,5.9-3.98,.12-1.77,.79-3.57,1.52-5.21,1.51-3.37,.29-4.53-3.06-4.19-1.14,.12-2.26,.37-3.39,.56-2.66-.04-5.31-.07-7.97-.1-8.59-1.21-17.2,.45-25.87-.56,7.94-1.49,15.87-2.99,23.81-4.49,5.05-.6,10.11-1.19,15.16-1.78,3.43,.63,4.45-.99,5.08-4.25,1.91-9.86,5.42-19.1,11.04-27.61,9.45-14.3,19.52-28.2,28-43.13,9.43-16.58,17.06-33.9,21.22-52.58,3.32-14.94,2.76-30.13,2.37-45.29,.09-7.31-.22-14.66,.37-21.93,1.35-16.74-1.05-33.16-3.86-49.52-4.42-25.81-12.72-50.25-26.78-72.53-7.55-11.96-15.17-23.88-26.9-32.35-2-1.45-1.24-2.69-.18-4.16,9.41-12.96,19.16-25.57,33.42-33.72,.14-1.67,1.35-2.99,1.55-4.62,.07-.57,.18-1.2,.06-1.69-.29,.07-.57,.15-.86,.23-10.58,3.36-18.57,10.67-26.7,17.69-3.5,3.02-6.69,6.42-9.59,10.07-1.06,1.34-2.48,3.47-4.38,2.03-1.88-1.41-.35-3.32,.7-4.79,.45-.64,.74-1.39,1.06-1.96-1.09,1.61-1.77,3.95-4.16,4.74-1.73,3.53-3.82,4.99-7.59,1.23-1.41-1.41-3.82-1.81-6.09-2.42,14.68,16.74,28.73,33.78,33.6,56.39,.77-2.2,.48-4.28-.1-6.4-.57-2.05-.93-4.16-1.08-6.34,3.01,4.13,4.29,9.03,5.29,13.8,2.77,13.11,4.38,26.4,3.77,39.87-.09,2.05-.37,4.04-2.41,5.2-.12,.06-.24,.11-.36,.16-.01,.03-.01,.05-.02,.08,.57,2.38,2.6,3.16,4.15,3.92-1.1-.25-2.44-.94-3.84-1.46-28.11-10.46-57.64-17.64-82.36-35.9-.99-.72-2.28-1.76-3.52-.89v.07c1.09,10.23,3.84,20.1,6.83,30.01-3.87-2.98-5.13-7.69-8.31-11.65-2.2,11.52-5.64,22.23-5.72,34.31-2.18-6.84-1.82-13.12-2.31-19.33-4.26,19.86-3.16,39.42,3.48,58.66l.04,.04c-.21,0-.43-.01-.68-.04-3.3-3.12-3.42-7.51-4.28-11.48-3.05-14.11-3.82-28.35-1.28-42.64,.37-2.1,.16-5.77,2.87-5.47,2.5,.27,1.68,3.79,1.83,6.03,.03,.37,.04,.75,.03,1.12,.78-6.39,2.78-12.8,4.23-19.27,.69-3.07,2.35-3.17,4.51-.61,1.29,1.53,2.1,3.37,2.74,4.99-2.29-7.66-5.43-15.42-4.74-23.93,.25-.37,.5-.63,.76-.81,.22-3.54-3.23-6.01-2.67-9.8,.47-3.16,1.23-5.89,4.29-7.35,2.82-1.34,5.09,0,7.33,1.65,3.21,2.39,6.04,5.23,9.16,7.72,19.73,15.7,41.43,28.38,63.18,40.96,1.3,.75,2.68,1.67,4.3,1.07,3.18-11.58,.59-23.1-.55-34.62-.51-5.1-1.69-10.06-2.95-15,.05,.37,.07,.75,.06,1.14-.04,1.37-.13,3.02-1.68,3.22-1.26,.16-1.75-1.39-2.05-2.5-1.21-4.52-2.9-8.86-4.54-13.23-5.27-14.05-15.18-24.93-24.53-36.21-1.43-1.72-4.58-3.47-3.14-5.61,1.69-2.5,4.75-.55,6.62,.82,2.52,1.84,4.7,1.95,6.92,.6,.38-.23,.76-.5,1.15-.82,2.24-2.95,4.48-5.9,6.72-8.86-1.09,3.98-4.18,6.95-4.43,11.32,2.06-.36,2.58-2.08,3.57-3.26,8.6-10.29,18.96-18.47,30.44-25.27,1.67-.99,3.69-1.37,5.55-2.03,1.17-.14,1.61,.24,1.74,.81,7.72-1.94,14.15,.93,19.56,6.31,4.74,4.72,8.48,10.27,10.67,16.7,5.52,16.22,9.66,32.78,12.17,49.74,3.04,13.34,5.74,26.76,8.84,40.09,.59,2.55,.87,5.24,2.72,7.34,2.01,.93,2.28-.72,2.61-1.91,.57-2.12,.39-4.3,.12-6.46-1.9-14.85-4.04-29.67-6.4-44.45-2.22-13.88-4.62-27.73-5.77-42.14,11.13,7.36,23.23,12.75,30.46,24.3,.68,1.08,1.75,2.28,3.27,1.67,1.34-.53,.46-2.23,1.08-3.4,3.23,3.7,6.04,7.41,8.93,11.07,1.28,1.61,2.68,4.43,4.91,3.19,2.23-1.25,.29-3.83-.2-5.8,7.59,9.27,15.3,18.46,18.09,30.58,.25,1.06,.62,2.7,2.05,2.38,1.75-.4,1.56-2.29,1.77-3.74-.36-6.81-1.54-13.43-4.22-19.45,3.16,3.28,6.55,6.66,8.97,10.89,2.32,4.04,4.75,7.99,6,12.55,.32,1.21,.81,2.99,2.39,2.71,1.84-.32,1.72-2.25,1.63-3.7-.14-2.31-.96-4.54-1-6.87-.74-3-1.76-5.9-3.1-8.99,1.05,1.28,2.14,2.12,3.53,2.46,2.29,.14,4.49,.45,5.75,2.72,9.55,9.15,13.98,20.4,13.66,33.58-.5,3.8-1.52,7.45-3.12,10.94-4.56,7.03-9.13,14.07-13.69,21.11,6.2-5.51,11.4-11.69,14.63-19.27,1.39-2.94,2.79-5.88,4.19-8.82,.62-2.05,1.24-4.11,1.86-6.17,1.18-1.78,1.75-3.68,1.15-5.81,.17-3.32,.29-6.64,.5-9.96,.86-13.81-4.73-23.17-17.52-29.45ZM397.18,470.56s.04-.05,.06-.08c.04,.06,.07,.12,.12,.17-.06-.02-.12-.05-.18-.09Zm7.56-52.2c-1.24,21.89-10.17,39.29-30.74,48.77-19.89,9.16-40.12,9.1-58.63-3.05-19.83-13-29.89-35.97-22.01-61.06,.43-1.38,1.06-2.78,.7-4.22,.1-.09,.2-.16,.31-.23,.75-.67,1.4-1.43,1.97-2.25,5.79-8.23,13.63-13.39,23.31-16.08,6.12-1.7,12.28-3.23,18.57-3.63,24.12-1.54,47.15,.38,63.25,22.01,.09,.06,.17,.12,.26,.18-.38,1.65,.41,3.22,.79,4.8,1.16,4.86,2.51,9.75,2.22,14.76Z"/>
  <path class="cls-17" d="M238.25,465.47c14.07,20.21,32.18,34.19,57.4,37.22,.6,.07,1.14,.55,1.71,.84-4.77,2.17-9.73,1.53-14.56,.62-17.93-3.38-31.71-13.65-43.57-26.91-2.42-2.71-4.55-5.67-7.03-8.77,1.8-1.71,3.92-2.37,6.05-3Z"/>
  <path class="cls-17" d="M174.65,27.54c-2,.41-2.4,1.32-.96,2.9,1.2,1.31,2.63,2.62,.58,4.38-12.93-4.07-21.36-.52-27.37,11.74-8.69,17.71-11.74,37.01-15.64,56.06-.89,.69-1.8,.69-2.73,.1,4.83-21.48,7.09-43.72,18.25-63.35,4.02-7.08,9.79-12.15,18.28-13.26,3.34-.44,6.62-.48,9.6,1.44Z"/>
  <path class="cls-17" d="M566.53,100.56c-.99-.31-1.98-.63-2.96-.94-2.84-17.54-6.74-34.8-14.18-51.06-2.09-4.56-4.73-8.76-8.91-11.76-5.99-4.3-12.38-5.06-19.19-2.17-2.48-.58-.71-1.88-.46-2.88,.35-1.4,2.25-2.67,.34-4.25,8.18-3.55,14.87-.27,21.01,4.8,4.82,3.98,8.51,9.05,10.74,14.81,6.69,17.24,10.99,35.15,13.61,53.45Z"/>
  <path class="cls-22" d="M191.42,565.64c.61-.58,3.07,.61,1.92-1.56-8.73-16.48-9.52-34.43-9.86-52.47,.06-.32,.1-.65,.19-.97,.08-.3,.34-1.12,.55-.37,.56,2.06,.88,4.2,1.09,6.33,1.17,11.72,4.24,22.99,7.88,34.14,2.03,5.3,4.07,10.61,6.1,15.91-2.78,.9-5.37,.31-7.86-1Z"/>
  <path class="cls-22" d="M511.37,515.59c-.53,10.9-.8,21.81-3.32,32.52-1.53,6.47-4.13,12.48-7.29,18.28-2.27-.47-4.12,1.25-6.31,1.23,4.16-5.33,6.26-11.58,8.03-17.98,5.03-11.87,6.54-24.49,7.34-37.37,2.13,.83,1.04,2.34,1.55,3.32Z"/>
  <path class="cls-22" d="M188.38,425.72c.01,6.31,.02,12.61,.04,18.92-3.98,2.05-8.44,.39-12.42,2.4-.24-.34-.49-.68-.73-1.02,2.95-6.37,5.93-12.73,8.84-19.12,1-2.2,2.73-1.22,4.28-1.17Z"/>
  <path class="cls-22" d="M504.18,444.88c2.86-1.43,3.16-3.84,3.33-6.79,.23-4.17-2.01-8.82,1.86-12.47,.62-.12,1.4-.51,1.75,.28,2.88,6.63,5.72,13.27,8.92,20.74-5.89-.65-10.87-1.21-15.85-1.76Z"/>
  <path class="cls-17" d="M232.42,461.65c-2.48,1.91-4.52,2.63-5.69-1.41-.68-2.34-2.06-4.47-2.95-6.76-2.63-6.75-2.59-6.76,4.62-6.96,2.66,3.12,3.69,7.01,5.1,10.72,.61,1.62,.72,3.3-1.07,4.42Z"/>
  <path class="cls-17" d="M225.31,441.36c-4.9,1.92-7.21-.05-7.87-4.99-.37-2.76-1.18-5.46-1.81-8.28,2.37-.59,4.62-.56,6.83,.38,4,3.62,4.43,8.03,2.85,12.89Z"/>
  <path class="cls-17" d="M232.43,461.65c1.2-3.91-1.56-6.8-2.79-10.03-.65-1.7-1.45-3.24-1.24-5.1,1.11-1.24,2.53-1.17,3.98-.98,2.95,4.12,5.66,8.35,7.19,13.23-2.38,.96-4.76,1.92-7.14,2.88Z"/>
  <path class="cls-26" d="M70.53,201.83c-4.41-9.65-9.91-18.73-15.4-28.73,3.03,.9,3.64,3.14,4.77,4.67,4.94,6.71,9.27,13.81,12.64,21.44,.4,.9,3.43,3.99-1.32,3.32-.23-.23-.47-.46-.7-.7Z"/>
  <path class="cls-17" d="M231.41,440.6c-1.97,.82-4.02,.9-6.11,.77-1.29-4.22-.74-8.85-2.85-12.89,2.34-.13,4.68-.49,6.99,.17,1.8,3.79,.79,8.05,1.97,11.95Z"/>
  <g>
    <path class="cls-22" d="M460.36,533.58h0s.01,0,.01,0h-.01Zm0,0h0s.01,0,.01,0h-.01Z"/>
    <path class="cls-22" d="M434.47,516.35c.49-.19,.97-.38,1.47-.53,1.48-.46,2.83-1.16,4.15-1.94-1.87,.86-3.75,1.69-5.62,2.47Zm-40.05,63.56c10.11-.26,20.11-.78,30.06-2.18-1.28,.11-15.11,1.33-30.06,2.18Z"/>
    <path class="cls-22" d="M503.22,459.83c-.95,6.97-1.36,14.02-1.99,21.04-6.21-3.82-12.42-7.67-18.66-11.46-1.51-.92-1.52-1.93-.72-3.31,.83-1.44,1.43-3.01,2.3-4.42,2.15-3.49,2.32-9.49,5.72-10.49,4.69-1.38,10.19-.16,15.26,1.2,.13,.04,.27,.07,.4,.11-3.85,1.43-1.97,4.87-2.31,7.33Z"/>
    <path class="cls-22" d="M504.18,444.88c-13.21-.83-12.91-.74-8.9-13.07,1.49-4.57,4-5.8,8.15-5.79,1.98,0,3.95-.26,5.93-.4,.04,4.73-.42,9.44-.45,14.17-.03,3.07-1.52,4.92-4.73,5.09Z"/>
    <path class="cls-22" d="M502.63,407.83c1.96,3.9,3.5,6.96,5.16,10.26-2.75,.51-4.99,.93-7.56,1.4-.23-3.83,.52-7.25,2.41-11.66Z"/>
  </g>
  <path class="cls-7" d="M508.37,487.57c6.07,2.6,10.8,7,15.17,11.98-5.73-3.65-11.46-7.3-17.19-10.95,.67-.34,1.34-.68,2.02-1.02Z"/>
  <path class="cls-22" d="M517.52,562.66c-.48-.07-.98-.09-1.44-.24-.32-.1-1.21-.54-.27-.73,3.8-.79,7.48-3.35,11.57-1.05-3.21,1.05-6.44,1.99-9.86,2.02Z"/>
  <path d="M443.53,455.48c-1,.45-2.46-.39-3.11,1.09-.04,0-.07-.01-.11-.02-2.87-.36-4.95-2.88-7.94-2.95-.64-2.36,1.27-1.13,1.81-1.07,1.75,.19,3.48,.68,5.21,1.06,.75,.34,1.5,.68,2.25,1.03,.63,.28,1.26,.57,1.89,.86Z"/>
  <path class="cls-11" d="M42.42,88.45c-3.45,1.96-6.85,4.01-10.35,5.87-4.33,2.29-8.21,5.04-10.77,9.33-2.71-.86-2.29-2.91-.92-4.18,6.08-5.62,13.29-9.3,21.24-11.53,.21-.06,.53,.33,.81,.51Z"/>
  <path class="cls-11" d="M19.4,90.87c-1.13,3.92-3,5.99-5.99,7.15q.1-2.94,5.99-7.15Z"/>
  <path class="cls-11" d="M675.25,137.48c.39-1.94,.77-3.87,1.16-5.81,2.24,2.77-.2,5.28-.3,8-1.07-.55-.67-1.47-.86-2.2Z"/>
  <path class="cls-11" d="M402.11,397.81c-5.09-8.15-12.13-14.05-21.02-17.54-19.47-7.67-39.33-7.07-59.31-2.32-12.01,2.85-21.6,9.19-28.17,19.8-.41,1.25-.78,2.52-1.23,3.76-8.97,24.39,.59,46.03,16.79,59.97,20.13,17.32,51.41,17.59,74.05,2.25,17.4-11.8,29.62-40.19,18.89-65.92Zm-35.42,10.43c-2.47,1.02-5.08,1.67-7.76,1.76-6.32,.2-12.65,.19-18.98,0-2.68-.08-5.27-.77-7.79-1.66-1.69-.6-4-1.06-3.99-3.2,0-2.37,2.4-2.94,4.27-3.54,2.52-.81,5.31-.73,7.58-2.31,.16-.26,.32-.5,.45-.73,6.87,.01,13.72,.03,20.58,.04,.96,2.25,3.37,2.14,5.34,2.76,1.76,.55,3.86,1.07,3.94,3.24,.07,2.14-1.95,2.94-3.64,3.64Z"/>
  <path class="cls-11" d="M370.33,404.6c.07,2.14-1.95,2.94-3.64,3.64-2.47,1.02-5.08,1.67-7.76,1.76-6.32,.2-12.65,.19-18.98,0-2.68-.08-5.27-.77-7.79-1.66-1.69-.6-4-1.06-3.99-3.2,0-2.37,2.4-2.94,4.27-3.54,2.52-.81,5.31-.73,7.58-2.31,.16-.26,.32-.5,.45-.73,6.87,.01,13.72,.03,20.58,.04,.96,2.25,3.37,2.14,5.34,2.76,1.76,.55,3.86,1.07,3.94,3.24Z"/>
  <path class="cls-21" d="M652.02,123.13c.11,1.3,.36,2.59,.82,3.88-.46-1.35-.36-2.7-.82-3.88Zm0,0c.11,1.3,.36,2.59,.82,3.88-.46-1.35-.36-2.7-.82-3.88Z"/>
  <path class="cls-17" d="M418.4,123.64v-.07c-.26,.18-.51,.44-.76,.81-.69,8.51,2.45,16.27,4.74,23.93-.64-1.62-1.45-3.46-2.74-4.99-2.16-2.56-3.82-2.46-4.51,.61-1.45,6.47-3.45,12.88-4.23,19.27,.01-.37,0-.75-.03-1.12-.15-2.24,.67-5.76-1.83-6.03-2.71-.3-2.5,3.37-2.87,5.47-2.54,14.29-1.77,28.53,1.28,42.64,.86,3.97,.98,8.36,4.28,11.48,.25,.03,.47,.04,.68,.04l-.04-.04c-6.64-19.24-7.74-38.8-3.48-58.66,.49,6.21,.13,12.49,2.31,19.33,.08-12.08,3.52-22.79,5.72-34.31,3.18,3.96,4.44,8.67,8.31,11.65-2.99-9.91-5.74-19.78-6.83-30.01Zm84.59-11.05c-1-4.77-2.28-9.67-5.29-13.8,.15,2.18,.51,4.29,1.08,6.34,.58,2.12,.87,4.2,.1,6.4-4.87-22.61-18.92-39.65-33.6-56.39,2.27,.61,4.68,1.01,6.09,2.42,3.77,3.76,5.86,2.3,7.59-1.23,.12-.23,.23-.47,.34-.72-.39,.32-.77,.59-1.15,.82-2.22,1.35-4.4,1.24-6.92-.6-1.87-1.37-4.93-3.32-6.62-.82-1.44,2.14,1.71,3.89,3.14,5.61,9.35,11.28,19.26,22.16,24.53,36.21,1.64,4.37,3.33,8.71,4.54,13.23,.3,1.11,.79,2.66,2.05,2.5,1.55-.2,1.64-1.85,1.68-3.22,.01-.39-.01-.77-.06-1.14,1.26,4.94,2.44,9.9,2.95,15,1.14,11.52,3.73,23.04,.55,34.62,.12-.05,.24-.1,.36-.16,2.04-1.16,2.32-3.15,2.41-5.2,.61-13.47-1-26.76-3.77-39.87Z"/>
  <path class="cls-1" d="M652.84,127.01c-.46-1.29-.71-2.58-.82-3.88,.46,1.18,.36,2.53,.82,3.88Z"/>
  <g>
    <path class="cls-22" d="M63.16,184.55c-1.24-2.09-2.45-4.01-3.61-5.7,1.21,1.64,2.41,3.57,3.61,5.7Z"/>
    <path class="cls-22" d="M59.56,178.85c1.16,1.69,2.37,3.61,3.61,5.7-1.2-2.13-2.4-4.06-3.61-5.7Zm0,0c1.16,1.69,2.37,3.61,3.61,5.7-1.2-2.13-2.4-4.06-3.61-5.7Z"/>
    <path class="cls-22" d="M100.96,240.7c10.64-20.79,26.58-94.13,30.3-138.08-.93-.56-1.84-.48-2.73,.09-3.41,15.59-6.83,31.18-10.25,46.77-1.59-2.49-.74-5.13-.42-7.71,.81-6.58,1.74-13.15,2.59-19.73,2.53-19.59,5.05-39.19,7.56-58.78,.47-3.68,.83-7.36,1.29-11.55-13.3,6.34-24.75,13.85-33.34,25.89-.41-2.8,2.11-4.22,.8-6.8-6.13,6.02-11.95,12.04-17.18,20.28,.04-5.26,2.96-8.02,3.76-12.2-8.81,7.06-14.78,15.29-18.86,24.98-1.01,2.4-1.55,5.13-3.97,6.72,.82-7.2,2.73-14.18,4.88-21.8-7.71,6.19-12.91,13.25-15.86,21.94-1.24,2.72-2.48,5.44-4.19,9.19,.35-9.44,2.33-17.27,6.16-24.7-5.56,4.51-10.83,9.07-14.18,15.37-1.64,3.19-3.32,6.36-3.93,9.96,.5,3.21-.54,6.15-1.44,9.12-.08-.42-.26-.81-.64-1.17-1.7-7.77,.82-14.86,3.5-21.93-7.37,4.27-13.46,19.21-11.47,28.15,.1-.3,.14-.66,.33-.9,.07-.08,.69,.07,.73,.21,2.14,7.17,5.64,13.64,10,19.68,5.42,10.07,13.28,18.43,19.65,27.84,4.89,7.23,9.6,14.66,16.48,20.3,.91-1.09,.58-2.22,.02-3.27-2.55-4.77-4.91-9.65-7.27-13.82,2.7,4.53,5.5,9.8,8.22,15.12,.38,.74,1.74,1.99-.27,2.66,5.73,7.19,11.47,14.37,17.2,21.56-2.76-8.73-6.23-16.93-8.78-26.23,4.18,3.91,5.35,8.96,8.49,13.16,.53-3.26-1.69-5.89-.75-9.74,7.44,12.52,10.11,25.73,13.57,39.42Zm-41.4-61.85c1.21,1.64,2.41,3.57,3.61,5.7-1.24-2.09-2.45-4.01-3.61-5.7Z"/>
  </g>
  <path class="cls-17" d="M223.33,52.6c1.59,1.32,2.15,2.69,.37,4.34-.84,.78-1.6,1.69-.28,2.75-.93,1.11-1.86,2.23-2.88,3.45-1.95-1.14-1.32-3.86-3.53-4.7-2.07,2.79,2.93,4.71,.85,7.42-1.71-.24-1.56-2.18-2.53-3.15-.42-1.4-2.04-2.2-1.95-3.86-.19-5.26-5.27-7.96-6.13-13.21,1.95,1.82,4.23,3.4,5.79,5.51,3.08,4.13,6.33,4.66,10.29,1.46Z"/>
  <path class="cls-22" d="M672.34,135.48c-.22-12.31-4.68-22.67-14.22-30.67-1.36-2.57-3.18-3.75-5.97-1.97-1.77-1.52-3.17-3.53-6.15-4.7,1.62,4.22,3.02,7.87,4.42,11.51,.25,3.22,.49,6.44,.86,11.14-4.43-12.81-10.38-22.88-21.22-31.33,3.98,8.53,5.88,16.19,6.38,24.18-.15,.95-.3,1.91-.5,3.19-3.08-13.2-14.96-31.54-23.52-36.31,1.15,3.24,3.21,6,3.5,10.36-5.63-6.87-9.78-13.68-16.73-19.45,.74,3.13,1.22,5.22,1.71,7.31-8.21-13.77-22.45-19.52-35.32-28.02,1.11,13.87,3.24,26.92,5.25,39.98,2.04,13.29,4.28,26.55,5.91,39.88,.73,5.92,3.03,11.91,.67,17.99-3.63-16-7.26-32-10.89-48-.9-.58-1.68-1.55-2.96-.94,4.11,45.93,22.05,127.38,31.03,140.34,1.31-5.33,2.39-10.5,3.87-15.56,1.49-5.1,3.17-10.17,5.16-15.09,1.92-4.75,3.92-9.53,7.4-13.5-1.26,4.33-3.79,8.3-2.58,13.34,1.95-4.25,3.89-8.5,5.83-12.74-1.07,10.01-4.24,19.22-8.36,29.33,15.18-15.43,19.69-36.07,32.97-51.18-4.1,9.37-8.8,18.41-13.91,27.29,1.5-.98,2.74-2.1,3.73-3.4,7.23-9.54,14.49-19.06,21.58-28.7,4.01-5.47,8.66-10.55,11.12-17.04,4.1-5.48,7.55-11.32,9.61-18.8,.16,2.53,.27,4.15,.37,5.77,1.2-1.2,.99-2.76,.96-4.21Zm-20.33-12.35c.46,1.18,.36,2.53,.82,3.88-.46-1.29-.71-2.58-.82-3.88Z"/>
  <path class="cls-22" d="M32.41,133.7c-1.4-1.52-.49-3.53-1.11-5.21,.02-2.83,.76-5.47,2.08-7.95,3.69,4.68-.86,8.75-.97,13.16Z"/>
  <path class="cls-6" d="M418.41,123.64c-2.72-3.08-4.58-6.41-4.14-10.78,.36-3.6,1.76-6.43,5.02-8.01,3.26-1.58,6.21-.45,8.69,1.82,8.96,8.2,18.77,15.28,28.77,22.14,15.33,10.52,31.46,19.72,47.62,28.86,2.78,2.05,5.56,4.1,8.33,6.15-32.43-11.14-66.32-18.75-94.28-40.17Z"/>
  <path class="cls-4" d="M192.48,156.71c25.96-14.82,52.85-28.23,74.73-49.24,2.58-2.47,5.54-4,9.01-2.41,3.69,1.69,5.03,5,5.23,8.96,.24,4.78-2.68,8.05-5.15,11.57-5.14,1.81-8.63,6.06-13.16,8.83-12.07,7.39-25.52,11.33-38.66,15.99-13.28,4.7-26.46,9.77-40.33,13.17,.3-2.17,2.81-1.96,3.31-3.64,.94-2.22,2.98-2.72,5.02-3.22Z"/>
  <g>
    <path class="cls-17" d="M521.15,27.51c-1.86,.66-3.88,1.04-5.55,2.03-11.48,6.8-21.84,14.98-30.44,25.27-.99,1.18-1.51,2.9-3.57,3.26,.25-4.37,3.34-7.34,4.43-11.32-2.24,2.96-4.48,5.91-6.72,8.86-.39,.32-.77,.59-1.15,.82,.16,.01,.33,.01,.5,0,.11-.03,.21-.06,.31-.1,2.39-.79,3.07-3.13,4.16-4.74-.32,.57-.61,1.32-1.06,1.96-1.05,1.47-2.58,3.38-.7,4.79,1.9,1.44,3.32-.69,4.38-2.03,2.9-3.65,6.09-7.05,9.59-10.07,8.13-7.02,16.12-14.33,26.7-17.69,.29-.08,.57-.16,.86-.23-.13-.57-.57-.95-1.74-.81Zm-37.51,23.41c-.18,.19-.34,.4-.49,.63,.15-.26,.3-.48,.49-.63Z"/>
    <path class="cls-17" d="M169.74,249.17s-.06,.02-.1,.04c-.14,.09-.19,.1-.19,.07s.14-.14,.29-.11Z"/>
    <path class="cls-17" d="M170.12,250.25c-.05-.24-.1-.48-.16-.72-.05-.18-.1-.29-.16-.34,.11,.06,.23,.22,.27,.57,.07,.09,.07,.27,.05,.49Z"/>
    <path class="cls-17" d="M170.37,251.6c-.42-.25-.29-.88-.25-1.35,.1,.45,.19,.9,.25,1.35Z"/>
    <path class="cls-17" d="M225.83,61.83c-12.51,14.3-23.17,29.63-27.2,48.67-.14,.65-.29,1.31-.6,1.9-.52,.98-.84,2.46-2.3,2.14-1.36-.3-1.53-1.75-1.43-2.87,.28-2.86,.66-5.71,1.33-8.5-2.86,10.55-3.67,21.49-5.29,32.28-.03,.14-.06,.27-.08,.41-.2-.43-.49-.82-.88-1.21,1.17-13.81,2.11-27.67,9.2-40.14-1.44,6.2-2.65,12.42-2.58,18.96,4.54-22.7,17.27-40.65,32.28-57.51-1.62,1.24-3.24,2.48-4.86,3.72-.64,.1-1.04,.01-1.27-.2,.29-.3,.58-.64,.87-.95,1.97-1.15,3.76-5.06,5.97-2.63,1.88,2.06-1.61,4.16-3.16,5.93Z"/>
    <path class="cls-17" d="M290.88,185.13c-.8,12.47-4.31,24.55-5.73,36.94-.34,.15-.64,.26-.9,.32-.63-11.66,3.92-22.62,4.72-34.1,.75-10.59,.95-21.11-2.25-31.42,.14,6.96-.88,13.79-1.89,20.65-.99-9.05-1.66-18.12-4.38-26.85-.67-2.16-1.63-4.22-2.58-6.64-3.38,3.74-4.27,8.64-8.74,12.78,3.92-10.91,6.8-20.81,7.17-31.23-.01-.03-.01-.05-.02-.08,.26,.14,.51,.31,.78,.52,1.16,8.48-1.6,16.24-4.25,24.02,1.3-2.51,1.61-6.6,5.12-6.15,3.18,.41,3.5,4.49,4.37,7.28,1.42,4.53,2.24,9.14,2.59,13.5,0-1.43,.01-2.9,.01-4.37,0-1.74-.17-4.31,2.11-4.43,1.76-.1,2.1,2.31,2.45,3.88,1.86,8.37,1.96,16.9,1.42,25.38Z"/>
    <path class="cls-17" d="M192.49,156.71c-.35,.22-.7,.44-1.04,.67-2.13-.69-2.03-2.59-2.11-4.49-.15-3.21-.11-6.42-.05-9.64,.06-2.86,.13-5.73,.09-8.6,.39,.39,.68,.78,.88,1.21,.3,.65,.38,1.38,.23,2.3-.91,5.56,1.4,11.13,.08,16.75-.29,1.22,.87,1.61,1.92,1.8Z"/>
    <path class="cls-17" d="M192.49,156.71c-.35,.22-.7,.44-1.04,.67-.94,.6-1.87,1.2-2.8,1.79-.4,.26-.79,.51-1.18,.76-.09-8.48-.53-16.99,1.91-25.28,.39,.39,.68,.78,.88,1.21,.3,.65,.38,1.38,.23,2.3-.91,5.56,1.4,11.13,.08,16.75-.29,1.22,.87,1.61,1.92,1.8Z"/>
  </g>
  <path class="cls-14" d="M487.19,510.99c-3.89,11.51-10.36,21.76-15.91,32.45-3.95,5.65-8.06,11.17-13.11,15.91-1.26-3.2,1.47-4.85,2.94-6.74,2.72-3.49,5.34-7.01,7.29-10.99,10.07-13.69,16.88-28.99,22.48-44.95,.42,5.21-2.1,9.65-3.69,14.32Z"/>
  <g>
    <path class="cls-22" d="M434.47,516.35c.49-.19,.97-.38,1.47-.53,1.48-.46,2.83-1.16,4.15-1.94-1.87,.86-3.75,1.69-5.62,2.47Z"/>
    <path class="cls-22" d="M555.64,550.24c-4.76-33.18-16.9-63.87-31.57-93.71-.86-1.75-1.92-2.87-4.13-2.96-4.82-.2-9.62-.7-14.42-1.07-3.85,1.43-1.97,4.87-2.31,7.33-.95,6.97-1.36,14.02-1.99,21.04,2.13,2.5,4.36,4.89,7.14,6.7,1.04,1.26,2.25,2.31,3.54,3.26-1.67-.98-3.5-1.81-5.55-2.24-.33,.04-.65,.03-.97-.01-6.83-3.26-13.7-6.42-20.46-9.82-7.78-3.9-7.72-3.98-12.65,2.86-1.94,2.69-3.96,5.32-5.94,7.97-3.36,3.25-6.73,6.51-10.1,9.76-8.46,6.55-16.81,13.28-26.27,18.54,1.23-.24,2.36-.67,3.47-1.12-83.81,34.82-165.53,1.84-165.53,1.84,0,0-.02-.01-.06-.04-3.49-1.99-6.97-3.98-10.45-5.98l-13.71-9.99c-.06-.04-.12-.08-.18-.12h0c-.75-.55-1.51-1.1-2.26-1.65-6.91-7.07-14.38-13.69-19.68-22.13-2.63-4.2-5.11-4.22-8.43-1.26-7.91,3.06-15.63,6.51-22.79,11.1,.29,.39,.82,.77,.83,1.17,.39,12.47-.38,25,1.35,37.4,.59,4.17,.09,8.53,1.85,12.53-.55,3.68,1.35,7.63-1.2,11.09-.92,6.44,2.5,11.21,6.1,15.91,14.38,3.96,29.2,5.21,43.92,7.03,2.23,1.15,4.68,.8,7.05,.99,.55,.15,1.11,.29,1.66,.41,4.73,1.08,9.56,1.36,14.39,1.57,.4,.17,.79,.31,1.2,.42,3.61,1.12,7.42,.58,11.11,.99,5.25,.59,10.5,1.19,15.88,1.64,.62,.45,1.14,.72,1.56,.79,7.9,1.38,48.81,1.32,66.43,0,7.55,.53,20.04,.1,31.84-.57h.11c14.95-.85,28.78-2.07,30.06-2.18,.07,0,.1,0,.1,0,5.2-.12,10.38-.41,15.45-1.65,.5-.12,1-.25,1.5-.39,17.76-1.83,35.3-5.18,52.91-8.06,6.17-4.5,8.06-11,8.77-18.06,1.14-.3,1.56-1.43,1.88-2.43,1.33-4.2,2.7-8.37,3.65-12.66-1.28,10.04-3.27,19.89-8.45,29-.5,.88-1.17,2.19,.46,2.92,5.59-1.24,11.17-2.49,16.76-3.73-.23-.22-.45-.46-.63-.73,0-.02,.08-.13,.13-.13,3.51,.16,6.77-2.01,10.36-1.16,3.91-.41,7.7-1.26,11.29-2.92,2.7-.29,5.32-.9,7.79-2.08,2.57,.02,4.8-1.33,7.22-1.8,2.34-.45,2.25-1.68,1.97-3.6Zm-119.7-34.42c-.5,.15-.98,.34-1.47,.53,1.87-.78,3.75-1.61,5.62-2.47-1.32,.78-2.67,1.48-4.15,1.94Zm24.42,17.77h0s.01-.01,.01-.01h-.01Zm49.63-10.35c-.01,.06-.01,.13-.02,.19,.01-.61,.04-1.21,.09-1.82,0,.55-.01,1.1-.07,1.63Zm1.98-32.36c1.09,.64,2.11,1.35,3.09,2.04-1.05-.65-2.09-1.31-3.09-2.04Zm7.33,4.89c-1.34-.75-2.72-1.77-4.2-2.82,1.62,1,3.26,1.98,4.78,3.14-.16-.08-.36-.18-.58-.32Zm1.33,.61c-.05,.11-.22,.1-.46-.08-.09-.07-.18-.14-.27-.2,.5,.21,.75,.14,.83,.1-.03,.03-.06,.08-.1,.18Z"/>
    <path class="cls-22" d="M194.4,480.55c-.26-7.52-.8-14.99-2.07-22.45-.36-2.15-2.5-3.4-1.94-5.63,4.56-.6,9.12-1.16,13.67-1.81,1.85-.27,2.57,.6,3.25,2.19,1.75,4.1,3.56,8.19,5.66,12.11,1.26,2.34,1.15,3.58-1.32,5-5.85,3.35-11.51,7.04-17.24,10.59Z"/>
    <path class="cls-22" d="M188.38,425.72q10.1-.15,12.57,9.34c2.17,8.33,2.17,8.36-6.6,9.33-1.96,.22-3.96,.17-5.94,.25-2.89-6.3-2.8-12.61-.04-18.92Z"/>
    <path class="cls-22" d="M196.57,419.41c-9.63-1.39-9.93-2.51-3.52-10.94,1.17,3.63,2.25,6.99,3.52,10.94Z"/>
  </g>
  <path class="cls-22" d="M191.41,565.64c-13.96-3.02-27.92-6.03-41.87-9.07-.78-.17-1.5-.6-2.25-.91,3.14,.05,3-2.07,3.15-4.36,.57-9.01,.78-18.08,3.98-26.71,1.02-9.49,5.1-18.04,8.22-28.41,1.28,6.09-.77,10.82,.75,15.39,3.07,9.2,6.07,18.43,9.06,27.66,.45,1.4,.66,2.89,.98,4.34,1.07,2.33,2.13,4.67,3.19,7,.43-13.19,1.2-26.18,4.61-38.96,.14,1.93,.28,3.85,.44,6.1,1.51-2.03-.25-4.61,1.8-6.11,1.68,4.59,1.26,9.48,1.78,14.2,1.34,12.29,3.43,24.28,8.45,35.67,.85,1.93,2.83,5.2-2.29,4.17Z"/>
  <path class="cls-22" d="M237.4,558.59c-5.14-1.75-7.16-6.49-10-10.44-4.69-7.84-9.38-15.69-14.08-23.53-2.87-8.08-5.74-16.17-8.61-24.25,.36-.15,.72-.3,1.09-.45,2.62,5.4,5.09,10.89,7.93,16.18,2.78,5.2,4.38,11.06,8.56,15.49,2.4,6.8,7.33,12.05,11.11,18,1.31,3,4.69,5.09,4,9Z"/>
  <path class="cls-22" d="M245.37,567.73c-5.51-4.17-10.66-8.74-15.14-14-1.33-1.57-2.85-3.23-2.82-5.58,3.78,3.05,5.86,7.73,10,10.44,1.19,2.23,3.52,3.26,5.19,4.97,1.13,1.15,3.79,1.53,2.77,4.17Z"/>
  <polygon class="cls-19" points="460.37 533.58 460.36 533.59 460.36 533.58 460.37 533.58"/>
  <path class="cls-17" d="M500.35,297.62c.26,1.41,.92,1.73,1.8,.5,2.03-2.85,4.18-5.75,4.08-9.44-.25-8.78,2.6-16.54,6.99-23.99,3.22-5.46,5.51-11.34,5.76-17.94,1.63,5.1,2.02,10.34,1.89,15.62-.04,1.76-1.09,3.55,.42,5.17-1.65,12.02-7.21,22.35-14.32,31.85-2.1,2.8-4.64,5.79-9.23,5.24-1.42-.17-3.28,1.43-4.17,3.18-.25,2.14-1.92,3.01-3.55,3.82-10.86,5.39-30.01,2.61-39.03-5.65-.37-.34-.51-.85-.65-1.33-2.98-2.36-5.96-4.72-8.95-7.08-2.14-.29-4-1.14-5.24-3.02-.61,2.09,2.56,4.26-.67,5.88-10.79-13.08-17.66-28.07-21.56-44.49-.26-1.11-.26-2.28-.38-3.41,2.51,1.59,4.08,3.85,5.56,6.45,2.96,5.21,6.59,9.99,12.29,12.63,4.34,1.97,7.09,6.12,11.43,8.19,5.1,2.43,10.2,4.63,15.85,5.38,1.53,.2,3.46,.06,3.84,2.31-1.95,1.3-5.84-1.58-6.2,1.78-.31,2.97,3.45,2.07,5.48,2.72,3.03,.97,4.6,3.53,6.4,5.84-1.82,4.92-1.13,6.68,3.72,8.08,7.44,2.14,13.92-.74,20.28-4.21,2.66-1.45,4.54-4.49,8.13-4.08Z"/>
  <path class="cls-17" d="M435.48,300.44c1.58-2.81-2.78-4.94-.43-8,2.44,.99,4,3.6,6.34,5.14,.85,4.28,3.65,7.26,6.6,10.19,4.44,4.4,4.32,4.84-1.62,6.83-3.63-4.72-7.26-9.44-10.9-14.16Z"/>
  <path class="cls-17" d="M229.43,297.67c1.83-2.82,3.91-5.38,7.51-5.9,1.67-.24,3.79-.27,3.7-2.38-.11-2.49-2.44-1.33-3.89-1.55-.48-.08-.96-.19-1.44-.28,.01-1.84,1.51-2.03,2.73-2.23,9.07-1.45,16.81-5.47,23.3-11.94,.58-.58,1.34-.95,2.07-1.31,4.4-2.45,9.47-3.97,11.95-9.03,.52-1.05,1.14-2.79,2.76-2.31,1.96,.58,.71,2.58,1.2,3.86-3.61,12.61-9.84,23.85-17.89,34.14q-2.43-2.11-.14-5.54c-2.85,4.29-7.55,6.43-11.26,9.72-10.21,5.85-20.18,12.18-32.81,11.26-4.76-.35-9.14-1.28-12.89-3.56,1.86,1.94,5.93,1.48,7.03,5.09-5.17,.78-8.26-2.51-11.24-5.88-.95-1.07-1.19-2.72-2.73-3.33-.69-1.09-.62-2.42-1.07-3.59-.4-2.23-1.74-4.27-1.36-6.66,2.59-3.5,5.9-5.86,10.31-6.47,.06,.94,.12,1.88,.18,2.82-2.85,7.23-1.94,9.42,5.2,12.54,2,.87,4.08,1.45,6.22,1.78,7.74,1.21,11.22-1.37,12.57-9.24Z"/>
  <path class="cls-17" d="M171.51,256.55c2.22,3.43,1.29,8.05,4.99,12.59-.82-7.71-1.9-14.01-.62-21.56,1.7,10.4,5.4,18.78,10.65,26.52,1.75,2.57,.87,5.42,.07,8.17-.51,1.74-.84,3.54-1.25,5.31-.96,1.24,.23,3.55-2.05,4.13-5.33-9.51-9.96-19.29-11.4-30.26-.21-1.63-.26-3.27-.38-4.91Z"/>
  <path class="cls-17" d="M211.36,315.68c-4.19-1.92-8.35-3.86-11.57-9.32,18.81,12.89,34.27,4.41,49.66-4.62,2.31,.46,2.52,.61,1.67,1.97-1.57,2.51-3.37,4.88-6.81,4.82-6.45,3.35-12.53,7.57-20.12,8.12-4.34,.32-8.62,.11-12.85-.97Z"/>
  <path class="cls-17" d="M244.32,308.53c1.95-1.78,3.92-3.53,5.83-5.35,1.06-1.01,.24-1.3-.69-1.44,4.41-4.21,10.11-6.81,14.59-12.46-.22,4.13-5.94,5.53-2.62,9.43-2.59,5.05-7.62,8.07-10.62,12.79-1.06,1.66-2.03,1.7-3.25-.05-.81-1.16-2.14-1.96-3.24-2.92Z"/>
  <path class="cls-17" d="M183.3,291.71c.68-1.38,1.37-2.75,2.05-4.13,.32,1.35-.42,2.98,1.06,4.03,1.49,1.17,1.25,2.89,1.42,4.48,.75,7.21,2.83,8.83,9.68,7.56,1.37,1,.27,1.9-.12,2.83-1.95,1.58-4.01,3.43-6.59,1.6-3.49-2.48-6.98-5.16-7.42-9.93-.2-2.13-.07-4.29-.08-6.44Z"/>
  <path class="cls-17" d="M459.5,313.49c12.26,4.68,24.1,5.83,34.59-4.16,1.25,.94,.41,1.65-.27,2.38-7.28,7.83-25.8,9.48-34.53,3.03-.16-.12,.12-.82,.2-1.25Z"/>
  <path class="cls-17" d="M462.52,287.48c-5.07-1.36-10.34-1.74-15.3-3.76-6.44-2.62-11.58-6.73-15.82-12.11,1.12-2.05,1.99-.4,2.89,.21,3.93,2.67,7.94,5.16,12.73,5.98,10.89,1.18,21.78,1.6,32.67-.04,14.46-5.72,16.83-7.53,27.94-21.35-2.8,18.68-20.68,30.99-45.11,31.06Z"/>
  <path class="cls-12" d="M494.76,242.11c-.13-.16-.27-.31-.37-.44,.13,.13,.26,.28,.37,.44Z"/>
  <path class="cls-10" d="M494.76,242.11c-.13-.16-.27-.31-.37-.44,.13,.13,.26,.28,.37,.44Z"/>
  <g>
    <path class="cls-8" d="M187.57,224.4c0,20.43,10.55,38.41,26.5,48.78,9.1,5.91,19.95,9.35,31.63,9.35,8.69,0,16.92-1.9,24.32-5.31,19.46-8.97,33.12-28.38,33.79-51.04-.07-2.98-.34-5.96-.81-8.97-.29-1.9-.52-3.81-.78-5.71-2.4-7.69-5.48-15.05-9.87-21.78-.02-.03-.04-.06-.06-.09-.63-1-1.31-1.99-2.03-2.97-6.45-8.8-14.86-15.17-25.29-19.66,5-2.78,9.49-5.68,11.82-10.76,.42-.89,.82-2.18,.48-2.94-.47-1.06-1.88-.82-2.84-.42-15.28,6.38-31.93,9.14-46.86,16.28-21.63,7.09-37.66,26.53-39.76,50-.16,1.72-.24,3.48-.24,5.25Z"/>
    <path class="cls-2" d="M263.04,271.73c10.48-4.47,18.28-11.77,23.24-22.06,.4-.99-.19-1.28-1-1.42-1.56,.4-2.28,1.76-3.24,2.84-2,2.35-4.15,4.53-6.79,6.18-2.09,1.58-4.28,2.99-6.61,4.19-3.07,1.72-6.24,3.19-9.66,4.09-9.22,2.15-18.35,2.05-27.38-.97-5.71-2.42-11.53-4.67-15.77-9.53-3.19-3.28-6.53-6.41-9.77-9.64-.27-.27-.66-.12-.91,.2-.19,.24-.22,.54-.07,.91,3.06,8.03,8.08,14.6,14.92,19.77,3.93,5.77,10.59,6.46,16.41,8.24,6.55,2.01,13.53,1.34,20.31,.43,2.4-.32,4.87-.88,6.32-3.24Z"/>
    <path class="cls-27" d="M202.49,237.72c.16,3.26-.37,6.68,2.03,9.47,3.23,3.11,6.47,6.23,9.71,9.35,3.85,5.41,9.94,7.19,15.65,9.57,9.67,4.35,19.47,4.52,29.4,.96,3.63-.35,6.76-1.85,9.6-4.04,2.51-.82,4.62-2.26,6.49-4.08,3.14-1.34,5.08-4,7.14-6.51,1.3-.57,1.43-1.99,2.16-2.98,2.91-2.14,2.62-5.79,4.11-8.61,2.57-5.95-1.18-10.72-3.43-15.51-1.01-2.15-2.18,.45-2.48,1.48-1.28,4.32-2.35,8.7-3.49,13.05-1.37,2.11-2.73,4.22-4.1,6.32-12.93,13.01-29,16.05-45.7,8.69-7.05-3.1-12-8.31-15.49-15.05-.11,.14-.25,.29-.39,.46,.12-.17,.25-.33,.39-.46-.7-2.1-1.4-4.21-2.1-6.31-1.64-6.31-1.04-12.73-.84-19.12,.03-.85,.43-1.72-.47-2.32-.73-.48-1.24-.03-1.76,.48-3.38,3.37-9.21,18.43-6.42,25.17Zm10.75,3.28c-.06-.12,.17-.4,.44-.69-.17,.21-.32,.44-.44,.69Z"/>
    <path class="cls-15" d="M273.91,204.59c-.07-8.41-8.22-16.1-16.93-15.96-8.86,.14-16.14,7.47-15.97,16.09,.17,8.66,8.4,16.13,17.57,15.95,8.42-.17,15.4-7.49,15.33-16.08Z"/>
    <path class="cls-5" d="M237.16,207.09c-.31-1.8-.56-4.52-3.95-4.34-2.8,.15-5.39,1.36-5.19,4.64,.18,2.92,2.26,4.69,5.28,4.71,2.75,.01,4.14-1.53,3.86-5.01Z"/>
    <path class="cls-3" d="M234.19,217.94c.37,1.7,1.2,3.05,3.01,2.95,1.71-.1,2.01-1.55,1.95-3.02-.05-1.43-.2-2.9-2.09-2.85-1.79,.05-2.71,1.19-2.87,2.92Z"/>
  </g>
  <g>
    <path class="cls-8" d="M501.64,224.4c0,20.43-10.55,38.41-26.5,48.78-9.1,5.91-19.95,9.35-31.63,9.35-8.69,0-16.92-1.9-24.32-5.31-19.46-8.97-33.12-28.38-33.79-51.04,.07-2.98,.34-5.96,.81-8.97,.29-1.9,.52-3.81,.78-5.71,2.4-7.69,5.48-15.05,9.87-21.78,.02-.03,.04-.06,.06-.09,.63-1,1.31-1.99,2.03-2.97,6.45-8.8,14.86-15.17,25.29-19.66-5-2.78-9.49-5.68-11.82-10.76-.42-.89-.82-2.18-.48-2.94,.47-1.06,1.88-.82,2.84-.42,15.28,6.38,31.93,9.14,46.86,16.28,21.63,7.09,37.66,26.53,39.76,50,.16,1.72,.24,3.48,.24,5.25Z"/>
    <path class="cls-2" d="M426.18,271.73c-10.48-4.47-18.28-11.77-23.24-22.06-.4-.99,.19-1.28,1-1.42,1.56,.4,2.28,1.76,3.24,2.84,2,2.35,4.15,4.53,6.79,6.18,2.09,1.58,4.28,2.99,6.61,4.19,3.07,1.72,6.24,3.19,9.66,4.09,9.22,2.15,18.35,2.05,27.38-.97,5.71-2.42,11.53-4.67,15.77-9.53,3.19-3.28,6.53-6.41,9.77-9.64,.27-.27,.66-.12,.91,.2,.19,.24,.22,.54,.07,.91-3.06,8.03-8.08,14.6-14.92,19.77-3.93,5.77-10.59,6.46-16.41,8.24-6.55,2.01-13.53,1.34-20.31,.43-2.4-.32-4.87-.88-6.32-3.24Z"/>
    <path class="cls-27" d="M480.32,212.55c-.52-.52-1.03-.97-1.76-.48-.9,.6-.5,1.47-.47,2.32,.2,6.39,.8,12.81-.84,19.12-.7,2.1-1.4,4.21-2.1,6.31,.14,.14,.27,.29,.39,.46-.14-.17-.28-.33-.39-.46-3.49,6.74-8.45,11.95-15.49,15.05-16.7,7.36-32.77,4.32-45.7-8.69-1.37-2.1-2.73-4.21-4.1-6.32-1.15-4.35-2.21-8.73-3.49-13.05-.3-1.03-1.47-3.63-2.48-1.48-2.25,4.8-5.99,9.56-3.43,15.51,1.49,2.82,1.2,6.48,4.11,8.61,.73,.99,.85,2.41,2.16,2.98,2.06,2.51,4,5.17,7.14,6.51,1.87,1.82,3.98,3.26,6.49,4.08,2.84,2.19,5.97,3.69,9.6,4.04,9.93,3.57,19.73,3.4,29.4-.96,5.71-2.38,11.8-4.16,15.65-9.57,3.24-3.12,6.48-6.24,9.71-9.35,2.4-2.79,1.87-6.21,2.03-9.47,2.8-6.74-3.04-21.8-6.42-25.17Zm-4.77,27.75c.27,.29,.5,.58,.44,.69-.13-.25-.27-.48-.44-.69Z"/>
    <path class="cls-15" d="M415.31,204.59c.07-8.41,8.22-16.1,16.93-15.96,8.86,.14,16.14,7.47,15.97,16.09-.17,8.66-8.4,16.13-17.57,15.95-8.42-.17-15.4-7.49-15.33-16.08Z"/>
    <path class="cls-5" d="M452.05,207.09c.31-1.8,.56-4.52,3.95-4.34,2.8,.15,5.39,1.36,5.19,4.64-.18,2.92-2.26,4.69-5.28,4.71-2.75,.01-4.14-1.53-3.86-5.01Z"/>
    <path class="cls-3" d="M455.03,217.94c-.37,1.7-1.2,3.05-3.01,2.95-1.71-.1-2.01-1.55-1.95-3.02,.05-1.43,.2-2.9,2.09-2.85,1.79,.05,2.71,1.19,2.87,2.92Z"/>
  </g>
  <path class="cls-17" d="M229.43,297.67c2.21,5.33,.98,8.53-4.12,9.9-7.74,2.07-14.89,.82-20.9-4.71-4.32-3.98-3.96-6.69,1.04-10.27,7,6.41,14.42,10.81,23.99,5.08Z"/>
  <path class="cls-18" d="M226.38,299.63c-4.75,3.92-9.88,2.06-10.91-4.13-.43-2.57-.15-5.27-.19-7.9,.02-.65-.16-1.38,.08-1.94,1.69-3.95,3.46-7.87,5.54-12.56,1.47,4.79-1.23,8.74,.21,12.62,2.05,1.87,3.04,4.2,3.07,6.96,1.3,2.14,2.94,4.17,2.21,6.95Z"/>
  <path class="cls-17" d="M195.3,296.69c-1.77-1.99-3.25-4.11-3.07-6.96,2.62-10.35,10.07-2.27,16.19-4.79-2.1,2.07-3.36,3.09-3.16,4.82-2.41,3.63-7.17,3.86-9.96,6.93Z"/>
  <path class="cls-16" d="M360.33,397.98c2.67,2.13,6.26,.48,9.06,2.24,1.77,1.11,3.7,2.13,3.95,4.38,.27,2.43-1.82,3.57-3.49,4.62-1.55,.97-3.36,1.72-5.15,2.09-12.96,2.66-25.88,2.32-38.71-.91-2.78-.7-5.94-2.17-6-5.07-.07-3.02,3.31-4.27,5.95-5.1,3.18-1,6.5-1.54,9.76-2.28,8.21-2.6,16.42-3.56,24.63,.04Z"/>
  <path class="cls-22" d="M243.51,502.47s.11,.08,.18,.13c-.06-.04-.12-.08-.18-.12h0Z"/>
  <path class="cls-22" d="M243.69,502.6c3.81,2.73,22.95,15.18,24.16,15.97-3.49-1.99-6.97-3.98-10.45-5.98l-13.71-9.99Z"/>
  <path class="cls-22" d="M440.09,513.88c-1.32,.78-2.67,1.48-4.15,1.94-.5,.15-.98,.34-1.47,.53,1.87-.78,3.75-1.61,5.62-2.47Z"/>
  <ellipse class="cls-22" cx="441.09" cy="514.25" rx="16.1" ry="1.7" transform="translate(-189.67 266.96) rotate(-27.97)"/>
</svg>