<?xml version="1.0" encoding="utf-8"?>
<!-- Generator: Adobe Illustrator 26.4.1, SVG Export Plug-In . SVG Version: 6.00 Build 0)  -->
<svg version="1.1" id="Слой_1" xmlns="http://www.w3.org/2000/svg" xmlns:xlink="http://www.w3.org/1999/xlink" x="0px" y="0px"
	 viewBox="0 0 773.6 761.4" style="enable-background:new 0 0 773.6 761.4;" xml:space="preserve">
<style type="text/css">
	.st0{fill:#B87D51;}
	.st1{fill:#2C0F03;}
	.st2{fill:#331104;}
	.st3{fill:#A84C07;}
	.st4{fill:#72442A;}
	.st5{fill:#6F534D;}
	.st6{fill:#E1E1DF;}
	.st7{fill:#D3D3CE;}
	.st8{fill:#F3E3CC;}
	.st9{fill:#C3BCB7;}
	.st10{fill:#B4A79F;}
	.st11{fill:#290F0A;}
	.st12{fill:#4F3C36;}
	.st13{fill:#877470;}
	.st14{fill:#2F0F03;}
	.st15{fill:#2D0F03;}
	.st16{fill:#F0F1EF;}
	.st17{fill:#9F8E88;}
	.st18{fill:#72544A;}
	.st19{fill:#2B0F03;}
	.st20{fill:#FBFBFA;}
	.st21{fill:#4F3228;}
	.st22{fill:#FDFDFD;}
	.st23{fill:#EFEEEF;}
	.st24{fill:#E0E0E1;}
	.st25{fill:#FAF9F9;}
	.st26{fill:#FDFDFC;}
</style>
<ellipse class="st0" cx="453.5" cy="258.9" rx="14.3" ry="58.9"/>
<path class="st1" d="M722.9,185c-2.3,2.2-0.5,4.3,0.1,6.4c1.5,4.5,3.7,9,2.6,14c-0.3,1.2-0.2,3.1-1.8,3.2c-5.8,0.1-5.4,4.1-5.6,8
	c-0.3,8-3.3,15.2-5.6,23.1c-1.2-1.1-1.4-2.3-2.6-2.4c-1.2,0.6-1.9,1.5-2.4,2.5c0.7-2,1.3-4.1,1.5-6.3c0-0.7,0-1.3,0-2
	c-0.1-1.5,0.1-3.4-1.6-3.8c-1.9-0.4-2.2,1.7-2.6,3c-1.7,5.6-5.1,10.3-8.1,15.2c-0.9,2-2,3.8-3.2,5.6c-8.7,12.4-18,24.4-26.3,36
	c2.6-4,4.9-8.9,7.3-13.7c0.6-1.2,1.2-2.4,1.5-3.7c0.2-1,0.3-2.2-0.8-2.6c-0.8-0.3-1.6,0.2-2.2,0.8c-1.7,1.6-2.8,3.7-4.1,5.6
	c-9,13.1-13.8,28.7-22.7,39c2.3-5,4.6-12.4,6.1-20.1c0.2-1.3,0.4-3-1.2-3.4c-1.2-0.3-2.1,0.8-2.6,1.9c-1,2.3-2.4,4.3-3,7
	c0.5-2.4,1.9-4.2,2.5-6.2c0.4-1.3,0.7-2.9-0.7-3.5c-1.3-0.6-2,0.8-2.7,1.7c-1.4,2.1-2.5,4.3-3.6,6.5c-5.2,10.3-8.1,21.3-10.9,33.3
	c-15.9-45-22.6-91.1-29.1-137.3c-0.7-9-3.1-17.6-5.3-26.3c-2.8-10.8-6-21.5-12.2-31c-6.3-9.5-16.2-12.7-26.4-8.5
	c-14.9,7.7-24.6,20.6-34,33.8c-1.9,2.6-1.4,5,1.2,7c9.5,7.4,16.3,17.1,22.8,27c18.6,28.1,27.8,59.6,31.9,92.7
	c1.1,8.8,2.1,17.6,1.7,26.4c-0.5,9.5-0.4,19-0.6,28.4c0.2,8.7,0.3,17.3-0.1,26c-0.4,8.5-1.5,16.9-3.8,25.1
	c-7.2,25.9-20.2,48.8-35.2,70.8c-9.8,14.3-20.2,28.2-23.6,45.8c-0.5,2.5-2,3.7-4.3,4.2c-5,0.7-10,0.4-15,1.5
	c-6.8,0.9-13.4,2.3-20.1,3.7c-1.7,0.4-4.4,0.4-4.2,2.5c0.2,2,2.8,1.8,4.6,2c2,0.2,4,0,6,0.1c5.3,0.3,10.6-0.8,15.9-0.4
	c2.5,0.3,4.9,0.4,7.4,0.1c1.9,0.4,4.9-2.1,5.6,1.7c0.8,4.3-2.4,8-7.1,8.4c-6.5-0.5-13.1,1-19.6-0.7c-2.3-0.4-4.6-0.6-6.9,0
	c-1,0.2-2.1,0.6-2.2,1.7c0,1,1.1,1.6,2,2c2.9,1.2,6.1,1.4,9.2,2c3.5,0.1,6.6,1.8,10,2c2.5,0.8,5.3,0.2,7.6,1.9
	c0.7,8.2-2.6,11.8-8.8,9.5c-1.2-0.2-2.3-0.6-3.5-1.1c-4.8-1.3-9.6-2.6-14.6-3.1c-0.6,0.1-1.2,0.2-1.7,0.4c0.6,0.3,1.3,0.6,1.9,0.9
	c-1,0.5-2.5-0.4-3.1,1.1c0,0-0.1,0-0.1,0c2.2,4.2,7.2,4.4,10.6,6.9c2.2,1,4.3,2,6.4,3.2c2.5,1.1,3.9,2.4,1.7,5.2
	c-12.3,14.7-26.5,26.6-45.8,30.7c-5.3,1.1-10.8,1.5-16.2-0.3c-3.3-1.2-6.4-2.7-9.4-4.5c-22.2-12.7-45.1-14.2-68.9-5
	c-7.1,2.8-13.3,7.5-20.9,9.3c-5,1.8-10.2,1.5-15.2,0.4c-19.3-4.1-33.9-15.3-45.8-30.6c-2.2-2.8-0.7-4.1,1.8-5.2
	c1.9-1.1,3.7-2,5.7-2.9c4.2-1.8,7.9-4.6,12.1-6.4c0.6-0.3,1.2-0.5,1.8-0.8c1.1-0.7,2.7-1.2,2.2-2.8c-0.5-1.5-2.1-1.3-3.4-1.2
	c-0.7,0-1.3,0.2-1.9,0.4c-5,1.8-10.2,2.7-15.2,4.4c-2.5,0.9-5,2-7.5,3c-2.2,1.1-3.7,0.5-4.8-1.7c-0.9-1.8-1.6-3.6-2.2-5.5
	c-1.6-4.8-1.6-4.8,3.7-5.7c1.5-0.3,3.1-0.5,4.6-0.9c5.4-0.9,10.8-1.7,16.1-2.9c1.8-0.4,4.7-0.5,4.5-2.9c-0.2-1.9-2.9-1.9-4.7-1.9
	c-5.8-0.1-11.6-0.4-17.4,0.2c-2.1,0.3-4.1,0.7-6.2,0.9c-0.8,0.1-1.6,0.2-2.5,0.1c-3.1-0.1-6-4.4-5.4-8.9c0.5-4.1,3.6-0.9,5.4-1.4
	c2.2,0.2,4.4,0.4,6.5,0.1c4.6-0.6,9.2-0.6,13.9,0c4.1,0.6,8.3,0.4,12.5,0.1c1.6-0.1,3.8-0.1,4-2.1c0.1-1.7-2-1.9-3.4-2.3
	c-0.8-0.3-1.6-0.4-2.4-0.5c-7.9-1.2-15.7-3-23.6-3.7c-3.6-0.6-7.2-0.5-10.7-1.2c-4.1,0.3-5.8-1.9-6.7-5.7c-1.8-8-4.6-15.7-9-22.6
	c-6.8-10.8-13.9-21.5-20.8-32.3c-15.8-24.8-28.6-50.8-32.1-80.4c-0.7-1.9-0.6-3.9-0.6-5.9c0.1-11.1,0.2-22.3,1-33.4
	c0.6-8.2-0.3-16.5,0-24.9c0.5-14.7,1.9-29.3,4.7-43.7c5.9-29.9,17.8-57.1,36.1-81.5c4.9-6.5,10.8-12.2,15.2-19.1
	c0.3-1.6-0.4-2.9-1.2-4.2c-8.6-13.2-18.6-25.1-32.5-33.1c-3.9-1.7-7.8-2.4-12.1-1.5c-7.5,1.6-12.3,6.1-15.7,12.7
	c-9.2,18.2-12.4,38.1-16.3,57.8c-1.4,8.9-2.7,17.8-4.1,26.7c-4.1,26.8-8.2,53.7-15.6,79.9c-2.5,9-5,18.1-9,27.7
	c-2.2-11.3-5.2-21.3-9.7-30.8c-0.9-2-1.8-5.3-4.6-4.2c-2.8,1-0.3,3.7-0.4,5.5c-0.7-2.7-1.9-5.4-3.8-7.7c-0.8-1-1.8-2.3-3.3-1.5
	c-1.2,0.7-0.8,2.1-0.5,3.2c1.7,6.5,4,12.8,6.8,18.1c-3.3-5.7-8.6-10.8-13.3-16.4c-0.4-0.6-0.9-1.2-1.4-1.7
	c-6.9-6.6-12.1-14.5-17.5-22.3c-6-8.7-13.1-16.7-18.5-25.9c-3.5-5.8-7-11.7-9-18.3c-0.4-1.2-0.8-3-2.3-2.9c-1.5,0.1-1.6,1.9-1.8,3.2
	c-0.3,2.9,0.7,5.7,1.3,8.4c1.2,2.5,1.8,5.3,3.1,7.8c-0.9-1.7-1.6-3.5-2.1-5.4c-2.7-5.8-3-12.2-4.7-18.2c-1.1-2.4-0.5-4.9-0.9-7.3
	c-0.5-2.7-2.1-3.7-4-1.6c-2.8,3.1-7.2,4.1-9.3,9c-1.9-5.8-1.8-10.6-0.7-15.5c1.6-6.9,4.4-13.1,8.8-18.7c1.6-2.1,4.3-4.6,1.9-7.9
	c-6.8,4.1-10.6,10.5-12.8,17.8c-3.5,11.9-3.2,24.1-0.6,36.1c4.2,18.7,15.3,33.4,28.2,46.9c12.3,12.9,25.4,25,36.8,38.7
	c9.1,10.8,16.7,22.4,20.8,36.1c2,6.7,2.7,13.5,3.6,21c17.8-15.2,26.1-35.2,32.7-56.2c10.8,5,10.8,5,10,16.4c-0.1,1.3-0.3,2.6-0.4,4
	c-3.6,30.9,0.7,60.3,14.3,88.5c8.9,18.4,19.7,35.5,31.8,51.8c1.1,1.4,2.5,2.4,1.3,4.7c-3.6,6.9-7,14-10.2,21.1
	c-1,2.2-2.2,2.7-4.6,2.1c-9.4-2.1-18.8-3.8-28.3-5.7c8.1,4.7,16.5,8.7,25.3,11.5c1.9,0.6,3.2,0.9,1.8,3.6c-3.8,7.2-7.3,14.6-10.6,22
	c-1.3,2.8-3.2,3.7-6.1,4.1c-15.5,2-30.9,4.2-46.4,6.3c16,1.1,31.9,1.1,48.2,0.5c-0.5,1.3-0.8,2.3-1.2,3.1
	c-12.6,27.5-22.6,55.8-26.9,85.9c-0.4,2.8-4.1-0.2-4,2.3c0.1,4,1.4,8.3,6.2,9.6c59.1,16.7,118,30.1,179,34
	c58.2,3.7,115.4-5.8,173.6-9.9c58.8-4.1,111.5-36.5,96.3-33.3c-2.5-16.3-6.8-31.7-11.5-47c-4.7-15.2-11.4-29.6-17.8-44.7h48.1
	c-16.2-2-32.1-5.9-48.4-6.7c-2.2-0.1-3.2-1.1-4-2.9c-3.2-7.3-6.4-14.7-10-21.8c-1.9-3.7-0.6-4.7,2.8-5.8c8.5-2.6,16.8-6,24.7-10.3
	c-9.7,1.6-19.3,3.3-28.9,5.3c-1.9,0.4-3,0.5-4-1.5c-3.2-6.8-6.6-13.5-9.9-20.2c-1.4-2.8-1-5,1.2-7.6c8.9-10.8,16.6-22.4,23.5-34.6
	c19.2-34.2,28-70.4,21-109.4c-1.1-6.2-1-10.5,5.9-12.2c0.6-0.2,1.2-0.7,1.7-1.1c1.9-1.6,2.9-2.3,3.8,1.1c1.4,5.4,3.6,10.7,5.6,16
	c5.6,14.3,13.8,26.8,26.1,37.3c1.8-26.8,15.4-47.2,32.6-65.6c8.6-9.2,17.6-18.2,26.5-27.2c16.1-16.3,29.4-34.1,31.4-58
	C731.4,211,730.2,197.4,722.9,185z M63.1,245.5c0.2,0.4,0.5,0.7,0.7,1.1c0.2,0.3,0.3,0.5,0.5,0.8C63.9,246.7,63.5,246.1,63.1,245.5z
	 M65.5,249.2c1.7,2.8,3.4,5.4,4.8,7.6C68.8,254.6,67.1,252,65.5,249.2z M696.8,258.7c2.8-3.8,5.1-7.9,7.5-12
	C702,250.8,699.5,254.9,696.8,258.7z M704.9,245.6c0.3-0.5,0.5-0.9,0.8-1.4c0.4-0.9,0.8-1.7,1.2-2.6
	C706.4,243.1,705.9,244.5,704.9,245.6z"/>
<path class="st2" d="M722.9,185c-0.3,4.5,2.5,8.1,3.8,12.2c1.4,4.3,0.2,8.2-0.1,12.2c-0.2,2.2-1.6,1.7-2.8,1.1
	c-2.9-1.5-4.2-0.2-4,2.6c0.6,8.2-2.6,15.6-4.5,23.3c-0.6,2.4-0.9,5.8-3.5,6c-3.2,0.2,0.3-3.8-2-5c-1.3-2.4-0.8-4.5,1.3-6.2
	c1.2,0,1,0.9,1.2,1.7c0-0.5,0-1.1-0.1-1.6c-0.1-2.1,0.3-4.2-0.5-6.2c-1.1-5.4,0.6-10.8-0.1-16.4c-1.1-9-5.4-15.3-13.1-19.4
	c-19.8-10.3-39.3-21.2-58.5-32.5c-15.1-8.9-29.8-18.4-43.5-29.2c-4.2-3.3-8.5-6.4-13-9.4c-12.8-8.6-25.7-8.7-38.2,0.2
	c-10.2,7.2-19.9,15.1-27.3,25.4c-1.9,2.7-3.9,3.9-7,1.5c-14.7-11.5-31.9-17.9-49.7-22.5c-21.5-5.6-43.2-9.2-65.5-9.9
	c-43.8-1.4-85.9,5.7-125.8,24.3c-4.5,2.1-9,4.3-13,7.4c-2.7,2-4.6,1.8-6.8-0.8c-7.8-9.2-16.6-17.2-26.2-24.5
	c-11.9-9.2-26.1-10.1-38.6-1.9c-15.5,10.1-29.7,22-45.4,31.9c-17.6,11.1-35.5,21.7-54,31.4c-2.1,1.1-4.1,2.3-6.4,2.6
	c-8,1.1-14.5,5.2-20.7,10c-2.2,1.7-0.5,3.6-0.4,5.5c-1.3,6.1-2.3,12.2-2.1,18.4c0.1,1.6-0.1,3.3-1.7,4.4c-1.9-2.8,0-6.2-2-10.7
	c-0.8,6.8-9.4,5.4-9,12.3c0,0.3-0.6,0.9-1,0.9c-1.3-0.1-2.1-1-2.5-2.1c-2-5.5-1.7-11-0.6-16.6c1.7-8.5,6.5-15.3,11.2-22.2
	c0.8-1.2,1-2.4,0.9-3.8c0.7-1,1.7-1.7,3-1.9c2.8,0.8,5.6,1,8-1.1c4.8-4.2,10.1-7.5,15.9-10.2c0.6-0.3,1-0.8,1-1.6
	c13.8-8,28.1-15.1,41.6-23.7c17.3-11,33.5-23.5,49.9-35.8c18-13.5,44.3-16.6,65.5,1.2c5.7,4.8,11.5,9.6,16.6,15.1
	c2.3,2.4,4,2.6,6.9,1.2c42.8-20.9,88.3-29.5,135.6-27.8c39.8,1.4,78.2,9.5,114.1,27.7c2.2,1.1,3.4,0.8,5.1-0.9
	c5.5-5.5,11.2-11,17.5-15.6c21.3-15.7,41.8-16.1,63.6-0.6c16.5,11.8,32.5,24.3,50,34.8c20.4,12.3,41.1,24,62.8,33.9
	C714.2,176.4,719.6,179.4,722.9,185z"/>
<path class="st1" d="M79.7,164.4c2.1,0.4,1.7,1.3,0.2,1.9c-6.5,2.9-11.9,7.6-17.5,11.8c-2.5,1.9-5.5,2.4-7.7-0.9
	C62.4,171.7,71.5,168.9,79.7,164.4z"/>
<path class="st0" d="M445.7,502.2c-1.5-4.1-2.6-8.7-7.3-10.7c-0.2,0.3-0.3,0.7-0.4,1c2.2,1.5,3.5,3.6,4.6,6
	c8.5,19.3,7.1,37.9-4,55.7c-1.9,3.1-4.6,5.7-5.3,9.5c0.1,0.2,0.2,0.3,0.3,0.4c0.3-0.4,0.5-0.8,0.8-1.1
	C448.7,544.8,454.1,524.7,445.7,502.2z M325.4,500.6c1.3-2.9,2.3-6,5-8c-0.1-0.3-0.2-0.7-0.5-1c-1.5,0.5-2.4,1.7-3.2,3
	c-9.6,17-10.5,34.5-2.9,52.4c3,7.1,7.8,13,12,19.4c-2.4,2.1-3.4-0.9-5-1.5c-4.2-1.7-7.8-6.1-12.9-2.8c-2.2,1.4-4.1,1.8-5.5-0.3
	c-2.5-3.7-5.7-5.8-10.2-5.9c-0.8,0-1-0.3-1.2-1.1c-0.4-2.5-2.3-2.7-4.4-2.8c-1.7-0.1-3.7,0.1-5-1.5c-0.3,0.5-0.3,1.2,0.1,1.3
	c4.1,1.5,8.1,2.8,11.3,6c0.3,0.3,0.9,0.4,1.4,0.3c2.5-0.5,3.7,0.9,5.1,2.8c2.2,3,5,5.3,9.2,2.4c2-1.4,4.5-0.8,6.6,0.4
	c2.3,1.2,4.6,2.6,7,3.8c1.4,0.7,2.9,1.2,3.6-0.2c0.1-0.1,0.1-0.3,0.2-0.5v0c0.1-0.2,0.1-0.5,0.2-0.8c-0.5-3.3-3-5.5-4.7-8.1
	C319.8,539.7,316.5,520.8,325.4,500.6z M275.9,552.5c-1.5-4.9-4.2-9.1-7.2-13.2C269.5,544.6,271.9,549,275.9,552.5z M268.1,456
	c-3.2,3.9-6,7.7-7.3,12.4c0,0,0,0,0,0c0,0,0,0,0,0c-3.5,0.3-3.6-2.6-3.8-4.7c-0.6-5.6-2.6-10.9-4.1-16.2c-0.3,0-0.5,0-0.8,0
	c-0.1,0.2-0.1,0.5-0.1,0.7c0.8,5.9,2.9,11.4,3.9,17.2c0.4,2.3,1.7,4.4,4.8,3.5c2.9-2,3.3-5.6,5.5-8.3c-3.3,8.7-5.5,23.3-4.8,32.3
	c0.2,1.9-0.2,4.6,2.5,4.7c2.4,0.2,3-2.3,3.5-4.2c1.3-5.6,3.7-10.7,5.9-16.2c-4.3,11.7-6.1,23.7-7.1,35.9c-0.1,1.2-0.2,2.3,0.7,3.3
	c1.4-8.7,2.4-17.4,4.1-26c1.4-6.8,3.6-13.4,5.4-20.1c-5.8,8.1-9.2,17.2-12.3,26.5C261.4,482.7,264.7,469.4,268.1,456z M267.8,534.4
	c-1.2-3.9-0.2-8.2-2-11.9C264.7,526.7,264.5,530.8,267.8,534.4z M252.5,446.2c-0.2,0.4-0.4,0.8-0.5,1.2c0-0.1,0.1-0.1,0.1-0.2
	C252.4,446.8,252.5,446.5,252.5,446.2z"/>
<path class="st3" d="M495.5,477.3c0,0.1,0.1,0.2,0.1,0.3c-0.2-0.5-0.4-0.6-0.5-0.6c0,0,0.1,0,0.1-0.1
	C495.3,476.9,495.4,477,495.5,477.3z"/>
<path class="st3" d="M520,144.7c-0.2,0.2-0.3,0.4-0.5,0.6C519.7,145.1,519.8,144.8,520,144.7z"/>
<path class="st0" d="M447.3,257c0,1.4-0.2,2.9-0.3,4.2C447,259.8,447.1,258.4,447.3,257z"/>
<path class="st0" d="M536.8,202c-0.4-1.7-0.9-3.3-1.3-5C536,198.6,536.7,200.2,536.8,202z"/>
<path class="st0" d="M252.1,447.4c0-0.1,0.1-0.1,0.1-0.2c0.2-0.3,0.3-0.7,0.3-1C252.3,446.5,252.2,446.9,252.1,447.4z M263.9,496.9
	c-2.5-14.1,0.8-27.5,4.1-40.9c-3.2,3.9-6,7.7-7.3,12.4c0,0,0,0,0,0c0,0,0,0,0,0c-3.5,0.3-3.6-2.6-3.8-4.7
	c-0.6-5.6-2.6-10.9-4.1-16.2c-0.3,0-0.5,0-0.8,0c-0.1,0.2-0.1,0.5-0.1,0.7c0.8,5.9,2.9,11.4,3.9,17.2c0.4,2.3,1.7,4.4,4.8,3.5
	c2.9-2,3.3-5.6,5.5-8.3c-3.3,8.7-5.5,23.3-4.8,32.3c0.2,1.9-0.2,4.6,2.5,4.7c2.4,0.2,3-2.3,3.5-4.2c1.3-5.6,3.7-10.7,5.9-16.2
	c-4.3,11.7-6.1,23.7-7.1,35.9c-0.1,1.2-0.2,2.3,0.7,3.3c1.4-8.7,2.4-17.4,4.1-26c1.4-6.8,3.6-13.4,5.4-20.1
	C270.5,478.5,267,487.6,263.9,496.9z"/>
<path class="st4" d="M206.7,345.4c-0.4-0.2-0.3-0.9-0.2-1.3C206.6,344.5,206.7,344.9,206.7,345.4z"/>
<path class="st4" d="M233.2,192.9c-0.4,1.4-0.8,2.7-1.2,4.1C232.3,195.6,232.7,194.2,233.2,192.9z"/>
<path class="st4" d="M309.2,243.8c-0.1,0.2-0.2,0.5-0.2,0.7c-0.1,0.2-0.1,0,0.1-0.5C309.1,244,309.1,243.9,309.2,243.8z"/>
<path class="st4" d="M321.3,267.2c-0.1-2.3,0-5.4,0-8.8C321.5,261.5,321.5,264.5,321.3,267.2z"/>
<path class="st5" d="M673.7,224.6c0.4-0.8,0.8-1.6,1.2-2.4c-0.3,1.4-0.7,2.8-1.1,4.2c-1.6,5.4-1.1,11.6-5.6,16.7
	c0-5.6,2.6-10.6,0.4-16.7c1.7,0.2,2.1,1.8,2.4,3.3c0.5,2.9-0.9,5.5-0.9,7.8c1.3-3.3,0.8-7.6,2.7-11.3
	C673,225.8,673.4,225.2,673.7,224.6z"/>
<path class="st5" d="M689.2,220.8c-0.5-1.3-0.7-2.6-0.8-3.9C688.8,218.1,688.7,219.4,689.2,220.8z"/>
<path class="st6" d="M480.7,636.2c-0.5,0.8-2.2-0.5-2.3,1.2c-1.5-0.7-0.3-2-0.7-3l0,0c0.8-0.3,1.3-2.1,2.6-0.3
	C480.9,634.8,481.2,635.4,480.7,636.2z"/>
<polygon class="st6" points="496.7,627.4 496.7,627.4 496.7,627.4 "/>
<path class="st6" d="M523.5,604.8c-3.9,11.5-10.4,21.8-15.9,32.5c-4,5.7-8.1,11.2-13.1,15.9c-1.3-3.2,1.5-4.8,2.9-6.7
	c2.7-3.5,5.3-7,7.3-11c10.1-13.7,16.9-29,22.5-45C527.6,595.7,525.1,600.1,523.5,604.8z"/>
<path class="st7" d="M477.9,669.5c-0.5,0.2-1,0.3-1.5,0.4C476.9,669.7,477.4,669.6,477.9,669.5z"/>
<path class="st8" d="M539.6,553.6c-0.9,7-1.4,14-2,21c-1.3-1.2-1.8-2.8-1.5-4.5c1-6.7,0.8-13.5,2.1-20.2c0.4-1.9,0.3-4.5,3.3-3.8
	c0.1,0,0.3,0.1,0.4,0.1C538,547.7,539.9,551.1,539.6,553.6z"/>
<path class="st8" d="M551.4,586.7c-1-0.7-2.1-1.3-3.1-2C549.4,585.3,550.4,586,551.4,586.7z"/>
<path class="st8" d="M557.1,590c0,0-0.1,0.1-0.1,0.2c0,0.1-0.2,0.1-0.5-0.1c-0.1-0.1-0.2-0.1-0.3-0.2C556.8,590.1,557,590,557.1,590
	z"/>
<path class="st8" d="M217,587.5c3.3-1.6,6.1-4.2,9.7-5.2c3.1,0.6,2.3,3.2,2.4,5.1c0.9,10.5-0.2,21.1,1.4,31.7
	c0.7,4.7,0.6,9.5,1.5,14.2c0.3,3.8,1.5,7.7-1.3,11.2c-3.6,0.7-3.5-2.4-4.1-4.3c-3.4-10.5-5.8-21.2-6.5-32.3c0-0.7-0.2-1.1-0.1-0.5
	c0,0,0,0.1,0,0.2c0.3,1.2,0.3,2.4-0.3,3.4c-0.4,0.7-0.7,1.6-1.8,1.2c-0.9-0.4-1-1.3-0.9-2.1c-0.6,10.5-2,21-1.8,31.6
	c0,1.4-0.1,3.3-2,3.5c-1.5,0.2-2.1-1.4-2.7-2.6c-0.7-1.3-1.1-2.8-1.6-4.2c-2.9-10.9-6.8-21.5-10.4-32.2c-1.3-3.8-0.3-7.6-0.4-11.1
	c-0.2,0.3-0.1,0.9-0.2,1.4c-1.8,7.8-5.1,15.1-6.2,23.1c-2.1,8.2-2.5,16.6-3.3,25c-0.3,2.7-0.2,6.2-4.7,4.7c-0.3,0-0.7,0-1-0.1
	c-7-1.8-6.8-1.8-5.8-8.7c4.6-31.7,16.2-60.9,30.1-89.5c1.4-2.9,3-4.2,6.4-4c4.5,0.2,8.9-0.6,13.4-0.9c4.3,2.4,3.3,7,3.8,10.7
	c0.9,5.7,3,11.6,0.2,17.4c-4.5,4.7-10.1,7.9-15.1,11.9c-0.4,1.6-1.7,2.2-2.3,2.6C214,588.3,215.5,587.9,217,587.5z"/>
<path class="st6" d="M281.7,661.5c-5.5-4.2-10.7-8.7-15.1-14c-1.3-1.6-2.8-3.2-2.8-5.6c-4.7-7.8-9.4-15.7-14.1-23.5
	c-2.9-8.1-5.7-16.2-8.6-24.2c0.4-0.1,0.7-0.3,1.1-0.5c2.6,5.4,5.1,10.9,7.9,16.2c2.8,5.2,4.4,11.1,8.6,15.5c2.4,6.8,7.3,12,11.1,18
	c1.3,3,4.7,5.1,4,9c1.2,2.2,3.5,3.3,5.2,5C280.1,658.5,282.7,658.9,281.7,661.5z"/>
<path class="st6" d="M303.8,670.8c-0.4,0-0.8-0.1-1.2-0.4C303,670.6,303.4,670.7,303.8,670.8z"/>
<path class="st9" d="M288.3,668.8c-0.6,0-1.1-0.1-1.7-0.4C287.1,668.6,287.7,668.7,288.3,668.8z"/>
<path class="st8" d="M338.6,607.2c12.3-2.9,24.1-7.5,36.8-8.8c12.8-1.3,25.2,0,37.4,4.1c7.6,2.5,15.4,4.2,23.2,5.7
	c-2.9,2.4-6.6,2.2-9.9,2.8c-15.2,2.6-30.4,5.9-46,5c-12.1-0.7-24.2-1.8-35.9-5.7C342.1,609.6,339.9,609.2,338.6,607.2z"/>
<path class="st10" d="M315.2,659.1c-0.2,0.4-0.5,0.7-0.8,1.1c0.1-0.2,0.3-0.5,0.5-0.8C315.1,659.3,315.2,659.2,315.2,659.1z"/>
<path class="st8" d="M338.6,607.2c8.3,2.1,16.5,4.3,25,5.6c15.8,2.4,31.3,1.5,46.9-0.8c8.5-1.3,16.7-3.7,25.4-3.8
	c3.1,0.8,0.5,1.1-0.1,1.4c-12.7,6.9-26.5,10-40.6,11.1c-20.9,1.6-41.3-0.6-60.2-10.7c-0.7-0.4-1.4-0.8-2.1-1.2
	c-0.1-0.1-0.1-0.3-0.5-1C334.5,607.6,336.5,607.4,338.6,607.2z"/>
<path class="st0" d="M251.7,156.5c-0.4-1.4-2-2.2-2-3.9C251.1,153.5,252.4,154.5,251.7,156.5z"/>
<path class="st0" d="M557.2,356.1c0.1-5.3-0.3-10.5-1.9-15.6c-0.2,6.6-2.5,12.5-5.8,17.9c-4.4,7.5-7.2,15.2-7,24
	c0.1,3.7-2.1,6.6-4.1,9.4c-0.9,1.2-1.5,0.9-1.8-0.5c-3.6-0.4-5.5,2.6-8.1,4.1c-6.4,3.5-12.8,6.3-20.3,4.2c-4.9-1.4-5.6-3.2-3.7-8.1
	c-1.8-2.3-3.4-4.9-6.4-5.8c-2-0.7-5.8,0.2-5.5-2.7c0.4-3.3,4.2-0.5,6.2-1.8c24.4-0.1,42.3-12.4,45.1-31.1
	c-11.1,13.8-13.5,15.6-27.9,21.4c-10.9,1.6-21.8,1.2-32.7,0c-4.8-0.8-8.8-3.3-12.7-6c-0.9-0.6-1.8-2.3-2.9-0.2
	c-5.7-2.6-9.3-7.4-12.3-12.6c-1.5-2.6-3-4.9-5.6-6.4c0.1,1.1,0.1,2.3,0.4,3.4c3.9,16.4,10.8,31.4,21.6,44.5
	c3.6,4.7,7.3,9.4,10.9,14.2c5.9-2,6.1-2.4,1.6-6.8c-3-2.9-5.8-5.9-6.6-10.2c3,2.4,6,4.7,8.9,7.1c0.1,0.5,0.3,1,0.6,1.3
	c9,8.2,28.2,11,39,5.6c1.6-0.8,3.3-1.7,3.5-3.8c0.9-1.8,2.8-3.3,4.2-3.2c4.6,0.5,7.1-2.4,9.2-5.2c7.1-9.5,12.7-19.8,14.3-31.9
	C556.1,359.7,557.2,357.9,557.2,356.1z M530.4,403.1c-10.5,10-22.3,8.8-34.6,4.2c-0.1,0.4-0.4,1.1-0.2,1.2c8.7,6.5,27.3,4.8,34.5-3
	C530.9,404.8,531.7,404,530.4,403.1z M233.9,397.4c-0.3,0.1-0.6,0.1-0.9,0.2c0.2,0.9,0.3,1.9,0.8,2.7
	C234.1,399.3,235.2,398.4,233.9,397.4z M221.4,382c0.1-0.2,0.2-0.4,0.3-0.6C221.6,381.6,221.5,381.8,221.4,382z"/>
<path class="st0" d="M540.3,251.7C540.3,251.6,540.3,251.6,540.3,251.7c-1.6,0.5-3-0.4-4.3-1.2c-21.8-12.6-43.4-25.3-63.2-41
	c-3.1-2.5-6-5.3-9.2-7.7c-2.2-1.7-4.5-3-7.3-1.7c-3.1,1.5-3.8,4.2-4.3,7.4c-0.6,3.8,5.2,10,6.2,10.7c24.7,18.3,54.3,25.4,82.4,35.9
	c1.4,0.5,2.7,1.2,3.8,1.5C542.9,254.8,540.9,254.1,540.3,251.7z M540.4,251.3c0,0.1,0,0.2-0.1,0.3c0.1,0,0.2-0.1,0.3-0.1
	L540.4,251.3z M438.9,497.4c-0.4-1.6-1.2-3.1-0.8-4.8c-0.1-0.1-0.2-0.1-0.3-0.2c-16.1-21.6-39.1-23.5-63.2-22
	c-6.3,0.4-12.5,1.9-18.6,3.6c-9.7,2.7-17.5,7.9-23.3,16.1c-0.6,0.8-1.2,1.6-2,2.2c-0.1,0.1-0.2,0.1-0.3,0.2c0.4,1.4-0.3,2.8-0.7,4.2
	c-7.9,25.1,2.2,48.1,22,61.1c18.5,12.1,38.7,12.2,58.6,3c20.6-9.5,29.5-26.9,30.7-48.8C441.4,507.1,440,502.2,438.9,497.4z
	 M312.6,200.9c-3.2-1.9-6.1-0.4-8.6,1.8c-8.6,7.9-17.8,15-27.5,21.6c-14.1,9.5-29.4,17-44,25.8c-1.3,0.8-2.7,1.3-4.3,1.2
	c-0.1,0-0.1,0-0.2,0c-1.1,1-2.2,1.7-3.3,2.3c-0.2,0.5-0.5,1-1,1.7c21.2-6.9,41.8-13.9,62.1-21.8c7.4-2.9,14.3-7,20.6-11.9
	c1.8-1.4,3.6-3.5,6.1-2.2c-0.5-1.8,0.7-3.1,1.5-4.5c0.9-1.6,1.7-3.3,1.9-5.1C316.5,206.1,315.9,202.8,312.6,200.9z M540.3,251.7
	C540.3,251.6,540.3,251.6,540.3,251.7c-1.6,0.5-3-0.4-4.3-1.2c-21.8-12.6-43.4-25.3-63.2-41c-3.1-2.5-6-5.3-9.2-7.7
	c-2.2-1.7-4.5-3-7.3-1.7c-3.1,1.5-3.8,4.2-4.3,7.4c-0.6,3.8,5.2,10,6.2,10.7c24.7,18.3,54.3,25.4,82.4,35.9c1.4,0.5,2.7,1.2,3.8,1.5
	C542.9,254.8,540.9,254.1,540.3,251.7z M540.4,251.3c0,0.1,0,0.2-0.1,0.3c0.1,0,0.2-0.1,0.3-0.1L540.4,251.3z M438.9,497.4
	c-0.4-1.6-1.2-3.1-0.8-4.8c-0.1-0.1-0.2-0.1-0.3-0.2c-16.1-21.6-39.1-23.5-63.2-22c-6.3,0.4-12.5,1.9-18.6,3.6
	c-9.7,2.7-17.5,7.9-23.3,16.1c-0.6,0.8-1.2,1.6-2,2.2c-0.1,0.1-0.2,0.1-0.3,0.2c0.4,1.4-0.3,2.8-0.7,4.2c-7.9,25.1,2.2,48.1,22,61.1
	c18.5,12.1,38.7,12.2,58.6,3c20.6-9.5,29.5-26.9,30.7-48.8C441.4,507.1,440,502.2,438.9,497.4z M312.6,200.9
	c-3.2-1.9-6.1-0.4-8.6,1.8c-8.6,7.9-17.8,15-27.5,21.6c-14.1,9.5-29.4,17-44,25.8c-1.3,0.8-2.7,1.3-4.3,1.2c-0.1,0-0.1,0-0.2,0
	c-1.1,1-2.2,1.7-3.3,2.3c-0.2,0.5-0.5,1-1,1.7c21.2-6.9,41.8-13.9,62.1-21.8c7.4-2.9,14.3-7,20.6-11.9c1.8-1.4,3.6-3.5,6.1-2.2
	c-0.5-1.8,0.7-3.1,1.5-4.5c0.9-1.6,1.7-3.3,1.9-5.1C316.5,206.1,315.9,202.8,312.6,200.9z"/>
<path class="st0" d="M602.9,194.3c-1-0.3-2-0.6-3-0.9c-2.8-17.5-6.7-34.8-14.2-51.1c-2.1-4.6-4.7-8.8-8.9-11.8
	c-6-4.3-12.4-5.1-19.2-2.2c-2.5-0.6-0.7-1.9-0.5-2.9c0.4-1.4,2.2-2.7,0.3-4.2c8.2-3.5,14.9-0.3,21,4.8c4.8,4,8.5,9.1,10.7,14.8
	C596,158.1,600.3,176,602.9,194.3z"/>
<path class="st8" d="M227.8,659.4c0.6-0.6,3.1,0.6,1.9-1.6c-8.7-16.5-9.5-34.4-9.9-52.5c0.1-0.3,0.1-0.7,0.2-1
	c0.1-0.3,0.3-1.1,0.5-0.4c0.6,2.1,0.9,4.2,1.1,6.3c1.2,11.7,4.2,23,7.9,34.1c2,5.3,4.1,10.6,6.1,15.9
	C232.9,661.3,230.3,660.7,227.8,659.4z"/>
<path class="st8" d="M547.7,609.4c-0.5,10.9-0.8,21.8-3.3,32.5c-1.5,6.5-4.1,12.5-7.3,18.3c-2.3-0.5-4.1,1.3-6.3,1.2
	c4.2-5.3,6.3-11.6,8-18c5-11.9,6.5-24.5,7.3-37.4C548.3,606.9,547.2,608.4,547.7,609.4z"/>
<path class="st8" d="M224.7,519.5c0,6.3,0,12.6,0,18.9c-4,2-8.4,0.4-12.4,2.4c-0.2-0.3-0.5-0.7-0.7-1c3-6.4,5.9-12.7,8.8-19.1
	C221.5,518.5,223.2,519.4,224.7,519.5z"/>
<path class="st8" d="M540.5,538.7c2.9-1.4,3.2-3.8,3.3-6.8c0.2-4.2-2-8.8,1.9-12.5c0.6-0.1,1.4-0.5,1.7,0.3
	c2.9,6.6,5.7,13.3,8.9,20.7C550.5,539.8,545.5,539.2,540.5,538.7z"/>
<path class="st11" d="M106.9,295.6c-4.4-9.7-9.9-18.7-15.4-28.7c3,0.9,3.6,3.1,4.8,4.7c4.9,6.7,9.3,13.8,12.6,21.4
	c0.4,0.9,3.4,4-1.3,3.3C107.3,296.1,107.1,295.8,106.9,295.6z"/>
<g>
	<path class="st8" d="M496.7,627.4L496.7,627.4L496.7,627.4L496.7,627.4z M496.7,627.4L496.7,627.4L496.7,627.4L496.7,627.4z"/>
	<path class="st8" d="M470.8,610.1c0.5-0.2,1-0.4,1.5-0.5c1.5-0.5,2.8-1.2,4.1-1.9C474.6,608.5,472.7,609.3,470.8,610.1z
		 M430.8,673.7c10.1-0.3,20.1-0.8,30.1-2.2C459.6,671.6,445.7,672.8,430.8,673.7z"/>
	<path class="st8" d="M539.6,553.6c-0.9,7-1.4,14-2,21c-6.2-3.8-12.4-7.7-18.7-11.5c-1.5-0.9-1.5-1.9-0.7-3.3c0.8-1.4,1.4-3,2.3-4.4
		c2.2-3.5,2.3-9.5,5.7-10.5c4.7-1.4,10.2-0.2,15.3,1.2c0.1,0,0.3,0.1,0.4,0.1C538,547.7,539.9,551.1,539.6,553.6z"/>
	<path class="st8" d="M540.5,538.7c-13.2-0.8-12.9-0.7-8.9-13.1c1.5-4.6,4-5.8,8.1-5.8c2,0,4-0.3,5.9-0.4c0,4.7-0.4,9.4-0.5,14.2
		C545.2,536.6,543.7,538.5,540.5,538.7z"/>
	<path class="st8" d="M539,501.6c2,3.9,3.5,7,5.2,10.3c-2.7,0.5-5,0.9-7.6,1.4C536.3,509.4,537.1,506,539,501.6z"/>
</g>
<path class="st12" d="M544.7,581.3c6.1,2.6,10.8,7,15.2,12c-5.7-3.7-11.5-7.3-17.2-11C543.4,582,544,581.7,544.7,581.3z"/>
<path class="st8" d="M553.9,656.4c-0.5-0.1-1-0.1-1.4-0.2c-0.3-0.1-1.2-0.5-0.3-0.7c3.8-0.8,7.5-3.4,11.6-1
	C560.5,655.5,557.3,656.4,553.9,656.4z"/>
<path d="M479.9,549.3c-1,0.5-2.5-0.4-3.1,1.1c0,0-0.1,0-0.1,0c-2.9-0.4-5-2.9-7.9-3c-0.6-2.4,1.3-1.1,1.8-1.1
	c1.8,0.2,3.5,0.7,5.2,1.1c0.8,0.3,1.5,0.7,2.2,1C478.6,548.7,479.2,549,479.9,549.3z"/>
<path class="st1" d="M78.8,182.2c-3.4,2-6.8,4-10.3,5.9c-4.3,2.3-8.2,5-10.8,9.3c-2.7-0.9-2.3-2.9-0.9-4.2
	c6.1-5.6,13.3-9.3,21.2-11.5C78.2,181.7,78.5,182,78.8,182.2z"/>
<path class="st1" d="M55.8,184.6c-1.1,3.9-3,6-6,7.1C49.9,188.8,49.9,188.8,55.8,184.6z"/>
<path class="st1" d="M711.6,231.3c0.4-1.9,0.8-3.9,1.2-5.8c2.2,2.8-0.2,5.3-0.3,8C711.4,232.9,711.8,232,711.6,231.3z"/>
<path class="st1" d="M438.5,491.6c-5.1-8.1-12.1-14-21-17.5c-19.5-7.7-39.3-7.1-59.3-2.3c-12,2.8-21.6,9.2-28.2,19.8
	c-0.4,1.2-0.8,2.5-1.2,3.8c-9,24.4,0.6,46,16.8,60c20.1,17.3,51.4,17.6,74.1,2.2C437,545.7,449.2,517.3,438.5,491.6z M403,502
	c-2.5,1-5.1,1.7-7.8,1.8c-6.3,0.2-12.6,0.2-19,0c-2.7-0.1-5.3-0.8-7.8-1.7c-1.7-0.6-4-1.1-4-3.2c0-2.4,2.4-2.9,4.3-3.5
	c2.5-0.8,5.3-0.7,7.6-2.3c0.2-0.3,0.3-0.5,0.5-0.7c6.9,0,13.7,0,20.6,0c1,2.2,3.4,2.1,5.3,2.8c1.8,0.6,3.9,1.1,3.9,3.2
	C406.7,500.5,404.7,501.3,403,502z"/>
<path class="st1" d="M406.7,498.4c0.1,2.1-2,2.9-3.6,3.6c-2.5,1-5.1,1.7-7.8,1.8c-6.3,0.2-12.6,0.2-19,0c-2.7-0.1-5.3-0.8-7.8-1.7
	c-1.7-0.6-4-1.1-4-3.2c0-2.4,2.4-2.9,4.3-3.5c2.5-0.8,5.3-0.7,7.6-2.3c0.2-0.3,0.3-0.5,0.5-0.7c6.9,0,13.7,0,20.6,0
	c1,2.2,3.4,2.1,5.3,2.8C404.5,495.7,406.6,496.2,406.7,498.4z"/>
<path class="st4" d="M688.4,216.9c0.1,1.3,0.4,2.6,0.8,3.9C688.7,219.4,688.8,218.1,688.4,216.9z M688.4,216.9
	c0.1,1.3,0.4,2.6,0.8,3.9C688.7,219.4,688.8,218.1,688.4,216.9z"/>
<path class="st13" d="M689.2,220.8c-0.5-1.3-0.7-2.6-0.8-3.9C688.8,218.1,688.7,219.4,689.2,220.8z"/>
<g>
	<path class="st8" d="M99.5,278.3c-1.2-2.1-2.4-4-3.6-5.7C97.1,274.3,98.3,276.2,99.5,278.3z"/>
	<path class="st8" d="M95.9,272.6c1.2,1.7,2.4,3.6,3.6,5.7C98.3,276.2,97.1,274.3,95.9,272.6z M95.9,272.6c1.2,1.7,2.4,3.6,3.6,5.7
		C98.3,276.2,97.1,274.3,95.9,272.6z"/>
	<path class="st8" d="M137.3,334.5c10.6-20.8,26.6-94.1,30.3-138.1c-0.9-0.6-1.8-0.5-2.7,0.1c-3.4,15.6-6.8,31.2-10.2,46.8
		c-1.6-2.5-0.7-5.1-0.4-7.7c0.8-6.6,1.7-13.2,2.6-19.7c2.5-19.6,5-39.2,7.6-58.8c0.5-3.7,0.8-7.4,1.3-11.5
		c-13.3,6.3-24.8,13.8-33.3,25.9c-0.4-2.8,2.1-4.2,0.8-6.8c-6.1,6-12,12-17.2,20.3c0-5.3,3-8,3.8-12.2c-8.8,7.1-14.8,15.3-18.9,25
		c-1,2.4-1.5,5.1-4,6.7c0.8-7.2,2.7-14.2,4.9-21.8c-7.7,6.2-12.9,13.2-15.9,21.9c-1.2,2.7-2.5,5.4-4.2,9.2
		c0.3-9.4,2.3-17.3,6.2-24.7c-5.6,4.5-10.8,9.1-14.2,15.4c-1.6,3.2-3.3,6.4-3.9,10c0.5,3.2-0.5,6.2-1.4,9.1
		c-0.1-0.4-0.3-0.8-0.6-1.2c-1.7-7.8,0.8-14.9,3.5-21.9c-7.4,4.3-13.5,19.2-11.5,28.2c0.1-0.3,0.1-0.7,0.3-0.9
		c0.1-0.1,0.7,0.1,0.7,0.2c2.1,7.2,5.6,13.6,10,19.7c5.4,10.1,13.3,18.4,19.6,27.8c4.9,7.2,9.6,14.7,16.5,20.3
		c0.9-1.1,0.6-2.2,0-3.3c-2.5-4.8-4.9-9.7-7.3-13.8c2.7,4.5,5.5,9.8,8.2,15.1c0.4,0.7,1.7,2-0.3,2.7c5.7,7.2,11.5,14.4,17.2,21.6
		c-2.8-8.7-6.2-16.9-8.8-26.2c4.2,3.9,5.3,9,8.5,13.2c0.5-3.3-1.7-5.9-0.8-9.7C131.2,307.6,133.8,320.8,137.3,334.5z M95.9,272.6
		c1.2,1.6,2.4,3.6,3.6,5.7C98.3,276.2,97.1,274.3,95.9,272.6z"/>
</g>
<path class="st0" d="M251.7,156.5c-0.4-1.4-2-2.2-2-3.9C251.1,153.5,252.4,154.5,251.7,156.5z"/>
<path class="st8" d="M708.7,229.3c-0.2-12.3-4.7-22.7-14.2-30.7c-1.4-2.6-3.2-3.8-6-2c-1.8-1.5-3.2-3.5-6.1-4.7
	c1.6,4.2,3,7.9,4.4,11.5c0.2,3.2,0.5,6.4,0.9,11.1c-4.4-12.8-10.4-22.9-21.2-31.3c4,8.5,5.9,16.2,6.4,24.2c-0.2,1-0.3,1.9-0.5,3.2
	c-3.1-13.2-15-31.5-23.5-36.3c1.2,3.2,3.2,6,3.5,10.4c-5.6-6.9-9.8-13.7-16.7-19.5c0.7,3.1,1.2,5.2,1.7,7.3
	c-8.2-13.8-22.4-19.5-35.3-28c1.1,13.9,3.2,26.9,5.2,40c2,13.3,4.3,26.5,5.9,39.9c0.7,5.9,3,11.9,0.7,18c-3.6-16-7.3-32-10.9-48
	c-0.9-0.6-1.7-1.5-3-0.9c4.1,45.9,22,127.4,31,140.3c1.3-5.3,2.4-10.5,3.9-15.6c1.5-5.1,3.2-10.2,5.2-15.1c1.9-4.8,3.9-9.5,7.4-13.5
	c-1.3,4.3-3.8,8.3-2.6,13.3c1.9-4.2,3.9-8.5,5.8-12.7c-1.1,10-4.2,19.2-8.4,29.3c15.2-15.4,19.7-36.1,33-51.2
	c-4.1,9.4-8.8,18.4-13.9,27.3c1.5-1,2.7-2.1,3.7-3.4c7.2-9.5,14.5-19.1,21.6-28.7c4-5.5,8.7-10.5,11.1-17c4.1-5.5,7.6-11.3,9.6-18.8
	c0.2,2.5,0.3,4.2,0.4,5.8C708.9,232.3,708.7,230.7,708.7,229.3z M688.4,216.9c0.5,1.2,0.4,2.5,0.8,3.9
	C688.7,219.5,688.5,218.2,688.4,216.9z"/>
<path class="st8" d="M68.8,227.5c-1.4-1.5-0.5-3.5-1.1-5.2c0-2.8,0.8-5.5,2.1-8C73.4,219,68.9,223.1,68.8,227.5z"/>
<path class="st14" d="M454.8,217.4c-2.7-3.1-4.6-6.4-4.1-10.8c0.4-3.6,1.8-6.4,5-8c3.3-1.6,6.2-0.4,8.7,1.8
	c9,8.2,18.8,15.3,28.8,22.1c15.3,10.5,31.5,19.7,47.6,28.9c2.8,2,5.6,4.1,8.3,6.1C516.6,246.4,482.7,238.8,454.8,217.4z"/>
<path class="st15" d="M228.8,250.5c26-14.8,52.8-28.2,74.7-49.2c2.6-2.5,5.5-4,9-2.4c3.7,1.7,5,5,5.2,9c0.2,4.8-2.7,8.1-5.2,11.6
	c-5.1,1.8-8.6,6.1-13.2,8.8c-12.1,7.4-25.5,11.3-38.7,16c-13.3,4.7-26.5,9.8-40.3,13.2c0.3-2.2,2.8-2,3.3-3.6
	C224.7,251.5,226.8,251,228.8,250.5z"/>
<path class="st16" d="M523.5,604.8c-3.9,11.5-10.4,21.8-15.9,32.5c-4,5.7-8.1,11.2-13.1,15.9c-1.3-3.2,1.5-4.8,2.9-6.7
	c2.7-3.5,5.3-7,7.3-11c10.1-13.7,16.9-29,22.5-45C527.6,595.7,525.1,600.1,523.5,604.8z"/>
<g>
	<path class="st8" d="M470.8,610.1c0.5-0.2,1-0.4,1.5-0.5c1.5-0.5,2.8-1.2,4.1-1.9C474.6,608.5,472.7,609.3,470.8,610.1z"/>
	<path class="st8" d="M592,644c-4.8-33.2-16.9-63.9-31.6-93.7c-0.9-1.8-1.9-2.9-4.1-3c-4.8-0.2-9.6-0.7-14.4-1.1
		c-3.9,1.4-2,4.9-2.3,7.3c-0.9,7-1.4,14-2,21c2.1,2.5,4.4,4.9,7.1,6.7c1,1.3,2.2,2.3,3.5,3.3c-1.7-1-3.5-1.8-5.6-2.2
		c-0.3,0-0.6,0-1,0c-6.8-3.3-13.7-6.4-20.5-9.8c-7.8-3.9-7.7-4-12.6,2.9c-1.9,2.7-4,5.3-5.9,8c-3.4,3.2-6.7,6.5-10.1,9.8
		c-8.5,6.6-16.8,13.3-26.3,18.5c1.2-0.2,2.4-0.7,3.5-1.1c-83.8,34.8-165.5,1.8-165.5,1.8s0,0-0.1,0c-3.5-2-7-4-10.4-6l-13.7-10
		c-0.1,0-0.1-0.1-0.2-0.1v0c-0.8-0.5-1.5-1.1-2.3-1.6c-6.9-7.1-14.4-13.7-19.7-22.1c-2.6-4.2-5.1-4.2-8.4-1.3
		c-7.9,3.1-15.6,6.5-22.8,11.1c0.3,0.4,0.8,0.8,0.8,1.2c0.4,12.5-0.4,25,1.4,37.4c0.6,4.2,0.1,8.5,1.8,12.5
		c-0.5,3.7,1.3,7.6-1.2,11.1c-0.9,6.4,2.5,11.2,6.1,15.9c14.4,4,29.2,5.2,43.9,7c2.2,1.2,4.7,0.8,7,1c0.5,0.1,1.1,0.3,1.7,0.4
		c4.7,1.1,9.6,1.4,14.4,1.6c0.4,0.2,0.8,0.3,1.2,0.4c3.6,1.1,7.4,0.6,11.1,1c5.2,0.6,10.5,1.2,15.9,1.6c0.6,0.5,1.1,0.7,1.6,0.8
		c7.9,1.4,48.8,1.3,66.4,0c7.6,0.5,20,0.1,31.8-0.6h0.1c15-0.9,28.8-2.1,30.1-2.2c0.1,0,0.1,0,0.1,0c5.2-0.1,10.4-0.4,15.4-1.7
		c0.5-0.1,1-0.2,1.5-0.4c17.8-1.8,35.3-5.2,52.9-8.1c6.2-4.5,8.1-11,8.8-18.1c1.1-0.3,1.6-1.4,1.9-2.4c1.3-4.2,2.7-8.4,3.7-12.7
		c-1.3,10-3.3,19.9-8.5,29c-0.5,0.9-1.2,2.2,0.5,2.9c5.6-1.2,11.2-2.5,16.8-3.7c-0.2-0.2-0.5-0.5-0.6-0.7c0,0,0.1-0.1,0.1-0.1
		c3.5,0.2,6.8-2,10.4-1.2c3.9-0.4,7.7-1.3,11.3-2.9c2.7-0.3,5.3-0.9,7.8-2.1c2.6,0,4.8-1.3,7.2-1.8C592.4,647.2,592.3,645.9,592,644
		z M472.3,609.6c-0.5,0.2-1,0.3-1.5,0.5c1.9-0.8,3.8-1.6,5.6-2.5C475.1,608.4,473.8,609.1,472.3,609.6z M496.7,627.4L496.7,627.4
		L496.7,627.4L496.7,627.4z M546.3,617c0,0.1,0,0.1,0,0.2c0-0.6,0-1.2,0.1-1.8C546.4,615.9,546.4,616.5,546.3,617z M548.3,584.6
		c1.1,0.6,2.1,1.4,3.1,2C550.4,586,549.3,585.4,548.3,584.6z M555.7,589.5c-1.3-0.8-2.7-1.8-4.2-2.8c1.6,1,3.3,2,4.8,3.1
		C556.1,589.8,555.9,589.7,555.7,589.5z M557,590.1c0,0.1-0.2,0.1-0.5-0.1c-0.1-0.1-0.2-0.1-0.3-0.2c0.5,0.2,0.8,0.1,0.8,0.1
		C557.1,590,557,590,557,590.1z"/>
	<path class="st8" d="M230.7,574.3c-0.3-7.5-0.8-15-2.1-22.5c-0.4-2.1-2.5-3.4-1.9-5.6c4.6-0.6,9.1-1.2,13.7-1.8
		c1.8-0.3,2.6,0.6,3.2,2.2c1.7,4.1,3.6,8.2,5.7,12.1c1.3,2.3,1.1,3.6-1.3,5C242.1,567.1,236.5,570.8,230.7,574.3z"/>
	<path class="st8" d="M224.7,519.5c10.1-0.2,10.1-0.2,12.6,9.3c2.2,8.3,2.2,8.4-6.6,9.3c-2,0.2-4,0.2-5.9,0.2
		C221.9,532.1,222,525.8,224.7,519.5z"/>
	<path class="st8" d="M232.9,513.2c-9.6-1.4-9.9-2.5-3.5-10.9C230.6,505.9,231.6,509.2,232.9,513.2z"/>
</g>
<path class="st8" d="M227.8,659.4c-14-3-27.9-6-41.9-9.1c-0.8-0.2-1.5-0.6-2.2-0.9c3.1,0,3-2.1,3.2-4.4c0.6-9,0.8-18.1,4-26.7
	c1-9.5,5.1-18,8.2-28.4c1.3,6.1-0.8,10.8,0.8,15.4c3.1,9.2,6.1,18.4,9.1,27.7c0.4,1.4,0.7,2.9,1,4.3c1.1,2.3,2.1,4.7,3.2,7
	c0.4-13.2,1.2-26.2,4.6-39c0.1,1.9,0.3,3.9,0.4,6.1c1.5-2-0.2-4.6,1.8-6.1c1.7,4.6,1.3,9.5,1.8,14.2c1.3,12.3,3.4,24.3,8.5,35.7
	C230.9,657.2,232.9,660.4,227.8,659.4z"/>
<path class="st8" d="M273.8,652.4c-5.1-1.8-7.2-6.5-10-10.4c-4.7-7.8-9.4-15.7-14.1-23.5c-2.9-8.1-5.7-16.2-8.6-24.2
	c0.4-0.1,0.7-0.3,1.1-0.5c2.6,5.4,5.1,10.9,7.9,16.2c2.8,5.2,4.4,11.1,8.6,15.5c2.4,6.8,7.3,12,11.1,18
	C271.1,646.4,274.4,648.5,273.8,652.4z"/>
<path class="st8" d="M281.7,661.5c-5.5-4.2-10.7-8.7-15.1-14c-1.3-1.6-2.8-3.2-2.8-5.6c3.8,3,5.9,7.7,10,10.4c1.2,2.2,3.5,3.3,5.2,5
	C280.1,658.5,282.7,658.9,281.7,661.5z"/>
<polygon class="st7" points="496.7,627.4 496.7,627.4 496.7,627.4 "/>
<path class="st0" d="M233.7,400.3c-0.5-0.8-0.6-1.8-0.8-2.7c0.3,0,0.6-0.1,0.9-0.2C235.2,398.4,234.1,399.3,233.7,400.3z"/>
<path class="st0" d="M695.7,186c-23-11.3-45.1-24.3-67-37.7c-15.5-9.5-29.5-21.2-44.4-31.4c-12.7-8.7-26.2-9.2-38.7-0.6
	c-12,8.2-23.3,17.2-31.2,29.7c-7.2-6.2-15.2-10.8-23.7-14.6c-22.6-10.1-46.4-15.5-70.8-18.4c-48.5-5.7-95.7-0.4-141.1,18.4
	c-7.5,3.1-15.3,6.1-21.7,11.1c-3.6,2.7-4.6,2-7-1c-7-8.7-15.3-16.2-24.2-22.9c-15-11.2-28.3-12-43.6-1.2
	c-20.9,14.6-41.1,30.1-63.3,42.8c-13.2,7.6-26.3,15.6-40.2,22c-6.3,2.3-12.4,5-17.8,9.1c-1.9,1.5-3.9,3.2-3.4,6.1
	c-3.3,7.7-3.2,15.8-3,24c1.4,6.4,2,13,5.2,19c0.5,3.1,2.5,5.4,3.9,8c3.3,6.1,7.4,11.6,12.8,16c-3.9-6-7.8-12-11.7-18.1
	c-1.3-3-2.7-6-4-9c-0.4-3-0.8-5.9-1.2-8.9c1.3-8.9,3.5-17.4,8.3-24.2c-1,4-2.3,8.6-2.5,13.4c-0.1,1.8-0.9,4.6,2.6,4.7
	c1.9-2.2,1.6-5.1,2.8-7.5c1.3-3.4,2.3-6.8,4.1-9.9c2.8-4.9,6.6-8.9,10.1-12.3c-3,5-4,11.2-4.4,17.5c-0.1,1.2,0.1,2.9,1.7,3.2
	c1.1,0.2,1.6-1,2-1.9c1-2.1,1.7-4.3,2.8-6.4c2.8-7.4,6.9-13.9,12.1-18.7c-1.5,4.3-2.3,9.6-3.4,14.7c-0.3,1.3-0.2,2.7,1.2,3.6
	c2.7-0.2,3.6-2.3,4.3-4.3c3.4-8.8,8.4-16.6,15-23c-0.4,0.7-0.8,1.6-1,2.5c-0.4,1.5-1,3.3,0.5,4.1c1.9,1.1,2.9-0.9,3.8-2.2
	c3.5-4.8,7.3-9.3,11.6-13.4c0.8,3.6,1.3,3.9,3.6,1.6c3.1-3,6-6.2,9.1-9.2c5.6-5.3,12.2-8.8,19.8-12.8c-1.2,11.7-2.7,22.2-4,32.7
	c-2.3,18.6-4.8,37.3-7.2,55.9c-0.2,1.8-0.4,3.7,0.3,5.4c0.5,1.1,1.1,2.2,2.6,1c1.6-2,1.8-4.6,2.3-7c3-13,5.6-26.2,8.4-39.2v0
	c0.5,0,1-0.1,1.5-0.5c3.9-19.1,7-38.4,15.6-56.1c6-12.3,14.4-15.8,27.4-11.7c13.8,9,24.2,21.2,32.9,35c-8.9,9.1-16.7,19-23.5,29.6
	c-22.3,34.8-32.5,73.1-33.6,114.2c-0.3,10.1,0.9,20.3,0,30.3c-0.9,10-0.6,19.9-0.8,29.9c0,1.9-0.4,4,0.9,5.8
	c1.5,17.3,7.3,33.3,14.4,49c8.9,19.6,21.1,37.2,32.9,55.1c6.6,10.1,12.3,20.5,14.7,32.4c0.9,4.5,2.6,6.5,7.2,5.4
	c3.6,0.9,7.3,1.3,11,1.1c9.6,1.8,19.2,3.5,28.8,5.3c-2.1,0.5-4.2,0.5-6.3,0.5c-7.8,0.1-15.6-1.3-23.4,0.2c-2.3-0.7-4.7-0.3-7-0.2
	c-2.2-0.9-4.5-1-6.8-0.4c0.6,2.8,1.5,5.5,1.8,8.3c0.6,4.9,3,6.9,7.9,5c2.1,0.1,4.1,0,6.1-0.8h21.7c0,0.2,0,0.4,0,0.5
	c-6.9,1.5-13.9,2.9-20.8,4.4c-1.5-0.2-2.9-0.3-4,1c-7.2,0.2-7.2,0.2-4.6,7c0.9,2.3,2.3,4.4,3,6.8c1.2,4,3.2,3.3,5.7,1.4
	c2.4-1,4.8-1.9,7.1-2.9c6.7-1.8,13.4-3.5,20.2-5.3c0.1,0.2,0.1,0.5,0.2,0.7c-1.5,0.8-3.1,1.5-4.6,2.2c-4.2,1.7-8.1,3.9-11.8,6.4
	c-2,0.4-3.7,1.5-5.2,2.7c-2.1,0.6-4.3,1.3-6.1,3c2.5,3.1,4.6,6.1,7,8.8c11.9,13.3,25.6,23.5,43.6,26.9c4.8,0.9,9.8,1.5,14.6-0.6
	c5-0.3,9-3.2,13.2-5.3c24.5-12.6,49-13.3,73.6-0.6c4.3,2.2,8.2,5,13,6.1c5.2,1.8,10.5,1.4,15.6,0.3c19.7-4.1,34.6-15.6,46.9-31
	c4-5.1,4-5.1-2.3-7.5c-1.8-1.4-3.8-2.4-6-3c-3.7-2-7.3-4-11-6c-0.6-0.7-1.2-1.3-1.9-1.7c0.4,0,0.9,0,1.3-0.1c0.9,1,2.8-0.3,3.7,0.7
	c4.9,1.1,9.9,2.1,14.8,3.1c0.8,1.1,1.9,0.9,3.1,1c2.3,0.4,4.8,4.3,6.6,1.4c2.4-3.9,5.3-8,4.2-13.2c-2.7-1.7-5.9-1.2-8.9-1.9
	c-3.3-0.8-6.5-2-9.9-2c-3.5-1.4-7.5-0.8-11.5-3h8.3c7,1.8,14.1,0.1,21.2,0.7c3.5,0.9,5.6,0.1,5.9-4c0.1-1.8,0.8-3.6,1.5-5.2
	c1.5-3.4,0.3-4.5-3.1-4.2c-1.1,0.1-2.3,0.4-3.4,0.6c-2.7,0-5.3-0.1-8-0.1c-8.6-1.2-17.2,0.4-25.9-0.6c7.9-1.5,15.9-3,23.8-4.5
	c5.1-0.6,10.1-1.2,15.2-1.8c3.4,0.6,4.4-1,5.1-4.2c1.9-9.9,5.4-19.1,11-27.6c9.5-14.3,19.5-28.2,28-43.1
	c9.4-16.6,17.1-33.9,21.2-52.6c3.3-14.9,2.8-30.1,2.4-45.3c0.1-7.3-0.2-14.7,0.4-21.9c1.3-16.7-1.1-33.2-3.9-49.5
	c-4.4-25.8-12.7-50.2-26.8-72.5c-7.6-12-15.2-23.9-26.9-32.3c-2-1.5-1.2-2.7-0.2-4.2c5.1-7,10.3-14,16.3-20.2c1.9-2,3.9-3.9,6-5.7
	c0,0,0,0,0,0c3.4-2.9,7-5.5,11-7.8c0.1-1.7,1.3-3,1.6-4.6c0.1-0.6,0.2-1.2,0.1-1.7c-0.2,0-0.4,0.1-0.5,0.1c0.1-0.2,0.2-0.4,0.4-0.5
	c0.1,0.1,0.1,0.3,0.2,0.4c7.7-1.9,14.2,0.9,19.6,6.3c4.7,4.7,8.5,10.3,10.7,16.7c5.5,16.2,9.7,32.8,12.2,49.7
	c3,13.3,5.7,26.8,8.8,40.1c0.6,2.5,0.9,5.2,2.7,7.3c2,0.9,2.3-0.7,2.6-1.9c0.6-2.1,0.4-4.3,0.1-6.5c-1.9-14.8-4-29.7-6.4-44.5
	c-2.2-13.9-4.6-27.7-5.8-42.1c11.1,7.4,23.2,12.8,30.5,24.3c0.7,1.1,1.8,2.3,3.3,1.7c1.3-0.5,0.5-2.2,1.1-3.4
	c3.2,3.7,6,7.4,8.9,11.1c1.3,1.6,2.7,4.4,4.9,3.2c2.2-1.2,0.3-3.8-0.2-5.8c7.6,9.3,15.3,18.5,18.1,30.6c0.2,1.1,0.6,2.7,2.1,2.4
	c1.8-0.4,1.6-2.3,1.8-3.7c-0.4-6.8-1.5-13.4-4.2-19.4c3.2,3.3,6.5,6.7,9,10.9c2.3,4,4.8,8,6,12.6c0.3,1.2,0.8,3,2.4,2.7
	c1.8-0.3,1.7-2.2,1.6-3.7c-0.1-2.3-1-4.5-1-6.9c-0.7-3-1.8-5.9-3.1-9c1.1,1.3,2.1,2.1,3.5,2.5c2.3,0.1,4.5,0.5,5.8,2.7
	c9.6,9.2,14,20.4,13.7,33.6c-0.5,3.8-1.5,7.5-3.1,10.9c-4.6,7-9.1,14.1-13.7,21.1c6.2-5.5,11.4-11.7,14.6-19.3
	c1.4-2.9,2.8-5.9,4.2-8.8c0.6-2.1,1.2-4.1,1.9-6.2c1.2-1.8,1.8-3.7,1.1-5.8c0.2-3.3,0.3-6.6,0.5-10
	C714.1,201.7,708.5,192.3,695.7,186z M316.1,209.7c-0.2,1.8-1.1,3.5-1.9,5.1c-0.8,1.4-2,2.7-1.5,4.5c-2.6-1.4-4.4,0.8-6.1,2.2
	c-6.3,4.9-13.2,9-20.6,11.9c-20.3,7.9-41,15-62.1,21.8c0.5-0.6,0.8-1.2,1-1.7c1-0.5,2.1-1.3,3.3-2.3c0.1,0,0.1,0,0.2,0
	c1.6,0.1,3-0.5,4.3-1.2c14.6-8.8,29.9-16.2,44-25.8c9.7-6.5,18.9-13.7,27.5-21.6c2.5-2.3,5.4-3.8,8.6-1.8
	C315.9,202.8,316.5,206.1,316.1,209.7z M441.1,512.1c-1.2,21.9-10.2,39.3-30.7,48.8c-19.9,9.2-40.1,9.1-58.6-3
	c-19.8-13-29.9-36-22-61.1c0.4-1.4,1.1-2.8,0.7-4.2c0.1-0.1,0.2-0.2,0.3-0.2c0.8-0.7,1.4-1.4,2-2.2c5.8-8.2,13.6-13.4,23.3-16.1
	c6.1-1.7,12.3-3.2,18.6-3.6c24.1-1.5,47.1,0.4,63.2,22c0.1,0.1,0.2,0.1,0.3,0.2c-0.4,1.7,0.4,3.2,0.8,4.8
	C440,502.2,441.4,507.1,441.1,512.1z M536,250.5c1.3,0.8,2.7,1.7,4.3,1.1c0-0.1,0-0.2,0.1-0.3l0.2,0.1c-0.1,0-0.2,0.1-0.3,0.1
	c0,0,0,0,0,0.1c0.6,2.4,2.6,3.2,4.1,3.9c-1.1-0.2-2.4-0.9-3.8-1.5c-28.1-10.5-57.6-17.6-82.4-35.9c-1-0.7-6.8-6.9-6.2-10.7
	c0.5-3.2,1.2-5.9,4.3-7.4c2.8-1.3,5.1,0,7.3,1.7c3.2,2.4,6,5.2,9.2,7.7C492.6,225.3,514.3,237.9,536,250.5z"/>
<path class="st17" d="M531.1,335.9c-0.1-0.2-0.3-0.3-0.4-0.4C530.9,335.6,531,335.7,531.1,335.9z"/>
<path class="st18" d="M531.1,335.9c-0.1-0.2-0.3-0.3-0.4-0.4C530.9,335.6,531,335.7,531.1,335.9z"/>
<g>
	<path class="st19" d="M223.9,318.2c0,20.4,10.5,38.4,26.5,48.8c9.1,5.9,20,9.3,31.6,9.3c8.7,0,16.9-1.9,24.3-5.3
		c19.5-9,33.1-28.4,33.8-51c-0.1-3-0.3-6-0.8-9c-0.3-1.9-0.5-3.8-0.8-5.7c-2.4-7.7-5.5-15.1-9.9-21.8c0,0,0-0.1-0.1-0.1
		c-0.6-1-1.3-2-2-3c-6.4-8.8-14.9-15.2-25.3-19.7c5-2.8,9.5-5.7,11.8-10.8c0.4-0.9,0.8-2.2,0.5-2.9c-0.5-1.1-1.9-0.8-2.8-0.4
		c-15.3,6.4-31.9,9.1-46.9,16.3c-21.6,7.1-37.7,26.5-39.8,50C224,314.7,223.9,316.4,223.9,318.2z"/>
	<path class="st20" d="M299.4,365.5c10.5-4.5,18.3-11.8,23.2-22.1c0.4-1-0.2-1.3-1-1.4c-1.6,0.4-2.3,1.8-3.2,2.8
		c-2,2.4-4.2,4.5-6.8,6.2c-2.1,1.6-4.3,3-6.6,4.2c-3.1,1.7-6.2,3.2-9.7,4.1c-9.2,2.1-18.4,2-27.4-1c-5.7-2.4-11.5-4.7-15.8-9.5
		c-3.2-3.3-6.5-6.4-9.8-9.6c-0.3-0.3-0.7-0.1-0.9,0.2c-0.2,0.2-0.2,0.5-0.1,0.9c3.1,8,8.1,14.6,14.9,19.8c3.9,5.8,10.6,6.5,16.4,8.2
		c6.6,2,13.5,1.3,20.3,0.4C295.5,368.4,297.9,367.9,299.4,365.5z"/>
	<path class="st21" d="M238.8,331.5c0.2,3.3-0.4,6.7,2,9.5c3.2,3.1,6.5,6.2,9.7,9.3c3.8,5.4,9.9,7.2,15.6,9.6
		c9.7,4.4,19.5,4.5,29.4,1c3.6-0.3,6.8-1.9,9.6-4c2.5-0.8,4.6-2.3,6.5-4.1c3.1-1.3,5.1-4,7.1-6.5c1.3-0.6,1.4-2,2.2-3
		c2.9-2.1,2.6-5.8,4.1-8.6c2.6-6-1.2-10.7-3.4-15.5c-1-2.1-2.2,0.5-2.5,1.5c-1.3,4.3-2.3,8.7-3.5,13.1c-1.4,2.1-2.7,4.2-4.1,6.3
		c-12.9,13-29,16-45.7,8.7c-7-3.1-12-8.3-15.5-15.1c-0.1,0.1-0.3,0.3-0.4,0.5c0.1-0.2,0.3-0.3,0.4-0.5c-0.7-2.1-1.4-4.2-2.1-6.3
		c-1.6-6.3-1-12.7-0.8-19.1c0-0.9,0.4-1.7-0.5-2.3c-0.7-0.5-1.2,0-1.8,0.5C241.9,309.7,236,324.8,238.8,331.5z M249.6,334.8
		c-0.1-0.1,0.2-0.4,0.4-0.7C249.9,334.3,249.7,334.5,249.6,334.8z"/>
	<path class="st22" d="M310.3,298.4c-0.1-8.4-8.2-16.1-16.9-16c-8.9,0.1-16.1,7.5-16,16.1c0.2,8.7,8.4,16.1,17.6,15.9
		C303.3,314.3,310.3,306.9,310.3,298.4z"/>
	<path class="st23" d="M273.5,300.9c-0.3-1.8-0.6-4.5-4-4.3c-2.8,0.2-5.4,1.4-5.2,4.6c0.2,2.9,2.3,4.7,5.3,4.7
		C272.4,305.9,273.8,304.3,273.5,300.9z"/>
	<path class="st24" d="M270.5,311.7c0.4,1.7,1.2,3.1,3,3c1.7-0.1,2-1.5,2-3c-0.1-1.4-0.2-2.9-2.1-2.8
		C271.6,308.9,270.7,310,270.5,311.7z"/>
</g>
<g>
	<path class="st19" d="M538,318.2c0,20.4-10.5,38.4-26.5,48.8c-9.1,5.9-20,9.3-31.6,9.3c-8.7,0-16.9-1.9-24.3-5.3
		c-19.5-9-33.1-28.4-33.8-51c0.1-3,0.3-6,0.8-9c0.3-1.9,0.5-3.8,0.8-5.7c2.4-7.7,5.5-15.1,9.9-21.8c0,0,0-0.1,0.1-0.1
		c0.6-1,1.3-2,2-3c6.4-8.8,14.9-15.2,25.3-19.7c-5-2.8-9.5-5.7-11.8-10.8c-0.4-0.9-0.8-2.2-0.5-2.9c0.5-1.1,1.9-0.8,2.8-0.4
		c15.3,6.4,31.9,9.1,46.9,16.3c21.6,7.1,37.7,26.5,39.8,50C537.9,314.7,538,316.4,538,318.2z"/>
	<path class="st20" d="M462.5,365.5c-10.5-4.5-18.3-11.8-23.2-22.1c-0.4-1,0.2-1.3,1-1.4c1.6,0.4,2.3,1.8,3.2,2.8
		c2,2.4,4.2,4.5,6.8,6.2c2.1,1.6,4.3,3,6.6,4.2c3.1,1.7,6.2,3.2,9.7,4.1c9.2,2.1,18.4,2,27.4-1c5.7-2.4,11.5-4.7,15.8-9.5
		c3.2-3.3,6.5-6.4,9.8-9.6c0.3-0.3,0.7-0.1,0.9,0.2c0.2,0.2,0.2,0.5,0.1,0.9c-3.1,8-8.1,14.6-14.9,19.8c-3.9,5.8-10.6,6.5-16.4,8.2
		c-6.6,2-13.5,1.3-20.3,0.4C466.5,368.4,464,367.9,462.5,365.5z"/>
	<path class="st21" d="M516.7,306.3c-0.5-0.5-1-1-1.8-0.5c-0.9,0.6-0.5,1.5-0.5,2.3c0.2,6.4,0.8,12.8-0.8,19.1
		c-0.7,2.1-1.4,4.2-2.1,6.3c0.1,0.1,0.3,0.3,0.4,0.5c-0.1-0.2-0.3-0.3-0.4-0.5c-3.5,6.7-8.4,11.9-15.5,15.1
		c-16.7,7.4-32.8,4.3-45.7-8.7c-1.4-2.1-2.7-4.2-4.1-6.3c-1.1-4.4-2.2-8.7-3.5-13.1c-0.3-1-1.5-3.6-2.5-1.5c-2.3,4.8-6,9.6-3.4,15.5
		c1.5,2.8,1.2,6.5,4.1,8.6c0.7,1,0.9,2.4,2.2,3c2.1,2.5,4,5.2,7.1,6.5c1.9,1.8,4,3.3,6.5,4.1c2.8,2.2,6,3.7,9.6,4
		c9.9,3.6,19.7,3.4,29.4-1c5.7-2.4,11.8-4.2,15.6-9.6c3.2-3.1,6.5-6.2,9.7-9.3c2.4-2.8,1.9-6.2,2-9.5
		C525.9,324.8,520,309.7,516.7,306.3z M511.9,334.1c0.3,0.3,0.5,0.6,0.4,0.7C512.2,334.5,512.1,334.3,511.9,334.1z"/>
	<path class="st22" d="M451.7,298.4c0.1-8.4,8.2-16.1,16.9-16c8.9,0.1,16.1,7.5,16,16.1c-0.2,8.7-8.4,16.1-17.6,15.9
		C458.6,314.3,451.6,306.9,451.7,298.4z"/>
	<path class="st23" d="M488.4,300.9c0.3-1.8,0.6-4.5,4-4.3c2.8,0.2,5.4,1.4,5.2,4.6c-0.2,2.9-2.3,4.7-5.3,4.7
		C489.5,305.9,488.1,304.3,488.4,300.9z"/>
	<path class="st24" d="M491.4,311.7c-0.4,1.7-1.2,3.1-3,3c-1.7-0.1-2-1.5-2-3c0.1-1.4,0.2-2.9,2.1-2.8
		C490.3,308.9,491.2,310,491.4,311.7z"/>
</g>
<path class="st25" d="M262.7,393.4c-4.7,3.9-9.9,2.1-10.9-4.1c-0.4-2.6-0.1-5.3-0.2-7.9c0-0.7-0.2-1.4,0.1-1.9
	c1.7-4,3.5-7.9,5.5-12.6c1.5,4.8-1.2,8.7,0.2,12.6c2.1,1.9,3,4.2,3.1,7C261.8,388.6,263.5,390.6,262.7,393.4z"/>
<path class="st26" d="M396.7,491.8c2.7,2.1,6.3,0.5,9.1,2.2c1.8,1.1,3.7,2.1,3.9,4.4c0.3,2.4-1.8,3.6-3.5,4.6
	c-1.6,1-3.4,1.7-5.1,2.1c-13,2.7-25.9,2.3-38.7-0.9c-2.8-0.7-5.9-2.2-6-5.1c-0.1-3,3.3-4.3,6-5.1c3.2-1,6.5-1.5,9.8-2.3
	C380.3,489.1,388.5,488.2,396.7,491.8z"/>
<path class="st8" d="M279.9,596.2c0,0,0.1,0.1,0.2,0.1C280,596.3,279.9,596.3,279.9,596.2L279.9,596.2z"/>
<path class="st8" d="M280,596.4c3.8,2.7,23,15.2,24.2,16c-3.5-2-7-4-10.4-6L280,596.4z"/>
<path class="st8" d="M476.4,607.7c-1.3,0.8-2.7,1.5-4.1,1.9c-0.5,0.2-1,0.3-1.5,0.5C472.7,609.3,474.6,608.5,476.4,607.7z"/>
<ellipse transform="matrix(0.8832 -0.469 0.469 0.8832 -229.4077 294.9604)" class="st8" cx="477.4" cy="608" rx="16.1" ry="1.7"/>
<path class="st0" d="M544,350.2"/>
<path class="st0" d="M546.6,136.2c-1.9,1.9-3.9,3.8-6,5.7C542.5,140,544.5,138.1,546.6,136.2z"/>
</svg>
