<svg width="20" height="20" viewBox="0 0 20 20" fill="none" xmlns="http://www.w3.org/2000/svg">
<path fill-rule="evenodd" clip-rule="evenodd" d="M4.38823 18.0672C6.01138 19.1504 7.91937 19.7278 9.87076 19.7263C12.484 19.7243 14.9896 18.6853 16.8374 16.8374C18.6853 14.9896 19.7243 12.484 19.7263 9.87075C19.7278 7.91936 19.1504 6.01137 18.0672 4.38822C16.984 2.76507 15.4437 1.49972 13.6411 0.752254C11.8386 0.0047922 9.85478 -0.191179 7.94081 0.189149C6.02684 0.569477 4.26868 1.50902 2.88884 2.88886C1.50899 4.2687 0.569477 6.02683 0.189149 7.9408C-0.19118 9.85477 0.00479221 11.8386 0.752255 13.6411C1.49972 15.4437 2.76508 16.984 4.38823 18.0672ZM5.23596 2.93368C6.60825 2.01833 8.2212 1.53055 9.87076 1.53206C12.0804 1.53609 14.1982 2.41619 15.76 3.97934C17.3217 5.54249 18.1998 7.66113 18.2018 9.87075C18.2018 11.5203 17.7126 13.1328 16.796 14.5043C15.8794 15.8757 14.5766 16.9445 13.0524 17.5754C11.5283 18.2064 9.85129 18.371 8.23353 18.0487C6.61577 17.7263 5.12997 16.9314 3.96408 15.7644C2.7982 14.5975 2.00461 13.1109 1.68372 11.4929C1.36283 9.87484 1.52906 8.19796 2.16137 6.6744C2.79367 5.15083 3.86366 3.84903 5.23596 2.93368ZM8.74833 13.0887C8.84205 13.1293 8.9427 13.1505 9.04444 13.1509L9.006 13.143C9.10904 13.1436 9.21114 13.123 9.30625 13.0824C9.40136 13.0417 9.48755 12.9819 9.55968 12.9064L13.4046 8.8523C13.5464 8.70169 13.624 8.49949 13.6204 8.29019C13.6168 8.08088 13.5322 7.88164 13.3854 7.73626C13.2386 7.59087 13.0414 7.51126 12.8374 7.51496C12.6333 7.51865 12.439 7.60536 12.2973 7.75597L9.03677 11.2264L7.89096 10.0117C7.81947 9.93781 7.73443 9.87915 7.64072 9.83911C7.54701 9.79907 7.4465 9.77845 7.34498 9.77845C7.24347 9.77845 7.14295 9.79907 7.04924 9.83911C6.95553 9.87915 6.87049 9.93781 6.79901 10.0117C6.65578 10.1595 6.57538 10.3594 6.57538 10.5678C6.57538 10.7762 6.65578 10.9761 6.79901 11.1239L8.49847 12.9143C8.56969 12.9888 8.65461 13.0481 8.74833 13.0887Z" fill="#10B981"/>
</svg>
