<svg width="15" height="15" viewBox="0 0 15 15" fill="none" xmlns="http://www.w3.org/2000/svg">
<path d="M11.0846 15.0121H10.8903C9.85353 14.9182 8.84411 14.6285 7.91581 14.1586H7.88545C5.97413 13.2266 4.28195 11.9022 2.91985 10.2724C1.87651 9.06516 1.05457 7.68409 0.491688 6.1925C0.157803 5.37963 0.00854009 4.50313 0.0546169 3.62592C0.107784 2.9093 0.423199 2.23716 0.940893 1.7373L1.97895 0.702192C2.18406 0.49391 2.42873 0.328471 2.69868 0.215536C2.96863 0.102601 3.25844 0.0444336 3.55118 0.0444336C3.84393 0.0444336 4.13374 0.102601 4.40369 0.215536C4.67364 0.328471 4.91831 0.49391 5.12342 0.702192C5.3116 0.877737 5.51193 1.08355 5.70012 1.2712L5.97327 1.54965L6.79886 2.3729C7.02069 2.57429 7.19789 2.81965 7.31915 3.09326C7.44041 3.36688 7.50305 3.66273 7.50305 3.96188C7.50305 4.26102 7.44041 4.55688 7.31915 4.83049C7.19789 5.10411 7.02069 5.34946 6.79886 5.55086L6.54997 5.80509L6.25251 6.10776C6.39249 6.33311 6.54659 6.54944 6.71387 6.75546C7.35258 7.56417 8.11945 8.26344 8.9842 8.82568L9.53055 8.28089C9.73277 8.06439 9.97753 7.89173 10.2496 7.77368C10.5217 7.65563 10.8152 7.5947 11.1119 7.5947C11.4086 7.5947 11.7021 7.65563 11.9742 7.77368C12.2462 7.89173 12.491 8.06439 12.6932 8.28089L14.3505 9.92738C14.5671 10.1306 14.7397 10.3758 14.8577 10.6481C14.9757 10.9203 15.0366 11.2137 15.0366 11.5103C15.0366 11.8069 14.9757 12.1003 14.8577 12.3725C14.7397 12.6448 14.5671 12.89 14.3505 13.0932L13.9377 13.5049C13.7434 13.6925 13.6038 13.8317 13.4763 13.977L13.4277 14.0375C13.1309 14.359 12.7677 14.6126 12.3633 14.7809C11.9588 14.9491 11.5225 15.028 11.0846 15.0121ZM8.46215 13.0509C9.21906 13.4461 10.0419 13.7005 10.8903 13.8015H11.0603C11.3271 13.8105 11.5926 13.761 11.8381 13.6564C12.0835 13.5518 12.303 13.3947 12.4808 13.1961C12.6454 13.0058 12.8196 12.824 13.0028 12.6513C13.1971 12.4697 13.3185 12.3487 13.4217 12.2397C13.6266 12.0442 13.7483 11.7777 13.7616 11.4952C13.7573 11.3574 13.7249 11.222 13.6664 11.0972C13.608 10.9723 13.5247 10.8606 13.4217 10.7688L11.7645 9.11018C11.6761 9.00467 11.5657 8.9198 11.4409 8.86155C11.316 8.80331 11.1799 8.77312 11.0421 8.77312C10.9043 8.77312 10.7681 8.80331 10.6433 8.86155C10.5185 8.9198 10.408 9.00467 10.3197 9.11018L9.45771 9.97579C9.36637 10.067 9.24823 10.1267 9.12049 10.1463C8.99274 10.1659 8.86206 10.1444 8.74746 10.0848L8.65641 10.0363L8.29218 9.84263C7.30635 9.20483 6.43094 8.41161 5.70012 7.49396C5.3812 7.10353 5.10637 6.67926 4.88061 6.22883C4.82525 6.1128 4.80836 5.98222 4.83237 5.85599C4.85637 5.72975 4.92004 5.61441 5.01416 5.52665C5.22662 5.32689 5.42694 5.12713 5.6212 4.92132L5.87614 4.66103C5.98527 4.57248 6.07325 4.4608 6.13367 4.3341C6.19408 4.20741 6.22542 4.06888 6.22542 3.92859C6.22542 3.78829 6.19408 3.64976 6.13367 3.52306C6.07325 3.39637 5.98527 3.28469 5.87614 3.19614L5.0445 2.3729L4.76527 2.08234C4.58922 1.90074 4.40105 1.71309 4.21893 1.53754C4.12779 1.43448 4.01568 1.35195 3.89009 1.29541C3.76449 1.23887 3.62827 1.20964 3.49048 1.20964C3.35268 1.20964 3.21646 1.23887 3.09086 1.29541C2.96527 1.35195 2.85316 1.43448 2.76202 1.53754L1.73006 2.5666C1.41887 2.86273 1.23041 3.26451 1.20193 3.69251C1.16976 4.39243 1.29202 5.09085 1.56009 5.73851C2.08361 7.10005 2.84167 8.35992 3.80007 9.46127C5.05719 10.9713 6.62412 12.1953 8.39538 13.0509H8.46215Z" fill="#c5abff"/>
</svg>
